%TF.GenerationSoftware,KiCad,Pcbnew,(5.99.0-8557-g8988e46ab1)*%
%TF.CreationDate,2021-03-07T20:49:40-07:00*%
%TF.ProjectId,SF65,53463635-2e6b-4696-9361-645f70636258,rev?*%
%TF.SameCoordinates,Original*%
%TF.FileFunction,Legend,Top*%
%TF.FilePolarity,Positive*%
%FSLAX46Y46*%
G04 Gerber Fmt 4.6, Leading zero omitted, Abs format (unit mm)*
G04 Created by KiCad (PCBNEW (5.99.0-8557-g8988e46ab1)) date 2021-03-07 20:49:40*
%MOMM*%
%LPD*%
G01*
G04 APERTURE LIST*
%ADD10C,0.300000*%
%ADD11C,0.250000*%
%ADD12C,0.200000*%
%ADD13C,0.152400*%
%ADD14C,0.150000*%
%ADD15C,0.152000*%
%ADD16C,0.015000*%
%ADD17C,0.120000*%
%ADD18C,0.254000*%
G04 APERTURE END LIST*
D10*
X241377857Y-114708571D02*
X240520714Y-114708571D01*
X240949285Y-114708571D02*
X240949285Y-113208571D01*
X240806428Y-113422857D01*
X240663571Y-113565714D01*
X240520714Y-113637142D01*
X242020714Y-113208571D02*
X242020714Y-114422857D01*
X242092142Y-114565714D01*
X242163571Y-114637142D01*
X242306428Y-114708571D01*
X242592142Y-114708571D01*
X242735000Y-114637142D01*
X242806428Y-114565714D01*
X242877857Y-114422857D01*
X242877857Y-113208571D01*
D11*
X30704688Y-74791858D02*
X31364517Y-74410906D01*
X31634053Y-73925375D02*
X32436739Y-73791858D01*
X31919767Y-74420247D01*
D10*
X282363571Y-10237142D02*
X283506428Y-10237142D01*
X282935000Y-10808571D02*
X282935000Y-9665714D01*
D11*
X69336739Y-112568141D02*
X68676910Y-112187188D01*
X68121660Y-112196529D02*
X67604688Y-111568141D01*
X68407374Y-111701657D01*
D12*
X261723809Y334285D02*
X261761904Y448571D01*
X261761904Y639047D01*
X261723809Y715238D01*
X261685714Y753333D01*
X261609523Y791428D01*
X261533333Y791428D01*
X261457142Y753333D01*
X261419047Y715238D01*
X261380952Y639047D01*
X261342857Y486666D01*
X261304761Y410476D01*
X261266666Y372380D01*
X261190476Y334285D01*
X261114285Y334285D01*
X261038095Y372380D01*
X261000000Y410476D01*
X260961904Y486666D01*
X260961904Y677142D01*
X261000000Y791428D01*
X260961904Y1058095D02*
X261761904Y1248571D01*
X261190476Y1400952D01*
X261761904Y1553333D01*
X260961904Y1743809D01*
X261685714Y2505714D02*
X261723809Y2467619D01*
X261761904Y2353333D01*
X261761904Y2277142D01*
X261723809Y2162857D01*
X261647619Y2086666D01*
X261571428Y2048571D01*
X261419047Y2010476D01*
X261304761Y2010476D01*
X261152380Y2048571D01*
X261076190Y2086666D01*
X261000000Y2162857D01*
X260961904Y2277142D01*
X260961904Y2353333D01*
X261000000Y2467619D01*
X261038095Y2505714D01*
D10*
X25109107Y-77124642D02*
X25323392Y-77196071D01*
X25680535Y-77196071D01*
X25823392Y-77124642D01*
X25894821Y-77053214D01*
X25966250Y-76910357D01*
X25966250Y-76767500D01*
X25894821Y-76624642D01*
X25823392Y-76553214D01*
X25680535Y-76481785D01*
X25394821Y-76410357D01*
X25251964Y-76338928D01*
X25180535Y-76267500D01*
X25109107Y-76124642D01*
X25109107Y-75981785D01*
X25180535Y-75838928D01*
X25251964Y-75767500D01*
X25394821Y-75696071D01*
X25751964Y-75696071D01*
X25966250Y-75767500D01*
X26394821Y-75696071D02*
X27251964Y-75696071D01*
X26823392Y-77196071D02*
X26823392Y-75696071D01*
X27751964Y-76410357D02*
X28251964Y-76410357D01*
X28466250Y-77196071D02*
X27751964Y-77196071D01*
X27751964Y-75696071D01*
X28466250Y-75696071D01*
X29109107Y-77196071D02*
X29109107Y-75696071D01*
X29680535Y-75696071D01*
X29823392Y-75767500D01*
X29894821Y-75838928D01*
X29966250Y-75981785D01*
X29966250Y-76196071D01*
X29894821Y-76338928D01*
X29823392Y-76410357D01*
X29680535Y-76481785D01*
X29109107Y-76481785D01*
X30609107Y-77196071D02*
X30609107Y-75696071D01*
X31180535Y-75696071D01*
X31323392Y-75767500D01*
X31394821Y-75838928D01*
X31466250Y-75981785D01*
X31466250Y-76196071D01*
X31394821Y-76338928D01*
X31323392Y-76410357D01*
X31180535Y-76481785D01*
X30609107Y-76481785D01*
X32109107Y-76410357D02*
X32609107Y-76410357D01*
X32823392Y-77196071D02*
X32109107Y-77196071D01*
X32109107Y-75696071D01*
X32823392Y-75696071D01*
X33466250Y-77196071D02*
X33466250Y-75696071D01*
X33823392Y-75696071D01*
X34037678Y-75767500D01*
X34180535Y-75910357D01*
X34251964Y-76053214D01*
X34323392Y-76338928D01*
X34323392Y-76553214D01*
X34251964Y-76838928D01*
X34180535Y-76981785D01*
X34037678Y-77124642D01*
X33823392Y-77196071D01*
X33466250Y-77196071D01*
D11*
X54304688Y-112591858D02*
X54964517Y-112210906D01*
X55234053Y-111725375D02*
X56036739Y-111591858D01*
X55519767Y-112220247D01*
D10*
X151249285Y-105008571D02*
X150963571Y-105008571D01*
X150820714Y-105080000D01*
X150749285Y-105151428D01*
X150606428Y-105365714D01*
X150535000Y-105651428D01*
X150535000Y-106222857D01*
X150606428Y-106365714D01*
X150677857Y-106437142D01*
X150820714Y-106508571D01*
X151106428Y-106508571D01*
X151249285Y-106437142D01*
X151320714Y-106365714D01*
X151392142Y-106222857D01*
X151392142Y-105865714D01*
X151320714Y-105722857D01*
X151249285Y-105651428D01*
X151106428Y-105580000D01*
X150820714Y-105580000D01*
X150677857Y-105651428D01*
X150606428Y-105722857D01*
X150535000Y-105865714D01*
X152035000Y-106365714D02*
X152106428Y-106437142D01*
X152035000Y-106508571D01*
X151963571Y-106437142D01*
X152035000Y-106365714D01*
X152035000Y-106508571D01*
X152677857Y-105151428D02*
X152749285Y-105080000D01*
X152892142Y-105008571D01*
X153249285Y-105008571D01*
X153392142Y-105080000D01*
X153463571Y-105151428D01*
X153535000Y-105294285D01*
X153535000Y-105437142D01*
X153463571Y-105651428D01*
X152606428Y-106508571D01*
X153535000Y-106508571D01*
X154892142Y-105008571D02*
X154177857Y-105008571D01*
X154106428Y-105722857D01*
X154177857Y-105651428D01*
X154320714Y-105580000D01*
X154677857Y-105580000D01*
X154820714Y-105651428D01*
X154892142Y-105722857D01*
X154963571Y-105865714D01*
X154963571Y-106222857D01*
X154892142Y-106365714D01*
X154820714Y-106437142D01*
X154677857Y-106508571D01*
X154320714Y-106508571D01*
X154177857Y-106437142D01*
X154106428Y-106365714D01*
X155606428Y-105008571D02*
X155606428Y-106222857D01*
X155677857Y-106365714D01*
X155749285Y-106437142D01*
X155892142Y-106508571D01*
X156177857Y-106508571D01*
X156320714Y-106437142D01*
X156392142Y-106365714D01*
X156463571Y-106222857D01*
X156463571Y-105008571D01*
D11*
X217904688Y-112591858D02*
X218564517Y-112210906D01*
X218834053Y-111725375D02*
X219636739Y-111591858D01*
X219119767Y-112220247D01*
X231636739Y-112568141D02*
X230976910Y-112187188D01*
X230421660Y-112196529D02*
X229904688Y-111568141D01*
X230707374Y-111701657D01*
X43136739Y-74768141D02*
X42476910Y-74387188D01*
X41921660Y-74396529D02*
X41404688Y-73768141D01*
X42207374Y-73901657D01*
D10*
X51692142Y-114708571D02*
X50835000Y-114708571D01*
X51263571Y-114708571D02*
X51263571Y-113208571D01*
X51120714Y-113422857D01*
X50977857Y-113565714D01*
X50835000Y-113637142D01*
X52335000Y-114565714D02*
X52406428Y-114637142D01*
X52335000Y-114708571D01*
X52263571Y-114637142D01*
X52335000Y-114565714D01*
X52335000Y-114708571D01*
X52977857Y-113351428D02*
X53049285Y-113280000D01*
X53192142Y-113208571D01*
X53549285Y-113208571D01*
X53692142Y-113280000D01*
X53763571Y-113351428D01*
X53835000Y-113494285D01*
X53835000Y-113637142D01*
X53763571Y-113851428D01*
X52906428Y-114708571D01*
X53835000Y-114708571D01*
X55192142Y-113208571D02*
X54477857Y-113208571D01*
X54406428Y-113922857D01*
X54477857Y-113851428D01*
X54620714Y-113780000D01*
X54977857Y-113780000D01*
X55120714Y-113851428D01*
X55192142Y-113922857D01*
X55263571Y-114065714D01*
X55263571Y-114422857D01*
X55192142Y-114565714D01*
X55120714Y-114637142D01*
X54977857Y-114708571D01*
X54620714Y-114708571D01*
X54477857Y-114637142D01*
X54406428Y-114565714D01*
X55906428Y-113208571D02*
X55906428Y-114422857D01*
X55977857Y-114565714D01*
X56049285Y-114637142D01*
X56192142Y-114708571D01*
X56477857Y-114708571D01*
X56620714Y-114637142D01*
X56692142Y-114565714D01*
X56763571Y-114422857D01*
X56763571Y-113208571D01*
X145149285Y-105008571D02*
X146149285Y-105008571D01*
X145506428Y-106508571D01*
X146720714Y-105008571D02*
X146720714Y-106222857D01*
X146792142Y-106365714D01*
X146863571Y-106437142D01*
X147006428Y-106508571D01*
X147292142Y-106508571D01*
X147435000Y-106437142D01*
X147506428Y-106365714D01*
X147577857Y-106222857D01*
X147577857Y-105008571D01*
D11*
X264636739Y-112568141D02*
X263976910Y-112187188D01*
X263421660Y-112196529D02*
X262904688Y-111568141D01*
X263707374Y-111701657D01*
D12*
X262590476Y-3930000D02*
X262514285Y-3891904D01*
X262400000Y-3891904D01*
X262285714Y-3930000D01*
X262209523Y-4006190D01*
X262171428Y-4082380D01*
X262133333Y-4234761D01*
X262133333Y-4349047D01*
X262171428Y-4501428D01*
X262209523Y-4577619D01*
X262285714Y-4653809D01*
X262400000Y-4691904D01*
X262476190Y-4691904D01*
X262590476Y-4653809D01*
X262628571Y-4615714D01*
X262628571Y-4349047D01*
X262476190Y-4349047D01*
X262971428Y-4691904D02*
X262971428Y-3891904D01*
X263428571Y-4691904D01*
X263428571Y-3891904D01*
X263809523Y-4691904D02*
X263809523Y-3891904D01*
X264000000Y-3891904D01*
X264114285Y-3930000D01*
X264190476Y-4006190D01*
X264228571Y-4082380D01*
X264266666Y-4234761D01*
X264266666Y-4349047D01*
X264228571Y-4501428D01*
X264190476Y-4577619D01*
X264114285Y-4653809D01*
X264000000Y-4691904D01*
X263809523Y-4691904D01*
D13*
X121125666Y-113484895D02*
X121125666Y-114065466D01*
X121086961Y-114181580D01*
X121009552Y-114258990D01*
X120893438Y-114297695D01*
X120816028Y-114297695D01*
X121899761Y-114297695D02*
X121512714Y-114297695D01*
X121512714Y-113484895D01*
X122635152Y-114220285D02*
X122596447Y-114258990D01*
X122480333Y-114297695D01*
X122402923Y-114297695D01*
X122286809Y-114258990D01*
X122209400Y-114181580D01*
X122170695Y-114104171D01*
X122131990Y-113949352D01*
X122131990Y-113833238D01*
X122170695Y-113678419D01*
X122209400Y-113601009D01*
X122286809Y-113523600D01*
X122402923Y-113484895D01*
X122480333Y-113484895D01*
X122596447Y-113523600D01*
X122635152Y-113562304D01*
X123215723Y-113484895D02*
X123215723Y-114065466D01*
X123177019Y-114181580D01*
X123099609Y-114258990D01*
X122983495Y-114297695D01*
X122906085Y-114297695D01*
X123989819Y-114297695D02*
X123602771Y-114297695D01*
X123602771Y-113484895D01*
X124725209Y-114220285D02*
X124686504Y-114258990D01*
X124570390Y-114297695D01*
X124492980Y-114297695D01*
X124376866Y-114258990D01*
X124299457Y-114181580D01*
X124260752Y-114104171D01*
X124222047Y-113949352D01*
X124222047Y-113833238D01*
X124260752Y-113678419D01*
X124299457Y-113601009D01*
X124376866Y-113523600D01*
X124492980Y-113484895D01*
X124570390Y-113484895D01*
X124686504Y-113523600D01*
X124725209Y-113562304D01*
X125305780Y-113484895D02*
X125305780Y-114065466D01*
X125267076Y-114181580D01*
X125189666Y-114258990D01*
X125073552Y-114297695D01*
X124996142Y-114297695D01*
X126079876Y-114297695D02*
X125692828Y-114297695D01*
X125692828Y-113484895D01*
X126815266Y-114220285D02*
X126776561Y-114258990D01*
X126660447Y-114297695D01*
X126583038Y-114297695D01*
X126466923Y-114258990D01*
X126389514Y-114181580D01*
X126350809Y-114104171D01*
X126312104Y-113949352D01*
X126312104Y-113833238D01*
X126350809Y-113678419D01*
X126389514Y-113601009D01*
X126466923Y-113523600D01*
X126583038Y-113484895D01*
X126660447Y-113484895D01*
X126776561Y-113523600D01*
X126815266Y-113562304D01*
D10*
X282363571Y-13587142D02*
X283506428Y-13587142D01*
D12*
X266038095Y2358095D02*
X265771428Y2739047D01*
X265580952Y2358095D02*
X265580952Y3158095D01*
X265885714Y3158095D01*
X265961904Y3120000D01*
X266000000Y3081904D01*
X266038095Y3005714D01*
X266038095Y2891428D01*
X266000000Y2815238D01*
X265961904Y2777142D01*
X265885714Y2739047D01*
X265580952Y2739047D01*
X266380952Y2777142D02*
X266647619Y2777142D01*
X266761904Y2358095D02*
X266380952Y2358095D01*
X266380952Y3158095D01*
X266761904Y3158095D01*
X267066666Y2396190D02*
X267180952Y2358095D01*
X267371428Y2358095D01*
X267447619Y2396190D01*
X267485714Y2434285D01*
X267523809Y2510476D01*
X267523809Y2586666D01*
X267485714Y2662857D01*
X267447619Y2700952D01*
X267371428Y2739047D01*
X267219047Y2777142D01*
X267142857Y2815238D01*
X267104761Y2853333D01*
X267066666Y2929523D01*
X267066666Y3005714D01*
X267104761Y3081904D01*
X267142857Y3120000D01*
X267219047Y3158095D01*
X267409523Y3158095D01*
X267523809Y3120000D01*
X267866666Y2777142D02*
X268133333Y2777142D01*
X268247619Y2358095D02*
X267866666Y2358095D01*
X267866666Y3158095D01*
X268247619Y3158095D01*
X268476190Y3158095D02*
X268933333Y3158095D01*
X268704761Y2358095D02*
X268704761Y3158095D01*
X280282619Y1508095D02*
X280435000Y1508095D01*
X280511190Y1470000D01*
X280587380Y1393809D01*
X280625476Y1241428D01*
X280625476Y974761D01*
X280587380Y822380D01*
X280511190Y746190D01*
X280435000Y708095D01*
X280282619Y708095D01*
X280206428Y746190D01*
X280130238Y822380D01*
X280092142Y974761D01*
X280092142Y1241428D01*
X280130238Y1393809D01*
X280206428Y1470000D01*
X280282619Y1508095D01*
X281235000Y1127142D02*
X280968333Y1127142D01*
X280968333Y708095D02*
X280968333Y1508095D01*
X281349285Y1508095D01*
X281920714Y1127142D02*
X281654047Y1127142D01*
X281654047Y708095D02*
X281654047Y1508095D01*
X282035000Y1508095D01*
X289196904Y1508095D02*
X289349285Y1508095D01*
X289425476Y1470000D01*
X289501666Y1393809D01*
X289539761Y1241428D01*
X289539761Y974761D01*
X289501666Y822380D01*
X289425476Y746190D01*
X289349285Y708095D01*
X289196904Y708095D01*
X289120714Y746190D01*
X289044523Y822380D01*
X289006428Y974761D01*
X289006428Y1241428D01*
X289044523Y1393809D01*
X289120714Y1470000D01*
X289196904Y1508095D01*
X289882619Y708095D02*
X289882619Y1508095D01*
X290339761Y708095D01*
X290339761Y1508095D01*
D10*
X264506428Y-114708571D02*
X263649285Y-114708571D01*
X264077857Y-114708571D02*
X264077857Y-113208571D01*
X263935000Y-113422857D01*
X263792142Y-113565714D01*
X263649285Y-113637142D01*
X265149285Y-114565714D02*
X265220714Y-114637142D01*
X265149285Y-114708571D01*
X265077857Y-114637142D01*
X265149285Y-114565714D01*
X265149285Y-114708571D01*
X266577857Y-113208571D02*
X265863571Y-113208571D01*
X265792142Y-113922857D01*
X265863571Y-113851428D01*
X266006428Y-113780000D01*
X266363571Y-113780000D01*
X266506428Y-113851428D01*
X266577857Y-113922857D01*
X266649285Y-114065714D01*
X266649285Y-114422857D01*
X266577857Y-114565714D01*
X266506428Y-114637142D01*
X266363571Y-114708571D01*
X266006428Y-114708571D01*
X265863571Y-114637142D01*
X265792142Y-114565714D01*
X267292142Y-113208571D02*
X267292142Y-114422857D01*
X267363571Y-114565714D01*
X267435000Y-114637142D01*
X267577857Y-114708571D01*
X267863571Y-114708571D01*
X268006428Y-114637142D01*
X268077857Y-114565714D01*
X268149285Y-114422857D01*
X268149285Y-113208571D01*
D11*
X251804688Y-112591858D02*
X252464517Y-112210906D01*
X252734053Y-111725375D02*
X253536739Y-111591858D01*
X253019767Y-112220247D01*
D10*
X38682321Y-77124642D02*
X38896607Y-77196071D01*
X39253750Y-77196071D01*
X39396607Y-77124642D01*
X39468035Y-77053214D01*
X39539464Y-76910357D01*
X39539464Y-76767500D01*
X39468035Y-76624642D01*
X39396607Y-76553214D01*
X39253750Y-76481785D01*
X38968035Y-76410357D01*
X38825178Y-76338928D01*
X38753750Y-76267500D01*
X38682321Y-76124642D01*
X38682321Y-75981785D01*
X38753750Y-75838928D01*
X38825178Y-75767500D01*
X38968035Y-75696071D01*
X39325178Y-75696071D01*
X39539464Y-75767500D01*
X39968035Y-75696071D02*
X40825178Y-75696071D01*
X40396607Y-77196071D02*
X40396607Y-75696071D01*
X41253750Y-76767500D02*
X41968035Y-76767500D01*
X41110892Y-77196071D02*
X41610892Y-75696071D01*
X42110892Y-77196071D01*
X42610892Y-77196071D02*
X42610892Y-75696071D01*
X43468035Y-77196071D01*
X43468035Y-75696071D01*
X44182321Y-77196071D02*
X44182321Y-75696071D01*
X44539464Y-75696071D01*
X44753750Y-75767500D01*
X44896607Y-75910357D01*
X44968035Y-76053214D01*
X45039464Y-76338928D01*
X45039464Y-76553214D01*
X44968035Y-76838928D01*
X44896607Y-76981785D01*
X44753750Y-77124642D01*
X44539464Y-77196071D01*
X44182321Y-77196071D01*
X45610892Y-76767500D02*
X46325178Y-76767500D01*
X45468035Y-77196071D02*
X45968035Y-75696071D01*
X46468035Y-77196071D01*
X47825178Y-77196071D02*
X47325178Y-76481785D01*
X46968035Y-77196071D02*
X46968035Y-75696071D01*
X47539464Y-75696071D01*
X47682321Y-75767500D01*
X47753750Y-75838928D01*
X47825178Y-75981785D01*
X47825178Y-76196071D01*
X47753750Y-76338928D01*
X47682321Y-76410357D01*
X47539464Y-76481785D01*
X46968035Y-76481785D01*
X48468035Y-77196071D02*
X48468035Y-75696071D01*
X48825178Y-75696071D01*
X49039464Y-75767500D01*
X49182321Y-75910357D01*
X49253750Y-76053214D01*
X49325178Y-76338928D01*
X49325178Y-76553214D01*
X49253750Y-76838928D01*
X49182321Y-76981785D01*
X49039464Y-77124642D01*
X48825178Y-77196071D01*
X48468035Y-77196071D01*
D12*
X261723809Y-2365714D02*
X261761904Y-2251428D01*
X261761904Y-2060952D01*
X261723809Y-1984761D01*
X261685714Y-1946666D01*
X261609523Y-1908571D01*
X261533333Y-1908571D01*
X261457142Y-1946666D01*
X261419047Y-1984761D01*
X261380952Y-2060952D01*
X261342857Y-2213333D01*
X261304761Y-2289523D01*
X261266666Y-2327619D01*
X261190476Y-2365714D01*
X261114285Y-2365714D01*
X261038095Y-2327619D01*
X261000000Y-2289523D01*
X260961904Y-2213333D01*
X260961904Y-2022857D01*
X261000000Y-1908571D01*
X260961904Y-1641904D02*
X261761904Y-1451428D01*
X261190476Y-1299047D01*
X261761904Y-1146666D01*
X260961904Y-956190D01*
X261761904Y-651428D02*
X260961904Y-651428D01*
X260961904Y-460952D01*
X261000000Y-346666D01*
X261076190Y-270476D01*
X261152380Y-232380D01*
X261304761Y-194285D01*
X261419047Y-194285D01*
X261571428Y-232380D01*
X261647619Y-270476D01*
X261723809Y-346666D01*
X261761904Y-460952D01*
X261761904Y-651428D01*
D10*
X69206428Y-114708571D02*
X68349285Y-114708571D01*
X68777857Y-114708571D02*
X68777857Y-113208571D01*
X68635000Y-113422857D01*
X68492142Y-113565714D01*
X68349285Y-113637142D01*
X69849285Y-114565714D02*
X69920714Y-114637142D01*
X69849285Y-114708571D01*
X69777857Y-114637142D01*
X69849285Y-114565714D01*
X69849285Y-114708571D01*
X71277857Y-113208571D02*
X70563571Y-113208571D01*
X70492142Y-113922857D01*
X70563571Y-113851428D01*
X70706428Y-113780000D01*
X71063571Y-113780000D01*
X71206428Y-113851428D01*
X71277857Y-113922857D01*
X71349285Y-114065714D01*
X71349285Y-114422857D01*
X71277857Y-114565714D01*
X71206428Y-114637142D01*
X71063571Y-114708571D01*
X70706428Y-114708571D01*
X70563571Y-114637142D01*
X70492142Y-114565714D01*
X71992142Y-113208571D02*
X71992142Y-114422857D01*
X72063571Y-114565714D01*
X72135000Y-114637142D01*
X72277857Y-114708571D01*
X72563571Y-114708571D01*
X72706428Y-114637142D01*
X72777857Y-114565714D01*
X72849285Y-114422857D01*
X72849285Y-113208571D01*
X40706428Y-114708571D02*
X39849285Y-114708571D01*
X40277857Y-114708571D02*
X40277857Y-113208571D01*
X40135000Y-113422857D01*
X39992142Y-113565714D01*
X39849285Y-113637142D01*
X41349285Y-114565714D02*
X41420714Y-114637142D01*
X41349285Y-114708571D01*
X41277857Y-114637142D01*
X41349285Y-114565714D01*
X41349285Y-114708571D01*
X42777857Y-113208571D02*
X42063571Y-113208571D01*
X41992142Y-113922857D01*
X42063571Y-113851428D01*
X42206428Y-113780000D01*
X42563571Y-113780000D01*
X42706428Y-113851428D01*
X42777857Y-113922857D01*
X42849285Y-114065714D01*
X42849285Y-114422857D01*
X42777857Y-114565714D01*
X42706428Y-114637142D01*
X42563571Y-114708571D01*
X42206428Y-114708571D01*
X42063571Y-114637142D01*
X41992142Y-114565714D01*
X43492142Y-113208571D02*
X43492142Y-114422857D01*
X43563571Y-114565714D01*
X43635000Y-114637142D01*
X43777857Y-114708571D01*
X44063571Y-114708571D01*
X44206428Y-114637142D01*
X44277857Y-114565714D01*
X44349285Y-114422857D01*
X44349285Y-113208571D01*
X347980714Y-81642142D02*
X349695000Y-81642142D01*
X348837857Y-84642142D02*
X348837857Y-81642142D01*
X351266428Y-81642142D02*
X351837857Y-81642142D01*
X352123571Y-81785000D01*
X352409285Y-82070714D01*
X352552142Y-82642142D01*
X352552142Y-83642142D01*
X352409285Y-84213571D01*
X352123571Y-84499285D01*
X351837857Y-84642142D01*
X351266428Y-84642142D01*
X350980714Y-84499285D01*
X350695000Y-84213571D01*
X350552142Y-83642142D01*
X350552142Y-82642142D01*
X350695000Y-82070714D01*
X350980714Y-81785000D01*
X351266428Y-81642142D01*
X353837857Y-84642142D02*
X353837857Y-81642142D01*
X354552142Y-81642142D01*
X354980714Y-81785000D01*
X355266428Y-82070714D01*
X355409285Y-82356428D01*
X355552142Y-82927857D01*
X355552142Y-83356428D01*
X355409285Y-83927857D01*
X355266428Y-84213571D01*
X354980714Y-84499285D01*
X354552142Y-84642142D01*
X353837857Y-84642142D01*
X357409285Y-81642142D02*
X357980714Y-81642142D01*
X358266428Y-81785000D01*
X358552142Y-82070714D01*
X358695000Y-82642142D01*
X358695000Y-83642142D01*
X358552142Y-84213571D01*
X358266428Y-84499285D01*
X357980714Y-84642142D01*
X357409285Y-84642142D01*
X357123571Y-84499285D01*
X356837857Y-84213571D01*
X356695000Y-83642142D01*
X356695000Y-82642142D01*
X356837857Y-82070714D01*
X357123571Y-81785000D01*
X357409285Y-81642142D01*
X359980714Y-84356428D02*
X360123571Y-84499285D01*
X359980714Y-84642142D01*
X359837857Y-84499285D01*
X359980714Y-84356428D01*
X359980714Y-84642142D01*
X359980714Y-82785000D02*
X360123571Y-82927857D01*
X359980714Y-83070714D01*
X359837857Y-82927857D01*
X359980714Y-82785000D01*
X359980714Y-83070714D01*
X348837857Y-86472142D02*
X348837857Y-87186428D01*
X348123571Y-86900714D02*
X348837857Y-87186428D01*
X349552142Y-86900714D01*
X348409285Y-87757857D02*
X348837857Y-87186428D01*
X349266428Y-87757857D01*
X354695000Y-89186428D02*
X354552142Y-89329285D01*
X354123571Y-89472142D01*
X353837857Y-89472142D01*
X353409285Y-89329285D01*
X353123571Y-89043571D01*
X352980714Y-88757857D01*
X352837857Y-88186428D01*
X352837857Y-87757857D01*
X352980714Y-87186428D01*
X353123571Y-86900714D01*
X353409285Y-86615000D01*
X353837857Y-86472142D01*
X354123571Y-86472142D01*
X354552142Y-86615000D01*
X354695000Y-86757857D01*
X355980714Y-89472142D02*
X355980714Y-86472142D01*
X357266428Y-89472142D02*
X357266428Y-87900714D01*
X357123571Y-87615000D01*
X356837857Y-87472142D01*
X356409285Y-87472142D01*
X356123571Y-87615000D01*
X355980714Y-87757857D01*
X359837857Y-89329285D02*
X359552142Y-89472142D01*
X358980714Y-89472142D01*
X358695000Y-89329285D01*
X358552142Y-89043571D01*
X358552142Y-87900714D01*
X358695000Y-87615000D01*
X358980714Y-87472142D01*
X359552142Y-87472142D01*
X359837857Y-87615000D01*
X359980714Y-87900714D01*
X359980714Y-88186428D01*
X358552142Y-88472142D01*
X362552142Y-89329285D02*
X362266428Y-89472142D01*
X361695000Y-89472142D01*
X361409285Y-89329285D01*
X361266428Y-89186428D01*
X361123571Y-88900714D01*
X361123571Y-88043571D01*
X361266428Y-87757857D01*
X361409285Y-87615000D01*
X361695000Y-87472142D01*
X362266428Y-87472142D01*
X362552142Y-87615000D01*
X363837857Y-89472142D02*
X363837857Y-86472142D01*
X364123571Y-88329285D02*
X364980714Y-89472142D01*
X364980714Y-87472142D02*
X363837857Y-88615000D01*
X368123571Y-87472142D02*
X369266428Y-87472142D01*
X368552142Y-86472142D02*
X368552142Y-89043571D01*
X368695000Y-89329285D01*
X368980714Y-89472142D01*
X369266428Y-89472142D01*
X370266428Y-89472142D02*
X370266428Y-86472142D01*
X371552142Y-89472142D02*
X371552142Y-87900714D01*
X371409285Y-87615000D01*
X371123571Y-87472142D01*
X370695000Y-87472142D01*
X370409285Y-87615000D01*
X370266428Y-87757857D01*
X374123571Y-89329285D02*
X373837857Y-89472142D01*
X373266428Y-89472142D01*
X372980714Y-89329285D01*
X372837857Y-89043571D01*
X372837857Y-87900714D01*
X372980714Y-87615000D01*
X373266428Y-87472142D01*
X373837857Y-87472142D01*
X374123571Y-87615000D01*
X374266428Y-87900714D01*
X374266428Y-88186428D01*
X372837857Y-88472142D01*
X377695000Y-89329285D02*
X377980714Y-89472142D01*
X378552142Y-89472142D01*
X378837857Y-89329285D01*
X378980714Y-89043571D01*
X378980714Y-88900714D01*
X378837857Y-88615000D01*
X378552142Y-88472142D01*
X378123571Y-88472142D01*
X377837857Y-88329285D01*
X377695000Y-88043571D01*
X377695000Y-87900714D01*
X377837857Y-87615000D01*
X378123571Y-87472142D01*
X378552142Y-87472142D01*
X378837857Y-87615000D01*
X381552142Y-89329285D02*
X381266428Y-89472142D01*
X380695000Y-89472142D01*
X380409285Y-89329285D01*
X380266428Y-89186428D01*
X380123571Y-88900714D01*
X380123571Y-88043571D01*
X380266428Y-87757857D01*
X380409285Y-87615000D01*
X380695000Y-87472142D01*
X381266428Y-87472142D01*
X381552142Y-87615000D01*
X382837857Y-89472142D02*
X382837857Y-86472142D01*
X384123571Y-89472142D02*
X384123571Y-87900714D01*
X383980714Y-87615000D01*
X383695000Y-87472142D01*
X383266428Y-87472142D01*
X382980714Y-87615000D01*
X382837857Y-87757857D01*
X386695000Y-89329285D02*
X386409285Y-89472142D01*
X385837857Y-89472142D01*
X385552142Y-89329285D01*
X385409285Y-89043571D01*
X385409285Y-87900714D01*
X385552142Y-87615000D01*
X385837857Y-87472142D01*
X386409285Y-87472142D01*
X386695000Y-87615000D01*
X386837857Y-87900714D01*
X386837857Y-88186428D01*
X385409285Y-88472142D01*
X388123571Y-89472142D02*
X388123571Y-87472142D01*
X388123571Y-87757857D02*
X388266428Y-87615000D01*
X388552142Y-87472142D01*
X388980714Y-87472142D01*
X389266428Y-87615000D01*
X389409285Y-87900714D01*
X389409285Y-89472142D01*
X389409285Y-87900714D02*
X389552142Y-87615000D01*
X389837857Y-87472142D01*
X390266428Y-87472142D01*
X390552142Y-87615000D01*
X390695000Y-87900714D01*
X390695000Y-89472142D01*
X393409285Y-89472142D02*
X393409285Y-87900714D01*
X393266428Y-87615000D01*
X392980714Y-87472142D01*
X392409285Y-87472142D01*
X392123571Y-87615000D01*
X393409285Y-89329285D02*
X393123571Y-89472142D01*
X392409285Y-89472142D01*
X392123571Y-89329285D01*
X391980714Y-89043571D01*
X391980714Y-88757857D01*
X392123571Y-88472142D01*
X392409285Y-88329285D01*
X393123571Y-88329285D01*
X393409285Y-88186428D01*
X394409285Y-87472142D02*
X395552142Y-87472142D01*
X394837857Y-86472142D02*
X394837857Y-89043571D01*
X394980714Y-89329285D01*
X395266428Y-89472142D01*
X395552142Y-89472142D01*
X396552142Y-89472142D02*
X396552142Y-87472142D01*
X396552142Y-86472142D02*
X396409285Y-86615000D01*
X396552142Y-86757857D01*
X396695000Y-86615000D01*
X396552142Y-86472142D01*
X396552142Y-86757857D01*
X399266428Y-89329285D02*
X398980714Y-89472142D01*
X398409285Y-89472142D01*
X398123571Y-89329285D01*
X397980714Y-89186428D01*
X397837857Y-88900714D01*
X397837857Y-88043571D01*
X397980714Y-87757857D01*
X398123571Y-87615000D01*
X398409285Y-87472142D01*
X398980714Y-87472142D01*
X399266428Y-87615000D01*
X400695000Y-89329285D02*
X400695000Y-89472142D01*
X400552142Y-89757857D01*
X400409285Y-89900714D01*
X404266428Y-89472142D02*
X404266428Y-87472142D01*
X404266428Y-87757857D02*
X404409285Y-87615000D01*
X404695000Y-87472142D01*
X405123571Y-87472142D01*
X405409285Y-87615000D01*
X405552142Y-87900714D01*
X405552142Y-89472142D01*
X405552142Y-87900714D02*
X405695000Y-87615000D01*
X405980714Y-87472142D01*
X406409285Y-87472142D01*
X406695000Y-87615000D01*
X406837857Y-87900714D01*
X406837857Y-89472142D01*
X408695000Y-89472142D02*
X408409285Y-89329285D01*
X408266428Y-89186428D01*
X408123571Y-88900714D01*
X408123571Y-88043571D01*
X408266428Y-87757857D01*
X408409285Y-87615000D01*
X408695000Y-87472142D01*
X409123571Y-87472142D01*
X409409285Y-87615000D01*
X409552142Y-87757857D01*
X409695000Y-88043571D01*
X409695000Y-88900714D01*
X409552142Y-89186428D01*
X409409285Y-89329285D01*
X409123571Y-89472142D01*
X408695000Y-89472142D01*
X412266428Y-89472142D02*
X412266428Y-86472142D01*
X412266428Y-89329285D02*
X411980714Y-89472142D01*
X411409285Y-89472142D01*
X411123571Y-89329285D01*
X410980714Y-89186428D01*
X410837857Y-88900714D01*
X410837857Y-88043571D01*
X410980714Y-87757857D01*
X411123571Y-87615000D01*
X411409285Y-87472142D01*
X411980714Y-87472142D01*
X412266428Y-87615000D01*
X414980714Y-87472142D02*
X414980714Y-89472142D01*
X413695000Y-87472142D02*
X413695000Y-89043571D01*
X413837857Y-89329285D01*
X414123571Y-89472142D01*
X414552142Y-89472142D01*
X414837857Y-89329285D01*
X414980714Y-89186428D01*
X416837857Y-89472142D02*
X416552142Y-89329285D01*
X416409285Y-89043571D01*
X416409285Y-86472142D01*
X419123571Y-89329285D02*
X418837857Y-89472142D01*
X418266428Y-89472142D01*
X417980714Y-89329285D01*
X417837857Y-89043571D01*
X417837857Y-87900714D01*
X417980714Y-87615000D01*
X418266428Y-87472142D01*
X418837857Y-87472142D01*
X419123571Y-87615000D01*
X419266428Y-87900714D01*
X419266428Y-88186428D01*
X417837857Y-88472142D01*
X423980714Y-89329285D02*
X423695000Y-89472142D01*
X423123571Y-89472142D01*
X422837857Y-89329285D01*
X422695000Y-89043571D01*
X422695000Y-87900714D01*
X422837857Y-87615000D01*
X423123571Y-87472142D01*
X423695000Y-87472142D01*
X423980714Y-87615000D01*
X424123571Y-87900714D01*
X424123571Y-88186428D01*
X422695000Y-88472142D01*
X425266428Y-89329285D02*
X425552142Y-89472142D01*
X426123571Y-89472142D01*
X426409285Y-89329285D01*
X426552142Y-89043571D01*
X426552142Y-88900714D01*
X426409285Y-88615000D01*
X426123571Y-88472142D01*
X425695000Y-88472142D01*
X425409285Y-88329285D01*
X425266428Y-88043571D01*
X425266428Y-87900714D01*
X425409285Y-87615000D01*
X425695000Y-87472142D01*
X426123571Y-87472142D01*
X426409285Y-87615000D01*
X427837857Y-87472142D02*
X427837857Y-90472142D01*
X427837857Y-87615000D02*
X428123571Y-87472142D01*
X428695000Y-87472142D01*
X428980714Y-87615000D01*
X429123571Y-87757857D01*
X429266428Y-88043571D01*
X429266428Y-88900714D01*
X429123571Y-89186428D01*
X428980714Y-89329285D01*
X428695000Y-89472142D01*
X428123571Y-89472142D01*
X427837857Y-89329285D01*
X431695000Y-89329285D02*
X431409285Y-89472142D01*
X430837857Y-89472142D01*
X430552142Y-89329285D01*
X430409285Y-89043571D01*
X430409285Y-87900714D01*
X430552142Y-87615000D01*
X430837857Y-87472142D01*
X431409285Y-87472142D01*
X431695000Y-87615000D01*
X431837857Y-87900714D01*
X431837857Y-88186428D01*
X430409285Y-88472142D01*
X434409285Y-89329285D02*
X434123571Y-89472142D01*
X433552142Y-89472142D01*
X433266428Y-89329285D01*
X433123571Y-89186428D01*
X432980714Y-88900714D01*
X432980714Y-88043571D01*
X433123571Y-87757857D01*
X433266428Y-87615000D01*
X433552142Y-87472142D01*
X434123571Y-87472142D01*
X434409285Y-87615000D01*
X435695000Y-89472142D02*
X435695000Y-87472142D01*
X435695000Y-86472142D02*
X435552142Y-86615000D01*
X435695000Y-86757857D01*
X435837857Y-86615000D01*
X435695000Y-86472142D01*
X435695000Y-86757857D01*
X438409285Y-89472142D02*
X438409285Y-87900714D01*
X438266428Y-87615000D01*
X437980714Y-87472142D01*
X437409285Y-87472142D01*
X437123571Y-87615000D01*
X438409285Y-89329285D02*
X438123571Y-89472142D01*
X437409285Y-89472142D01*
X437123571Y-89329285D01*
X436980714Y-89043571D01*
X436980714Y-88757857D01*
X437123571Y-88472142D01*
X437409285Y-88329285D01*
X438123571Y-88329285D01*
X438409285Y-88186428D01*
X440266428Y-89472142D02*
X439980714Y-89329285D01*
X439837857Y-89043571D01*
X439837857Y-86472142D01*
X441837857Y-89472142D02*
X441552142Y-89329285D01*
X441409285Y-89043571D01*
X441409285Y-86472142D01*
X442695000Y-87472142D02*
X443409285Y-89472142D01*
X444123571Y-87472142D02*
X443409285Y-89472142D01*
X443123571Y-90186428D01*
X442980714Y-90329285D01*
X442695000Y-90472142D01*
X445266428Y-89186428D02*
X445409285Y-89329285D01*
X445266428Y-89472142D01*
X445123571Y-89329285D01*
X445266428Y-89186428D01*
X445266428Y-89472142D01*
D11*
X30504688Y-112591858D02*
X31164517Y-112210906D01*
X31434053Y-111725375D02*
X32236739Y-111591858D01*
X31719767Y-112220247D01*
D10*
X231506428Y-114708571D02*
X230649285Y-114708571D01*
X231077857Y-114708571D02*
X231077857Y-113208571D01*
X230935000Y-113422857D01*
X230792142Y-113565714D01*
X230649285Y-113637142D01*
X232149285Y-114565714D02*
X232220714Y-114637142D01*
X232149285Y-114708571D01*
X232077857Y-114637142D01*
X232149285Y-114565714D01*
X232149285Y-114708571D01*
X233577857Y-113208571D02*
X232863571Y-113208571D01*
X232792142Y-113922857D01*
X232863571Y-113851428D01*
X233006428Y-113780000D01*
X233363571Y-113780000D01*
X233506428Y-113851428D01*
X233577857Y-113922857D01*
X233649285Y-114065714D01*
X233649285Y-114422857D01*
X233577857Y-114565714D01*
X233506428Y-114637142D01*
X233363571Y-114708571D01*
X233006428Y-114708571D01*
X232863571Y-114637142D01*
X232792142Y-114565714D01*
X234292142Y-113208571D02*
X234292142Y-114422857D01*
X234363571Y-114565714D01*
X234435000Y-114637142D01*
X234577857Y-114708571D01*
X234863571Y-114708571D01*
X235006428Y-114637142D01*
X235077857Y-114565714D01*
X235149285Y-114422857D01*
X235149285Y-113208571D01*
X273863571Y-10637142D02*
X275006428Y-10637142D01*
X274435000Y-11208571D02*
X274435000Y-10065714D01*
X27892142Y-114708571D02*
X27035000Y-114708571D01*
X27463571Y-114708571D02*
X27463571Y-113208571D01*
X27320714Y-113422857D01*
X27177857Y-113565714D01*
X27035000Y-113637142D01*
X28535000Y-114565714D02*
X28606428Y-114637142D01*
X28535000Y-114708571D01*
X28463571Y-114637142D01*
X28535000Y-114565714D01*
X28535000Y-114708571D01*
X29177857Y-113351428D02*
X29249285Y-113280000D01*
X29392142Y-113208571D01*
X29749285Y-113208571D01*
X29892142Y-113280000D01*
X29963571Y-113351428D01*
X30035000Y-113494285D01*
X30035000Y-113637142D01*
X29963571Y-113851428D01*
X29106428Y-114708571D01*
X30035000Y-114708571D01*
X31392142Y-113208571D02*
X30677857Y-113208571D01*
X30606428Y-113922857D01*
X30677857Y-113851428D01*
X30820714Y-113780000D01*
X31177857Y-113780000D01*
X31320714Y-113851428D01*
X31392142Y-113922857D01*
X31463571Y-114065714D01*
X31463571Y-114422857D01*
X31392142Y-114565714D01*
X31320714Y-114637142D01*
X31177857Y-114708571D01*
X30820714Y-114708571D01*
X30677857Y-114637142D01*
X30606428Y-114565714D01*
X32106428Y-113208571D02*
X32106428Y-114422857D01*
X32177857Y-114565714D01*
X32249285Y-114637142D01*
X32392142Y-114708571D01*
X32677857Y-114708571D01*
X32820714Y-114637142D01*
X32892142Y-114565714D01*
X32963571Y-114422857D01*
X32963571Y-113208571D01*
D13*
X120827583Y-109134783D02*
X120827583Y-108321983D01*
X121098517Y-108902554D01*
X121369450Y-108321983D01*
X121369450Y-109134783D01*
X121911317Y-108321983D02*
X122066136Y-108321983D01*
X122143545Y-108360688D01*
X122220955Y-108438097D01*
X122259660Y-108592916D01*
X122259660Y-108863849D01*
X122220955Y-109018668D01*
X122143545Y-109096078D01*
X122066136Y-109134783D01*
X121911317Y-109134783D01*
X121833907Y-109096078D01*
X121756498Y-109018668D01*
X121717793Y-108863849D01*
X121717793Y-108592916D01*
X121756498Y-108438097D01*
X121833907Y-108360688D01*
X121911317Y-108321983D01*
X122608002Y-109134783D02*
X122608002Y-108321983D01*
X122801526Y-108321983D01*
X122917640Y-108360688D01*
X122995050Y-108438097D01*
X123033755Y-108515507D01*
X123072460Y-108670326D01*
X123072460Y-108786440D01*
X123033755Y-108941259D01*
X122995050Y-109018668D01*
X122917640Y-109096078D01*
X122801526Y-109134783D01*
X122608002Y-109134783D01*
X123420802Y-108709030D02*
X123691736Y-108709030D01*
X123807850Y-109134783D02*
X123420802Y-109134783D01*
X123420802Y-108321983D01*
X123807850Y-108321983D01*
X124543240Y-109134783D02*
X124156193Y-109134783D01*
X124156193Y-108321983D01*
X124814174Y-109057373D02*
X124852879Y-109096078D01*
X124814174Y-109134783D01*
X124775469Y-109096078D01*
X124814174Y-109057373D01*
X124814174Y-109134783D01*
X124814174Y-108631621D02*
X124852879Y-108670326D01*
X124814174Y-108709030D01*
X124775469Y-108670326D01*
X124814174Y-108631621D01*
X124814174Y-108709030D01*
X125781793Y-109096078D02*
X125897907Y-109134783D01*
X126091431Y-109134783D01*
X126168840Y-109096078D01*
X126207545Y-109057373D01*
X126246250Y-108979964D01*
X126246250Y-108902554D01*
X126207545Y-108825145D01*
X126168840Y-108786440D01*
X126091431Y-108747735D01*
X125936612Y-108709030D01*
X125859202Y-108670326D01*
X125820498Y-108631621D01*
X125781793Y-108554211D01*
X125781793Y-108476802D01*
X125820498Y-108399392D01*
X125859202Y-108360688D01*
X125936612Y-108321983D01*
X126130136Y-108321983D01*
X126246250Y-108360688D01*
X126865526Y-108709030D02*
X126594593Y-108709030D01*
X126594593Y-109134783D02*
X126594593Y-108321983D01*
X126981640Y-108321983D01*
X127639621Y-108321983D02*
X127484802Y-108321983D01*
X127407393Y-108360688D01*
X127368688Y-108399392D01*
X127291279Y-108515507D01*
X127252574Y-108670326D01*
X127252574Y-108979964D01*
X127291279Y-109057373D01*
X127329983Y-109096078D01*
X127407393Y-109134783D01*
X127562212Y-109134783D01*
X127639621Y-109096078D01*
X127678326Y-109057373D01*
X127717031Y-108979964D01*
X127717031Y-108786440D01*
X127678326Y-108709030D01*
X127639621Y-108670326D01*
X127562212Y-108631621D01*
X127407393Y-108631621D01*
X127329983Y-108670326D01*
X127291279Y-108709030D01*
X127252574Y-108786440D01*
X128452421Y-108321983D02*
X128065374Y-108321983D01*
X128026669Y-108709030D01*
X128065374Y-108670326D01*
X128142783Y-108631621D01*
X128336307Y-108631621D01*
X128413717Y-108670326D01*
X128452421Y-108709030D01*
X128491126Y-108786440D01*
X128491126Y-108979964D01*
X128452421Y-109057373D01*
X128413717Y-109096078D01*
X128336307Y-109134783D01*
X128142783Y-109134783D01*
X128065374Y-109096078D01*
X128026669Y-109057373D01*
X121292040Y-110443391D02*
X121021107Y-110056343D01*
X120827583Y-110443391D02*
X120827583Y-109630591D01*
X121137221Y-109630591D01*
X121214631Y-109669296D01*
X121253336Y-109708000D01*
X121292040Y-109785410D01*
X121292040Y-109901524D01*
X121253336Y-109978934D01*
X121214631Y-110017638D01*
X121137221Y-110056343D01*
X120827583Y-110056343D01*
X121640383Y-110017638D02*
X121911317Y-110017638D01*
X122027431Y-110443391D02*
X121640383Y-110443391D01*
X121640383Y-109630591D01*
X122027431Y-109630591D01*
X122259660Y-109630591D02*
X122530593Y-110443391D01*
X122801526Y-109630591D01*
X123072460Y-110443391D02*
X123072460Y-109630591D01*
X123420802Y-110404686D02*
X123536917Y-110443391D01*
X123730440Y-110443391D01*
X123807850Y-110404686D01*
X123846555Y-110365981D01*
X123885260Y-110288572D01*
X123885260Y-110211162D01*
X123846555Y-110133753D01*
X123807850Y-110095048D01*
X123730440Y-110056343D01*
X123575621Y-110017638D01*
X123498212Y-109978934D01*
X123459507Y-109940229D01*
X123420802Y-109862819D01*
X123420802Y-109785410D01*
X123459507Y-109708000D01*
X123498212Y-109669296D01*
X123575621Y-109630591D01*
X123769145Y-109630591D01*
X123885260Y-109669296D01*
X124233602Y-110443391D02*
X124233602Y-109630591D01*
X124775469Y-109630591D02*
X124930288Y-109630591D01*
X125007698Y-109669296D01*
X125085107Y-109746705D01*
X125123812Y-109901524D01*
X125123812Y-110172457D01*
X125085107Y-110327276D01*
X125007698Y-110404686D01*
X124930288Y-110443391D01*
X124775469Y-110443391D01*
X124698060Y-110404686D01*
X124620650Y-110327276D01*
X124581945Y-110172457D01*
X124581945Y-109901524D01*
X124620650Y-109746705D01*
X124698060Y-109669296D01*
X124775469Y-109630591D01*
X125472155Y-110443391D02*
X125472155Y-109630591D01*
X125936612Y-110443391D01*
X125936612Y-109630591D01*
X126323660Y-110365981D02*
X126362364Y-110404686D01*
X126323660Y-110443391D01*
X126284955Y-110404686D01*
X126323660Y-110365981D01*
X126323660Y-110443391D01*
X126323660Y-109940229D02*
X126362364Y-109978934D01*
X126323660Y-110017638D01*
X126284955Y-109978934D01*
X126323660Y-109940229D01*
X126323660Y-110017638D01*
X127755736Y-110443391D02*
X127291279Y-110443391D01*
X127523507Y-110443391D02*
X127523507Y-109630591D01*
X127446098Y-109746705D01*
X127368688Y-109824115D01*
X127291279Y-109862819D01*
X120827583Y-111751999D02*
X120827583Y-110939199D01*
X121021107Y-110939199D01*
X121137221Y-110977904D01*
X121214631Y-111055313D01*
X121253336Y-111132723D01*
X121292040Y-111287542D01*
X121292040Y-111403656D01*
X121253336Y-111558475D01*
X121214631Y-111635884D01*
X121137221Y-111713294D01*
X121021107Y-111751999D01*
X120827583Y-111751999D01*
X121601679Y-111519770D02*
X121988726Y-111519770D01*
X121524269Y-111751999D02*
X121795202Y-110939199D01*
X122066136Y-111751999D01*
X122220955Y-110939199D02*
X122685412Y-110939199D01*
X122453183Y-111751999D02*
X122453183Y-110939199D01*
X122956345Y-111326246D02*
X123227279Y-111326246D01*
X123343393Y-111751999D02*
X122956345Y-111751999D01*
X122956345Y-110939199D01*
X123343393Y-110939199D01*
X123691736Y-111674589D02*
X123730440Y-111713294D01*
X123691736Y-111751999D01*
X123653031Y-111713294D01*
X123691736Y-111674589D01*
X123691736Y-111751999D01*
X123691736Y-111248837D02*
X123730440Y-111287542D01*
X123691736Y-111326246D01*
X123653031Y-111287542D01*
X123691736Y-111248837D01*
X123691736Y-111326246D01*
X124852879Y-110939199D02*
X124930288Y-110939199D01*
X125007698Y-110977904D01*
X125046402Y-111016608D01*
X125085107Y-111094018D01*
X125123812Y-111248837D01*
X125123812Y-111442361D01*
X125085107Y-111597180D01*
X125046402Y-111674589D01*
X125007698Y-111713294D01*
X124930288Y-111751999D01*
X124852879Y-111751999D01*
X124775469Y-111713294D01*
X124736764Y-111674589D01*
X124698060Y-111597180D01*
X124659355Y-111442361D01*
X124659355Y-111248837D01*
X124698060Y-111094018D01*
X124736764Y-111016608D01*
X124775469Y-110977904D01*
X124852879Y-110939199D01*
X125820498Y-111210132D02*
X125820498Y-111751999D01*
X125626974Y-110900494D02*
X125433450Y-111481065D01*
X125936612Y-111481065D01*
X126865526Y-111751999D02*
X126865526Y-110939199D01*
X127136460Y-111519770D01*
X127407393Y-110939199D01*
X127407393Y-111751999D01*
X127755736Y-111519770D02*
X128142783Y-111519770D01*
X127678326Y-111751999D02*
X127949260Y-110939199D01*
X128220193Y-111751999D01*
X128955583Y-111751999D02*
X128684650Y-111364951D01*
X128491126Y-111751999D02*
X128491126Y-110939199D01*
X128800764Y-110939199D01*
X128878174Y-110977904D01*
X128916879Y-111016608D01*
X128955583Y-111094018D01*
X128955583Y-111210132D01*
X128916879Y-111287542D01*
X128878174Y-111326246D01*
X128800764Y-111364951D01*
X128491126Y-111364951D01*
X129884498Y-111016608D02*
X129923202Y-110977904D01*
X130000612Y-110939199D01*
X130194136Y-110939199D01*
X130271545Y-110977904D01*
X130310250Y-111016608D01*
X130348955Y-111094018D01*
X130348955Y-111171427D01*
X130310250Y-111287542D01*
X129845793Y-111751999D01*
X130348955Y-111751999D01*
X130852117Y-110939199D02*
X130929526Y-110939199D01*
X131006936Y-110977904D01*
X131045640Y-111016608D01*
X131084345Y-111094018D01*
X131123050Y-111248837D01*
X131123050Y-111442361D01*
X131084345Y-111597180D01*
X131045640Y-111674589D01*
X131006936Y-111713294D01*
X130929526Y-111751999D01*
X130852117Y-111751999D01*
X130774707Y-111713294D01*
X130736002Y-111674589D01*
X130697298Y-111597180D01*
X130658593Y-111442361D01*
X130658593Y-111248837D01*
X130697298Y-111094018D01*
X130736002Y-111016608D01*
X130774707Y-110977904D01*
X130852117Y-110939199D01*
X131432688Y-111016608D02*
X131471393Y-110977904D01*
X131548802Y-110939199D01*
X131742326Y-110939199D01*
X131819736Y-110977904D01*
X131858440Y-111016608D01*
X131897145Y-111094018D01*
X131897145Y-111171427D01*
X131858440Y-111287542D01*
X131393983Y-111751999D01*
X131897145Y-111751999D01*
X132400307Y-110939199D02*
X132477717Y-110939199D01*
X132555126Y-110977904D01*
X132593831Y-111016608D01*
X132632536Y-111094018D01*
X132671240Y-111248837D01*
X132671240Y-111442361D01*
X132632536Y-111597180D01*
X132593831Y-111674589D01*
X132555126Y-111713294D01*
X132477717Y-111751999D01*
X132400307Y-111751999D01*
X132322898Y-111713294D01*
X132284193Y-111674589D01*
X132245488Y-111597180D01*
X132206783Y-111442361D01*
X132206783Y-111248837D01*
X132245488Y-111094018D01*
X132284193Y-111016608D01*
X132322898Y-110977904D01*
X132400307Y-110939199D01*
X121098517Y-112634854D02*
X121214631Y-112673559D01*
X121253336Y-112712264D01*
X121292040Y-112789673D01*
X121292040Y-112905788D01*
X121253336Y-112983197D01*
X121214631Y-113021902D01*
X121137221Y-113060607D01*
X120827583Y-113060607D01*
X120827583Y-112247807D01*
X121098517Y-112247807D01*
X121175926Y-112286512D01*
X121214631Y-112325216D01*
X121253336Y-112402626D01*
X121253336Y-112480035D01*
X121214631Y-112557445D01*
X121175926Y-112596150D01*
X121098517Y-112634854D01*
X120827583Y-112634854D01*
X121795202Y-112673559D02*
X121795202Y-113060607D01*
X121524269Y-112247807D02*
X121795202Y-112673559D01*
X122066136Y-112247807D01*
X122337069Y-112983197D02*
X122375774Y-113021902D01*
X122337069Y-113060607D01*
X122298364Y-113021902D01*
X122337069Y-112983197D01*
X122337069Y-113060607D01*
X122337069Y-112557445D02*
X122375774Y-112596150D01*
X122337069Y-112634854D01*
X122298364Y-112596150D01*
X122337069Y-112557445D01*
X122337069Y-112634854D01*
X123769145Y-112286512D02*
X123691736Y-112247807D01*
X123575621Y-112247807D01*
X123459507Y-112286512D01*
X123382098Y-112363921D01*
X123343393Y-112441331D01*
X123304688Y-112596150D01*
X123304688Y-112712264D01*
X123343393Y-112867083D01*
X123382098Y-112944492D01*
X123459507Y-113021902D01*
X123575621Y-113060607D01*
X123653031Y-113060607D01*
X123769145Y-113021902D01*
X123807850Y-112983197D01*
X123807850Y-112712264D01*
X123653031Y-112712264D01*
X124156193Y-113060607D02*
X124156193Y-112247807D01*
X124427126Y-112247807D02*
X124891583Y-112247807D01*
X124659355Y-113060607D02*
X124659355Y-112247807D01*
X125162517Y-113060607D02*
X125162517Y-112247807D01*
X125162517Y-112634854D02*
X125626974Y-112634854D01*
X125626974Y-113060607D02*
X125626974Y-112247807D01*
X126014021Y-112247807D02*
X126014021Y-112905788D01*
X126052726Y-112983197D01*
X126091431Y-113021902D01*
X126168840Y-113060607D01*
X126323660Y-113060607D01*
X126401069Y-113021902D01*
X126439774Y-112983197D01*
X126478479Y-112905788D01*
X126478479Y-112247807D01*
X127136460Y-112634854D02*
X127252574Y-112673559D01*
X127291279Y-112712264D01*
X127329983Y-112789673D01*
X127329983Y-112905788D01*
X127291279Y-112983197D01*
X127252574Y-113021902D01*
X127175164Y-113060607D01*
X126865526Y-113060607D01*
X126865526Y-112247807D01*
X127136460Y-112247807D01*
X127213869Y-112286512D01*
X127252574Y-112325216D01*
X127291279Y-112402626D01*
X127291279Y-112480035D01*
X127252574Y-112557445D01*
X127213869Y-112596150D01*
X127136460Y-112634854D01*
X126865526Y-112634854D01*
X127678326Y-112983197D02*
X127717031Y-113021902D01*
X127678326Y-113060607D01*
X127639621Y-113021902D01*
X127678326Y-112983197D01*
X127678326Y-113060607D01*
X128529831Y-112983197D02*
X128491126Y-113021902D01*
X128375012Y-113060607D01*
X128297602Y-113060607D01*
X128181488Y-113021902D01*
X128104079Y-112944492D01*
X128065374Y-112867083D01*
X128026669Y-112712264D01*
X128026669Y-112596150D01*
X128065374Y-112441331D01*
X128104079Y-112363921D01*
X128181488Y-112286512D01*
X128297602Y-112247807D01*
X128375012Y-112247807D01*
X128491126Y-112286512D01*
X128529831Y-112325216D01*
X129032993Y-112247807D02*
X129187812Y-112247807D01*
X129265221Y-112286512D01*
X129342631Y-112363921D01*
X129381336Y-112518740D01*
X129381336Y-112789673D01*
X129342631Y-112944492D01*
X129265221Y-113021902D01*
X129187812Y-113060607D01*
X129032993Y-113060607D01*
X128955583Y-113021902D01*
X128878174Y-112944492D01*
X128839469Y-112789673D01*
X128839469Y-112518740D01*
X128878174Y-112363921D01*
X128955583Y-112286512D01*
X129032993Y-112247807D01*
X129729679Y-113060607D02*
X129729679Y-112247807D01*
X130000612Y-112828378D01*
X130271545Y-112247807D01*
X130271545Y-113060607D01*
X131239164Y-112209102D02*
X130542479Y-113254131D01*
X131510098Y-112634854D02*
X131781031Y-112634854D01*
X131897145Y-113060607D02*
X131510098Y-113060607D01*
X131510098Y-112247807D01*
X131897145Y-112247807D01*
X132709945Y-113060607D02*
X132439012Y-112673559D01*
X132245488Y-113060607D02*
X132245488Y-112247807D01*
X132555126Y-112247807D01*
X132632536Y-112286512D01*
X132671240Y-112325216D01*
X132709945Y-112402626D01*
X132709945Y-112518740D01*
X132671240Y-112596150D01*
X132632536Y-112634854D01*
X132555126Y-112673559D01*
X132245488Y-112673559D01*
X133058288Y-113060607D02*
X133058288Y-112247807D01*
X133909793Y-112983197D02*
X133871088Y-113021902D01*
X133754974Y-113060607D01*
X133677564Y-113060607D01*
X133561450Y-113021902D01*
X133484040Y-112944492D01*
X133445336Y-112867083D01*
X133406631Y-112712264D01*
X133406631Y-112596150D01*
X133445336Y-112441331D01*
X133484040Y-112363921D01*
X133561450Y-112286512D01*
X133677564Y-112247807D01*
X133754974Y-112247807D01*
X133871088Y-112286512D01*
X133909793Y-112325216D01*
X134722593Y-113060607D02*
X134451660Y-112673559D01*
X134258136Y-113060607D02*
X134258136Y-112247807D01*
X134567774Y-112247807D01*
X134645183Y-112286512D01*
X134683888Y-112325216D01*
X134722593Y-112402626D01*
X134722593Y-112518740D01*
X134683888Y-112596150D01*
X134645183Y-112634854D01*
X134567774Y-112673559D01*
X134258136Y-112673559D01*
X135457983Y-113060607D02*
X135070936Y-113060607D01*
X135070936Y-112247807D01*
X135690212Y-112828378D02*
X136077260Y-112828378D01*
X135612802Y-113060607D02*
X135883736Y-112247807D01*
X136154669Y-113060607D01*
X136425602Y-112247807D02*
X136425602Y-112905788D01*
X136464307Y-112983197D01*
X136503012Y-113021902D01*
X136580421Y-113060607D01*
X136735240Y-113060607D01*
X136812650Y-113021902D01*
X136851355Y-112983197D01*
X136890060Y-112905788D01*
X136890060Y-112247807D01*
D10*
X273863571Y-13137142D02*
X275006428Y-13137142D01*
D11*
X40836739Y-112568141D02*
X40176910Y-112187188D01*
X39621660Y-112196529D02*
X39104688Y-111568141D01*
X39907374Y-111701657D01*
X242204688Y-112591858D02*
X242864517Y-112210906D01*
X243134053Y-111725375D02*
X243936739Y-111591858D01*
X243419767Y-112220247D01*
D10*
X217077857Y-114708571D02*
X216220714Y-114708571D01*
X216649285Y-114708571D02*
X216649285Y-113208571D01*
X216506428Y-113422857D01*
X216363571Y-113565714D01*
X216220714Y-113637142D01*
X217720714Y-113208571D02*
X217720714Y-114422857D01*
X217792142Y-114565714D01*
X217863571Y-114637142D01*
X218006428Y-114708571D01*
X218292142Y-114708571D01*
X218435000Y-114637142D01*
X218506428Y-114565714D01*
X218577857Y-114422857D01*
X218577857Y-113208571D01*
X250977857Y-114708571D02*
X250120714Y-114708571D01*
X250549285Y-114708571D02*
X250549285Y-113208571D01*
X250406428Y-113422857D01*
X250263571Y-113565714D01*
X250120714Y-113637142D01*
X251620714Y-113208571D02*
X251620714Y-114422857D01*
X251692142Y-114565714D01*
X251763571Y-114637142D01*
X251906428Y-114708571D01*
X252192142Y-114708571D01*
X252335000Y-114637142D01*
X252406428Y-114565714D01*
X252477857Y-114422857D01*
X252477857Y-113208571D01*
D14*
%TO.C,D59*%
X197895714Y-10249046D02*
X197895714Y-9249046D01*
X198133809Y-9249046D01*
X198276666Y-9296666D01*
X198371904Y-9391904D01*
X198419523Y-9487142D01*
X198467142Y-9677618D01*
X198467142Y-9820475D01*
X198419523Y-10010951D01*
X198371904Y-10106189D01*
X198276666Y-10201427D01*
X198133809Y-10249046D01*
X197895714Y-10249046D01*
X199371904Y-9249046D02*
X198895714Y-9249046D01*
X198848095Y-9725237D01*
X198895714Y-9677618D01*
X198990952Y-9629999D01*
X199229047Y-9629999D01*
X199324285Y-9677618D01*
X199371904Y-9725237D01*
X199419523Y-9820475D01*
X199419523Y-10058570D01*
X199371904Y-10153808D01*
X199324285Y-10201427D01*
X199229047Y-10249046D01*
X198990952Y-10249046D01*
X198895714Y-10201427D01*
X198848095Y-10153808D01*
X199895714Y-10249046D02*
X200086190Y-10249046D01*
X200181428Y-10201427D01*
X200229047Y-10153808D01*
X200324285Y-10010951D01*
X200371904Y-9820475D01*
X200371904Y-9439523D01*
X200324285Y-9344285D01*
X200276666Y-9296666D01*
X200181428Y-9249046D01*
X199990952Y-9249046D01*
X199895714Y-9296666D01*
X199848095Y-9344285D01*
X199800476Y-9439523D01*
X199800476Y-9677618D01*
X199848095Y-9772856D01*
X199895714Y-9820475D01*
X199990952Y-9868094D01*
X200181428Y-9868094D01*
X200276666Y-9820475D01*
X200324285Y-9772856D01*
X200371904Y-9677618D01*
%TO.C,D33*%
X120825987Y-15915712D02*
X120825987Y-14915712D01*
X121064082Y-14915712D01*
X121206939Y-14963332D01*
X121302177Y-15058570D01*
X121349796Y-15153808D01*
X121397415Y-15344284D01*
X121397415Y-15487141D01*
X121349796Y-15677617D01*
X121302177Y-15772855D01*
X121206939Y-15868093D01*
X121064082Y-15915712D01*
X120825987Y-15915712D01*
X121730749Y-14915712D02*
X122349796Y-14915712D01*
X122016463Y-15296665D01*
X122159320Y-15296665D01*
X122254558Y-15344284D01*
X122302177Y-15391903D01*
X122349796Y-15487141D01*
X122349796Y-15725236D01*
X122302177Y-15820474D01*
X122254558Y-15868093D01*
X122159320Y-15915712D01*
X121873606Y-15915712D01*
X121778368Y-15868093D01*
X121730749Y-15820474D01*
X122683130Y-14915712D02*
X123302177Y-14915712D01*
X122968844Y-15296665D01*
X123111701Y-15296665D01*
X123206939Y-15344284D01*
X123254558Y-15391903D01*
X123302177Y-15487141D01*
X123302177Y-15725236D01*
X123254558Y-15820474D01*
X123206939Y-15868093D01*
X123111701Y-15915712D01*
X122825987Y-15915712D01*
X122730749Y-15868093D01*
X122683130Y-15820474D01*
%TO.C,R7*%
X264633333Y-17132380D02*
X264300000Y-16656190D01*
X264061904Y-17132380D02*
X264061904Y-16132380D01*
X264442857Y-16132380D01*
X264538095Y-16180000D01*
X264585714Y-16227619D01*
X264633333Y-16322857D01*
X264633333Y-16465714D01*
X264585714Y-16560952D01*
X264538095Y-16608571D01*
X264442857Y-16656190D01*
X264061904Y-16656190D01*
X264966666Y-16132380D02*
X265633333Y-16132380D01*
X265204761Y-17132380D01*
%TO.C,R11*%
X279452857Y-4969285D02*
X279202857Y-4612142D01*
X279024285Y-4969285D02*
X279024285Y-4219285D01*
X279310000Y-4219285D01*
X279381428Y-4255000D01*
X279417142Y-4290714D01*
X279452857Y-4362142D01*
X279452857Y-4469285D01*
X279417142Y-4540714D01*
X279381428Y-4576428D01*
X279310000Y-4612142D01*
X279024285Y-4612142D01*
X280167142Y-4969285D02*
X279738571Y-4969285D01*
X279952857Y-4969285D02*
X279952857Y-4219285D01*
X279881428Y-4326428D01*
X279810000Y-4397857D01*
X279738571Y-4433571D01*
X280881428Y-4969285D02*
X280452857Y-4969285D01*
X280667142Y-4969285D02*
X280667142Y-4219285D01*
X280595714Y-4326428D01*
X280524285Y-4397857D01*
X280452857Y-4433571D01*
%TO.C,R1*%
X264633333Y-15632380D02*
X264300000Y-15156190D01*
X264061904Y-15632380D02*
X264061904Y-14632380D01*
X264442857Y-14632380D01*
X264538095Y-14680000D01*
X264585714Y-14727619D01*
X264633333Y-14822857D01*
X264633333Y-14965714D01*
X264585714Y-15060952D01*
X264538095Y-15108571D01*
X264442857Y-15156190D01*
X264061904Y-15156190D01*
X265585714Y-15632380D02*
X265014285Y-15632380D01*
X265300000Y-15632380D02*
X265300000Y-14632380D01*
X265204761Y-14775238D01*
X265109523Y-14870476D01*
X265014285Y-14918095D01*
%TO.C,R8*%
X268845833Y-20032380D02*
X268512500Y-19556190D01*
X268274404Y-20032380D02*
X268274404Y-19032380D01*
X268655357Y-19032380D01*
X268750595Y-19080000D01*
X268798214Y-19127619D01*
X268845833Y-19222857D01*
X268845833Y-19365714D01*
X268798214Y-19460952D01*
X268750595Y-19508571D01*
X268655357Y-19556190D01*
X268274404Y-19556190D01*
X269417261Y-19460952D02*
X269322023Y-19413333D01*
X269274404Y-19365714D01*
X269226785Y-19270476D01*
X269226785Y-19222857D01*
X269274404Y-19127619D01*
X269322023Y-19080000D01*
X269417261Y-19032380D01*
X269607738Y-19032380D01*
X269702976Y-19080000D01*
X269750595Y-19127619D01*
X269798214Y-19222857D01*
X269798214Y-19270476D01*
X269750595Y-19365714D01*
X269702976Y-19413333D01*
X269607738Y-19460952D01*
X269417261Y-19460952D01*
X269322023Y-19508571D01*
X269274404Y-19556190D01*
X269226785Y-19651428D01*
X269226785Y-19841904D01*
X269274404Y-19937142D01*
X269322023Y-19984761D01*
X269417261Y-20032380D01*
X269607738Y-20032380D01*
X269702976Y-19984761D01*
X269750595Y-19937142D01*
X269798214Y-19841904D01*
X269798214Y-19651428D01*
X269750595Y-19556190D01*
X269702976Y-19508571D01*
X269607738Y-19460952D01*
%TO.C,U4*%
X273387380Y-7991904D02*
X274196904Y-7991904D01*
X274292142Y-7944285D01*
X274339761Y-7896666D01*
X274387380Y-7801428D01*
X274387380Y-7610952D01*
X274339761Y-7515714D01*
X274292142Y-7468095D01*
X274196904Y-7420476D01*
X273387380Y-7420476D01*
X273720714Y-6515714D02*
X274387380Y-6515714D01*
X273339761Y-6753809D02*
X274054047Y-6991904D01*
X274054047Y-6372857D01*
%TO.C,D8*%
X57509404Y-21582380D02*
X57509404Y-20582380D01*
X57747500Y-20582380D01*
X57890357Y-20630000D01*
X57985595Y-20725238D01*
X58033214Y-20820476D01*
X58080833Y-21010952D01*
X58080833Y-21153809D01*
X58033214Y-21344285D01*
X57985595Y-21439523D01*
X57890357Y-21534761D01*
X57747500Y-21582380D01*
X57509404Y-21582380D01*
X58652261Y-21010952D02*
X58557023Y-20963333D01*
X58509404Y-20915714D01*
X58461785Y-20820476D01*
X58461785Y-20772857D01*
X58509404Y-20677619D01*
X58557023Y-20630000D01*
X58652261Y-20582380D01*
X58842738Y-20582380D01*
X58937976Y-20630000D01*
X58985595Y-20677619D01*
X59033214Y-20772857D01*
X59033214Y-20820476D01*
X58985595Y-20915714D01*
X58937976Y-20963333D01*
X58842738Y-21010952D01*
X58652261Y-21010952D01*
X58557023Y-21058571D01*
X58509404Y-21106190D01*
X58461785Y-21201428D01*
X58461785Y-21391904D01*
X58509404Y-21487142D01*
X58557023Y-21534761D01*
X58652261Y-21582380D01*
X58842738Y-21582380D01*
X58937976Y-21534761D01*
X58985595Y-21487142D01*
X59033214Y-21391904D01*
X59033214Y-21201428D01*
X58985595Y-21106190D01*
X58937976Y-21058571D01*
X58842738Y-21010952D01*
%TO.C,C4*%
X266657142Y-18146666D02*
X266704761Y-18194285D01*
X266752380Y-18337142D01*
X266752380Y-18432380D01*
X266704761Y-18575238D01*
X266609523Y-18670476D01*
X266514285Y-18718095D01*
X266323809Y-18765714D01*
X266180952Y-18765714D01*
X265990476Y-18718095D01*
X265895238Y-18670476D01*
X265800000Y-18575238D01*
X265752380Y-18432380D01*
X265752380Y-18337142D01*
X265800000Y-18194285D01*
X265847619Y-18146666D01*
X266085714Y-17289523D02*
X266752380Y-17289523D01*
X265704761Y-17527619D02*
X266419047Y-17765714D01*
X266419047Y-17146666D01*
%TO.C,D55*%
X184908214Y-10249046D02*
X184908214Y-9249046D01*
X185146309Y-9249046D01*
X185289166Y-9296666D01*
X185384404Y-9391904D01*
X185432023Y-9487142D01*
X185479642Y-9677618D01*
X185479642Y-9820475D01*
X185432023Y-10010951D01*
X185384404Y-10106189D01*
X185289166Y-10201427D01*
X185146309Y-10249046D01*
X184908214Y-10249046D01*
X186384404Y-9249046D02*
X185908214Y-9249046D01*
X185860595Y-9725237D01*
X185908214Y-9677618D01*
X186003452Y-9629999D01*
X186241547Y-9629999D01*
X186336785Y-9677618D01*
X186384404Y-9725237D01*
X186432023Y-9820475D01*
X186432023Y-10058570D01*
X186384404Y-10153808D01*
X186336785Y-10201427D01*
X186241547Y-10249046D01*
X186003452Y-10249046D01*
X185908214Y-10201427D01*
X185860595Y-10153808D01*
X187336785Y-9249046D02*
X186860595Y-9249046D01*
X186812976Y-9725237D01*
X186860595Y-9677618D01*
X186955833Y-9629999D01*
X187193928Y-9629999D01*
X187289166Y-9677618D01*
X187336785Y-9725237D01*
X187384404Y-9820475D01*
X187384404Y-10058570D01*
X187336785Y-10153808D01*
X187289166Y-10201427D01*
X187193928Y-10249046D01*
X186955833Y-10249046D01*
X186860595Y-10201427D01*
X186812976Y-10153808D01*
%TO.C,D47*%
X160933214Y-21582380D02*
X160933214Y-20582380D01*
X161171309Y-20582380D01*
X161314166Y-20630000D01*
X161409404Y-20725238D01*
X161457023Y-20820476D01*
X161504642Y-21010952D01*
X161504642Y-21153809D01*
X161457023Y-21344285D01*
X161409404Y-21439523D01*
X161314166Y-21534761D01*
X161171309Y-21582380D01*
X160933214Y-21582380D01*
X162361785Y-20915714D02*
X162361785Y-21582380D01*
X162123690Y-20534761D02*
X161885595Y-21249047D01*
X162504642Y-21249047D01*
X162790357Y-20582380D02*
X163457023Y-20582380D01*
X163028452Y-21582380D01*
%TO.C,D61*%
X237358214Y-13082380D02*
X237358214Y-12082380D01*
X237596309Y-12082380D01*
X237739166Y-12130000D01*
X237834404Y-12225238D01*
X237882023Y-12320476D01*
X237929642Y-12510952D01*
X237929642Y-12653809D01*
X237882023Y-12844285D01*
X237834404Y-12939523D01*
X237739166Y-13034761D01*
X237596309Y-13082380D01*
X237358214Y-13082380D01*
X238786785Y-12082380D02*
X238596309Y-12082380D01*
X238501071Y-12130000D01*
X238453452Y-12177619D01*
X238358214Y-12320476D01*
X238310595Y-12510952D01*
X238310595Y-12891904D01*
X238358214Y-12987142D01*
X238405833Y-13034761D01*
X238501071Y-13082380D01*
X238691547Y-13082380D01*
X238786785Y-13034761D01*
X238834404Y-12987142D01*
X238882023Y-12891904D01*
X238882023Y-12653809D01*
X238834404Y-12558571D01*
X238786785Y-12510952D01*
X238691547Y-12463333D01*
X238501071Y-12463333D01*
X238405833Y-12510952D01*
X238358214Y-12558571D01*
X238310595Y-12653809D01*
X239834404Y-13082380D02*
X239262976Y-13082380D01*
X239548690Y-13082380D02*
X239548690Y-12082380D01*
X239453452Y-12225238D01*
X239358214Y-12320476D01*
X239262976Y-12368095D01*
%TO.C,D71*%
X238858214Y-21582380D02*
X238858214Y-20582380D01*
X239096309Y-20582380D01*
X239239166Y-20630000D01*
X239334404Y-20725238D01*
X239382023Y-20820476D01*
X239429642Y-21010952D01*
X239429642Y-21153809D01*
X239382023Y-21344285D01*
X239334404Y-21439523D01*
X239239166Y-21534761D01*
X239096309Y-21582380D01*
X238858214Y-21582380D01*
X239762976Y-20582380D02*
X240429642Y-20582380D01*
X240001071Y-21582380D01*
X241334404Y-21582380D02*
X240762976Y-21582380D01*
X241048690Y-21582380D02*
X241048690Y-20582380D01*
X240953452Y-20725238D01*
X240858214Y-20820476D01*
X240762976Y-20868095D01*
%TO.C,D37*%
X133812901Y-15915712D02*
X133812901Y-14915712D01*
X134050996Y-14915712D01*
X134193853Y-14963332D01*
X134289091Y-15058570D01*
X134336710Y-15153808D01*
X134384329Y-15344284D01*
X134384329Y-15487141D01*
X134336710Y-15677617D01*
X134289091Y-15772855D01*
X134193853Y-15868093D01*
X134050996Y-15915712D01*
X133812901Y-15915712D01*
X134717663Y-14915712D02*
X135336710Y-14915712D01*
X135003377Y-15296665D01*
X135146234Y-15296665D01*
X135241472Y-15344284D01*
X135289091Y-15391903D01*
X135336710Y-15487141D01*
X135336710Y-15725236D01*
X135289091Y-15820474D01*
X135241472Y-15868093D01*
X135146234Y-15915712D01*
X134860520Y-15915712D01*
X134765282Y-15868093D01*
X134717663Y-15820474D01*
X135670044Y-14915712D02*
X136336710Y-14915712D01*
X135908139Y-15915712D01*
%TO.C,D57*%
X186908214Y-21582380D02*
X186908214Y-20582380D01*
X187146309Y-20582380D01*
X187289166Y-20630000D01*
X187384404Y-20725238D01*
X187432023Y-20820476D01*
X187479642Y-21010952D01*
X187479642Y-21153809D01*
X187432023Y-21344285D01*
X187384404Y-21439523D01*
X187289166Y-21534761D01*
X187146309Y-21582380D01*
X186908214Y-21582380D01*
X188384404Y-20582380D02*
X187908214Y-20582380D01*
X187860595Y-21058571D01*
X187908214Y-21010952D01*
X188003452Y-20963333D01*
X188241547Y-20963333D01*
X188336785Y-21010952D01*
X188384404Y-21058571D01*
X188432023Y-21153809D01*
X188432023Y-21391904D01*
X188384404Y-21487142D01*
X188336785Y-21534761D01*
X188241547Y-21582380D01*
X188003452Y-21582380D01*
X187908214Y-21534761D01*
X187860595Y-21487142D01*
X188765357Y-20582380D02*
X189432023Y-20582380D01*
X189003452Y-21582380D01*
%TO.C,D4*%
X41521904Y-4582380D02*
X41521904Y-3582380D01*
X41760000Y-3582380D01*
X41902857Y-3630000D01*
X41998095Y-3725238D01*
X42045714Y-3820476D01*
X42093333Y-4010952D01*
X42093333Y-4153809D01*
X42045714Y-4344285D01*
X41998095Y-4439523D01*
X41902857Y-4534761D01*
X41760000Y-4582380D01*
X41521904Y-4582380D01*
X42950476Y-3915714D02*
X42950476Y-4582380D01*
X42712380Y-3534761D02*
X42474285Y-4249047D01*
X43093333Y-4249047D01*
D15*
%TO.C,Y1*%
X247788657Y-15472785D02*
X247788657Y-16017071D01*
X247407657Y-14874071D02*
X247788657Y-15472785D01*
X248169657Y-14874071D01*
X249149371Y-16017071D02*
X248496228Y-16017071D01*
X248822800Y-16017071D02*
X248822800Y-14874071D01*
X248713942Y-15037357D01*
X248605085Y-15146214D01*
X248496228Y-15200642D01*
D14*
%TO.C,D23*%
X93995714Y-10249046D02*
X93995714Y-9249046D01*
X94233809Y-9249046D01*
X94376666Y-9296666D01*
X94471904Y-9391904D01*
X94519523Y-9487142D01*
X94567142Y-9677618D01*
X94567142Y-9820475D01*
X94519523Y-10010951D01*
X94471904Y-10106189D01*
X94376666Y-10201427D01*
X94233809Y-10249046D01*
X93995714Y-10249046D01*
X94948095Y-9344285D02*
X94995714Y-9296666D01*
X95090952Y-9249046D01*
X95329047Y-9249046D01*
X95424285Y-9296666D01*
X95471904Y-9344285D01*
X95519523Y-9439523D01*
X95519523Y-9534761D01*
X95471904Y-9677618D01*
X94900476Y-10249046D01*
X95519523Y-10249046D01*
X95852857Y-9249046D02*
X96471904Y-9249046D01*
X96138571Y-9629999D01*
X96281428Y-9629999D01*
X96376666Y-9677618D01*
X96424285Y-9725237D01*
X96471904Y-9820475D01*
X96471904Y-10058570D01*
X96424285Y-10153808D01*
X96376666Y-10201427D01*
X96281428Y-10249046D01*
X95995714Y-10249046D01*
X95900476Y-10201427D01*
X95852857Y-10153808D01*
%TO.C,C3*%
X259368333Y-17287142D02*
X259320714Y-17334761D01*
X259177857Y-17382380D01*
X259082619Y-17382380D01*
X258939761Y-17334761D01*
X258844523Y-17239523D01*
X258796904Y-17144285D01*
X258749285Y-16953809D01*
X258749285Y-16810952D01*
X258796904Y-16620476D01*
X258844523Y-16525238D01*
X258939761Y-16430000D01*
X259082619Y-16382380D01*
X259177857Y-16382380D01*
X259320714Y-16430000D01*
X259368333Y-16477619D01*
X259701666Y-16382380D02*
X260320714Y-16382380D01*
X259987380Y-16763333D01*
X260130238Y-16763333D01*
X260225476Y-16810952D01*
X260273095Y-16858571D01*
X260320714Y-16953809D01*
X260320714Y-17191904D01*
X260273095Y-17287142D01*
X260225476Y-17334761D01*
X260130238Y-17382380D01*
X259844523Y-17382380D01*
X259749285Y-17334761D01*
X259701666Y-17287142D01*
%TO.C,D1*%
X265552380Y-3918095D02*
X264552380Y-3918095D01*
X264552380Y-3680000D01*
X264600000Y-3537142D01*
X264695238Y-3441904D01*
X264790476Y-3394285D01*
X264980952Y-3346666D01*
X265123809Y-3346666D01*
X265314285Y-3394285D01*
X265409523Y-3441904D01*
X265504761Y-3537142D01*
X265552380Y-3680000D01*
X265552380Y-3918095D01*
X265552380Y-2394285D02*
X265552380Y-2965714D01*
X265552380Y-2680000D02*
X264552380Y-2680000D01*
X264695238Y-2775238D01*
X264790476Y-2870476D01*
X264838095Y-2965714D01*
%TO.C,D68*%
X223870714Y-10249046D02*
X223870714Y-9249046D01*
X224108809Y-9249046D01*
X224251666Y-9296666D01*
X224346904Y-9391904D01*
X224394523Y-9487142D01*
X224442142Y-9677618D01*
X224442142Y-9820475D01*
X224394523Y-10010951D01*
X224346904Y-10106189D01*
X224251666Y-10201427D01*
X224108809Y-10249046D01*
X223870714Y-10249046D01*
X225299285Y-9249046D02*
X225108809Y-9249046D01*
X225013571Y-9296666D01*
X224965952Y-9344285D01*
X224870714Y-9487142D01*
X224823095Y-9677618D01*
X224823095Y-10058570D01*
X224870714Y-10153808D01*
X224918333Y-10201427D01*
X225013571Y-10249046D01*
X225204047Y-10249046D01*
X225299285Y-10201427D01*
X225346904Y-10153808D01*
X225394523Y-10058570D01*
X225394523Y-9820475D01*
X225346904Y-9725237D01*
X225299285Y-9677618D01*
X225204047Y-9629999D01*
X225013571Y-9629999D01*
X224918333Y-9677618D01*
X224870714Y-9725237D01*
X224823095Y-9820475D01*
X225965952Y-9677618D02*
X225870714Y-9629999D01*
X225823095Y-9582380D01*
X225775476Y-9487142D01*
X225775476Y-9439523D01*
X225823095Y-9344285D01*
X225870714Y-9296666D01*
X225965952Y-9249046D01*
X226156428Y-9249046D01*
X226251666Y-9296666D01*
X226299285Y-9344285D01*
X226346904Y-9439523D01*
X226346904Y-9487142D01*
X226299285Y-9582380D01*
X226251666Y-9629999D01*
X226156428Y-9677618D01*
X225965952Y-9677618D01*
X225870714Y-9725237D01*
X225823095Y-9772856D01*
X225775476Y-9868094D01*
X225775476Y-10058570D01*
X225823095Y-10153808D01*
X225870714Y-10201427D01*
X225965952Y-10249046D01*
X226156428Y-10249046D01*
X226251666Y-10201427D01*
X226299285Y-10153808D01*
X226346904Y-10058570D01*
X226346904Y-9868094D01*
X226299285Y-9772856D01*
X226251666Y-9725237D01*
X226156428Y-9677618D01*
%TO.C,D42*%
X147945714Y-21582380D02*
X147945714Y-20582380D01*
X148183809Y-20582380D01*
X148326666Y-20630000D01*
X148421904Y-20725238D01*
X148469523Y-20820476D01*
X148517142Y-21010952D01*
X148517142Y-21153809D01*
X148469523Y-21344285D01*
X148421904Y-21439523D01*
X148326666Y-21534761D01*
X148183809Y-21582380D01*
X147945714Y-21582380D01*
X149374285Y-20915714D02*
X149374285Y-21582380D01*
X149136190Y-20534761D02*
X148898095Y-21249047D01*
X149517142Y-21249047D01*
X149850476Y-20677619D02*
X149898095Y-20630000D01*
X149993333Y-20582380D01*
X150231428Y-20582380D01*
X150326666Y-20630000D01*
X150374285Y-20677619D01*
X150421904Y-20772857D01*
X150421904Y-20868095D01*
X150374285Y-21010952D01*
X149802857Y-21582380D01*
X150421904Y-21582380D01*
%TO.C,D31*%
X118970714Y-4582380D02*
X118970714Y-3582380D01*
X119208809Y-3582380D01*
X119351666Y-3630000D01*
X119446904Y-3725238D01*
X119494523Y-3820476D01*
X119542142Y-4010952D01*
X119542142Y-4153809D01*
X119494523Y-4344285D01*
X119446904Y-4439523D01*
X119351666Y-4534761D01*
X119208809Y-4582380D01*
X118970714Y-4582380D01*
X119875476Y-3582380D02*
X120494523Y-3582380D01*
X120161190Y-3963333D01*
X120304047Y-3963333D01*
X120399285Y-4010952D01*
X120446904Y-4058571D01*
X120494523Y-4153809D01*
X120494523Y-4391904D01*
X120446904Y-4487142D01*
X120399285Y-4534761D01*
X120304047Y-4582380D01*
X120018333Y-4582380D01*
X119923095Y-4534761D01*
X119875476Y-4487142D01*
X121446904Y-4582380D02*
X120875476Y-4582380D01*
X121161190Y-4582380D02*
X121161190Y-3582380D01*
X121065952Y-3725238D01*
X120970714Y-3820476D01*
X120875476Y-3868095D01*
%TO.C,D26*%
X105983214Y-4582380D02*
X105983214Y-3582380D01*
X106221309Y-3582380D01*
X106364166Y-3630000D01*
X106459404Y-3725238D01*
X106507023Y-3820476D01*
X106554642Y-4010952D01*
X106554642Y-4153809D01*
X106507023Y-4344285D01*
X106459404Y-4439523D01*
X106364166Y-4534761D01*
X106221309Y-4582380D01*
X105983214Y-4582380D01*
X106935595Y-3677619D02*
X106983214Y-3630000D01*
X107078452Y-3582380D01*
X107316547Y-3582380D01*
X107411785Y-3630000D01*
X107459404Y-3677619D01*
X107507023Y-3772857D01*
X107507023Y-3868095D01*
X107459404Y-4010952D01*
X106887976Y-4582380D01*
X107507023Y-4582380D01*
X108364166Y-3582380D02*
X108173690Y-3582380D01*
X108078452Y-3630000D01*
X108030833Y-3677619D01*
X107935595Y-3820476D01*
X107887976Y-4010952D01*
X107887976Y-4391904D01*
X107935595Y-4487142D01*
X107983214Y-4534761D01*
X108078452Y-4582380D01*
X108268928Y-4582380D01*
X108364166Y-4534761D01*
X108411785Y-4487142D01*
X108459404Y-4391904D01*
X108459404Y-4153809D01*
X108411785Y-4058571D01*
X108364166Y-4010952D01*
X108268928Y-3963333D01*
X108078452Y-3963333D01*
X107983214Y-4010952D01*
X107935595Y-4058571D01*
X107887976Y-4153809D01*
%TO.C,D40*%
X145945714Y-10249046D02*
X145945714Y-9249046D01*
X146183809Y-9249046D01*
X146326666Y-9296666D01*
X146421904Y-9391904D01*
X146469523Y-9487142D01*
X146517142Y-9677618D01*
X146517142Y-9820475D01*
X146469523Y-10010951D01*
X146421904Y-10106189D01*
X146326666Y-10201427D01*
X146183809Y-10249046D01*
X145945714Y-10249046D01*
X147374285Y-9582380D02*
X147374285Y-10249046D01*
X147136190Y-9201427D02*
X146898095Y-9915713D01*
X147517142Y-9915713D01*
X148088571Y-9249046D02*
X148183809Y-9249046D01*
X148279047Y-9296666D01*
X148326666Y-9344285D01*
X148374285Y-9439523D01*
X148421904Y-9629999D01*
X148421904Y-9868094D01*
X148374285Y-10058570D01*
X148326666Y-10153808D01*
X148279047Y-10201427D01*
X148183809Y-10249046D01*
X148088571Y-10249046D01*
X147993333Y-10201427D01*
X147945714Y-10153808D01*
X147898095Y-10058570D01*
X147850476Y-9868094D01*
X147850476Y-9629999D01*
X147898095Y-9439523D01*
X147945714Y-9344285D01*
X147993333Y-9296666D01*
X148088571Y-9249046D01*
%TO.C,U2*%
X278473095Y-19382380D02*
X278473095Y-20191904D01*
X278520714Y-20287142D01*
X278568333Y-20334761D01*
X278663571Y-20382380D01*
X278854047Y-20382380D01*
X278949285Y-20334761D01*
X278996904Y-20287142D01*
X279044523Y-20191904D01*
X279044523Y-19382380D01*
X279473095Y-19477619D02*
X279520714Y-19430000D01*
X279615952Y-19382380D01*
X279854047Y-19382380D01*
X279949285Y-19430000D01*
X279996904Y-19477619D01*
X280044523Y-19572857D01*
X280044523Y-19668095D01*
X279996904Y-19810952D01*
X279425476Y-20382380D01*
X280044523Y-20382380D01*
%TO.C,U1*%
X270910595Y-17432380D02*
X270910595Y-18241904D01*
X270958214Y-18337142D01*
X271005833Y-18384761D01*
X271101071Y-18432380D01*
X271291547Y-18432380D01*
X271386785Y-18384761D01*
X271434404Y-18337142D01*
X271482023Y-18241904D01*
X271482023Y-17432380D01*
X272482023Y-18432380D02*
X271910595Y-18432380D01*
X272196309Y-18432380D02*
X272196309Y-17432380D01*
X272101071Y-17575238D01*
X272005833Y-17670476D01*
X271910595Y-17718095D01*
%TO.C,D24*%
X94852159Y-15915712D02*
X94852159Y-14915712D01*
X95090254Y-14915712D01*
X95233111Y-14963332D01*
X95328349Y-15058570D01*
X95375968Y-15153808D01*
X95423587Y-15344284D01*
X95423587Y-15487141D01*
X95375968Y-15677617D01*
X95328349Y-15772855D01*
X95233111Y-15868093D01*
X95090254Y-15915712D01*
X94852159Y-15915712D01*
X95804540Y-15010951D02*
X95852159Y-14963332D01*
X95947397Y-14915712D01*
X96185492Y-14915712D01*
X96280730Y-14963332D01*
X96328349Y-15010951D01*
X96375968Y-15106189D01*
X96375968Y-15201427D01*
X96328349Y-15344284D01*
X95756921Y-15915712D01*
X96375968Y-15915712D01*
X97233111Y-15249046D02*
X97233111Y-15915712D01*
X96995016Y-14868093D02*
X96756921Y-15582379D01*
X97375968Y-15582379D01*
%TO.C,D35*%
X131958214Y-4582380D02*
X131958214Y-3582380D01*
X132196309Y-3582380D01*
X132339166Y-3630000D01*
X132434404Y-3725238D01*
X132482023Y-3820476D01*
X132529642Y-4010952D01*
X132529642Y-4153809D01*
X132482023Y-4344285D01*
X132434404Y-4439523D01*
X132339166Y-4534761D01*
X132196309Y-4582380D01*
X131958214Y-4582380D01*
X132862976Y-3582380D02*
X133482023Y-3582380D01*
X133148690Y-3963333D01*
X133291547Y-3963333D01*
X133386785Y-4010952D01*
X133434404Y-4058571D01*
X133482023Y-4153809D01*
X133482023Y-4391904D01*
X133434404Y-4487142D01*
X133386785Y-4534761D01*
X133291547Y-4582380D01*
X133005833Y-4582380D01*
X132910595Y-4534761D01*
X132862976Y-4487142D01*
X134386785Y-3582380D02*
X133910595Y-3582380D01*
X133862976Y-4058571D01*
X133910595Y-4010952D01*
X134005833Y-3963333D01*
X134243928Y-3963333D01*
X134339166Y-4010952D01*
X134386785Y-4058571D01*
X134434404Y-4153809D01*
X134434404Y-4391904D01*
X134386785Y-4487142D01*
X134339166Y-4534761D01*
X134243928Y-4582380D01*
X134005833Y-4582380D01*
X133910595Y-4534761D01*
X133862976Y-4487142D01*
%TO.C,U3*%
X253738095Y-6932380D02*
X253738095Y-7741904D01*
X253785714Y-7837142D01*
X253833333Y-7884761D01*
X253928571Y-7932380D01*
X254119047Y-7932380D01*
X254214285Y-7884761D01*
X254261904Y-7837142D01*
X254309523Y-7741904D01*
X254309523Y-6932380D01*
X254690476Y-6932380D02*
X255309523Y-6932380D01*
X254976190Y-7313333D01*
X255119047Y-7313333D01*
X255214285Y-7360952D01*
X255261904Y-7408571D01*
X255309523Y-7503809D01*
X255309523Y-7741904D01*
X255261904Y-7837142D01*
X255214285Y-7884761D01*
X255119047Y-7932380D01*
X254833333Y-7932380D01*
X254738095Y-7884761D01*
X254690476Y-7837142D01*
%TO.C,D3*%
X266034404Y-12332380D02*
X266034404Y-11332380D01*
X266272500Y-11332380D01*
X266415357Y-11380000D01*
X266510595Y-11475238D01*
X266558214Y-11570476D01*
X266605833Y-11760952D01*
X266605833Y-11903809D01*
X266558214Y-12094285D01*
X266510595Y-12189523D01*
X266415357Y-12284761D01*
X266272500Y-12332380D01*
X266034404Y-12332380D01*
X266939166Y-11332380D02*
X267558214Y-11332380D01*
X267224880Y-11713333D01*
X267367738Y-11713333D01*
X267462976Y-11760952D01*
X267510595Y-11808571D01*
X267558214Y-11903809D01*
X267558214Y-12141904D01*
X267510595Y-12237142D01*
X267462976Y-12284761D01*
X267367738Y-12332380D01*
X267082023Y-12332380D01*
X266986785Y-12284761D01*
X266939166Y-12237142D01*
%TO.C,D45*%
X158933214Y-10249046D02*
X158933214Y-9249046D01*
X159171309Y-9249046D01*
X159314166Y-9296666D01*
X159409404Y-9391904D01*
X159457023Y-9487142D01*
X159504642Y-9677618D01*
X159504642Y-9820475D01*
X159457023Y-10010951D01*
X159409404Y-10106189D01*
X159314166Y-10201427D01*
X159171309Y-10249046D01*
X158933214Y-10249046D01*
X160361785Y-9582380D02*
X160361785Y-10249046D01*
X160123690Y-9201427D02*
X159885595Y-9915713D01*
X160504642Y-9915713D01*
X161361785Y-9249046D02*
X160885595Y-9249046D01*
X160837976Y-9725237D01*
X160885595Y-9677618D01*
X160980833Y-9629999D01*
X161218928Y-9629999D01*
X161314166Y-9677618D01*
X161361785Y-9725237D01*
X161409404Y-9820475D01*
X161409404Y-10058570D01*
X161361785Y-10153808D01*
X161314166Y-10201427D01*
X161218928Y-10249046D01*
X160980833Y-10249046D01*
X160885595Y-10201427D01*
X160837976Y-10153808D01*
%TO.C,D30*%
X29917589Y-15915712D02*
X29917589Y-14915712D01*
X30155684Y-14915712D01*
X30298541Y-14963332D01*
X30393779Y-15058570D01*
X30441398Y-15153808D01*
X30489017Y-15344284D01*
X30489017Y-15487141D01*
X30441398Y-15677617D01*
X30393779Y-15772855D01*
X30298541Y-15868093D01*
X30155684Y-15915712D01*
X29917589Y-15915712D01*
X30822351Y-14915712D02*
X31441398Y-14915712D01*
X31108065Y-15296665D01*
X31250922Y-15296665D01*
X31346160Y-15344284D01*
X31393779Y-15391903D01*
X31441398Y-15487141D01*
X31441398Y-15725236D01*
X31393779Y-15820474D01*
X31346160Y-15868093D01*
X31250922Y-15915712D01*
X30965208Y-15915712D01*
X30869970Y-15868093D01*
X30822351Y-15820474D01*
X32060446Y-14915712D02*
X32155684Y-14915712D01*
X32250922Y-14963332D01*
X32298541Y-15010951D01*
X32346160Y-15106189D01*
X32393779Y-15296665D01*
X32393779Y-15534760D01*
X32346160Y-15725236D01*
X32298541Y-15820474D01*
X32250922Y-15868093D01*
X32155684Y-15915712D01*
X32060446Y-15915712D01*
X31965208Y-15868093D01*
X31917589Y-15820474D01*
X31869970Y-15725236D01*
X31822351Y-15534760D01*
X31822351Y-15296665D01*
X31869970Y-15106189D01*
X31917589Y-15010951D01*
X31965208Y-14963332D01*
X32060446Y-14915712D01*
%TO.C,R9*%
X264733333Y-12582380D02*
X264400000Y-12106190D01*
X264161904Y-12582380D02*
X264161904Y-11582380D01*
X264542857Y-11582380D01*
X264638095Y-11630000D01*
X264685714Y-11677619D01*
X264733333Y-11772857D01*
X264733333Y-11915714D01*
X264685714Y-12010952D01*
X264638095Y-12058571D01*
X264542857Y-12106190D01*
X264161904Y-12106190D01*
X265209523Y-12582380D02*
X265400000Y-12582380D01*
X265495238Y-12534761D01*
X265542857Y-12487142D01*
X265638095Y-12344285D01*
X265685714Y-12153809D01*
X265685714Y-11772857D01*
X265638095Y-11677619D01*
X265590476Y-11630000D01*
X265495238Y-11582380D01*
X265304761Y-11582380D01*
X265209523Y-11630000D01*
X265161904Y-11677619D01*
X265114285Y-11772857D01*
X265114285Y-12010952D01*
X265161904Y-12106190D01*
X265209523Y-12153809D01*
X265304761Y-12201428D01*
X265495238Y-12201428D01*
X265590476Y-12153809D01*
X265638095Y-12106190D01*
X265685714Y-12010952D01*
D16*
%TO.C,J2*%
X278441986Y-12511017D02*
X279158044Y-12511017D01*
X279301255Y-12558754D01*
X279396729Y-12654228D01*
X279444466Y-12797439D01*
X279444466Y-12892914D01*
X278537461Y-12081382D02*
X278489724Y-12033645D01*
X278441986Y-11938171D01*
X278441986Y-11699485D01*
X278489724Y-11604011D01*
X278537461Y-11556274D01*
X278632935Y-11508537D01*
X278728409Y-11508537D01*
X278871621Y-11556274D01*
X279444466Y-12129119D01*
X279444466Y-11508537D01*
D14*
%TO.C,D18*%
X80008214Y-4582380D02*
X80008214Y-3582380D01*
X80246309Y-3582380D01*
X80389166Y-3630000D01*
X80484404Y-3725238D01*
X80532023Y-3820476D01*
X80579642Y-4010952D01*
X80579642Y-4153809D01*
X80532023Y-4344285D01*
X80484404Y-4439523D01*
X80389166Y-4534761D01*
X80246309Y-4582380D01*
X80008214Y-4582380D01*
X81532023Y-4582380D02*
X80960595Y-4582380D01*
X81246309Y-4582380D02*
X81246309Y-3582380D01*
X81151071Y-3725238D01*
X81055833Y-3820476D01*
X80960595Y-3868095D01*
X82103452Y-4010952D02*
X82008214Y-3963333D01*
X81960595Y-3915714D01*
X81912976Y-3820476D01*
X81912976Y-3772857D01*
X81960595Y-3677619D01*
X82008214Y-3630000D01*
X82103452Y-3582380D01*
X82293928Y-3582380D01*
X82389166Y-3630000D01*
X82436785Y-3677619D01*
X82484404Y-3772857D01*
X82484404Y-3820476D01*
X82436785Y-3915714D01*
X82389166Y-3963333D01*
X82293928Y-4010952D01*
X82103452Y-4010952D01*
X82008214Y-4058571D01*
X81960595Y-4106190D01*
X81912976Y-4201428D01*
X81912976Y-4391904D01*
X81960595Y-4487142D01*
X82008214Y-4534761D01*
X82103452Y-4582380D01*
X82293928Y-4582380D01*
X82389166Y-4534761D01*
X82436785Y-4487142D01*
X82484404Y-4391904D01*
X82484404Y-4201428D01*
X82436785Y-4106190D01*
X82389166Y-4058571D01*
X82293928Y-4010952D01*
%TO.C,D48*%
X235858214Y-4582380D02*
X235858214Y-3582380D01*
X236096309Y-3582380D01*
X236239166Y-3630000D01*
X236334404Y-3725238D01*
X236382023Y-3820476D01*
X236429642Y-4010952D01*
X236429642Y-4153809D01*
X236382023Y-4344285D01*
X236334404Y-4439523D01*
X236239166Y-4534761D01*
X236096309Y-4582380D01*
X235858214Y-4582380D01*
X237286785Y-3915714D02*
X237286785Y-4582380D01*
X237048690Y-3534761D02*
X236810595Y-4249047D01*
X237429642Y-4249047D01*
X237953452Y-4010952D02*
X237858214Y-3963333D01*
X237810595Y-3915714D01*
X237762976Y-3820476D01*
X237762976Y-3772857D01*
X237810595Y-3677619D01*
X237858214Y-3630000D01*
X237953452Y-3582380D01*
X238143928Y-3582380D01*
X238239166Y-3630000D01*
X238286785Y-3677619D01*
X238334404Y-3772857D01*
X238334404Y-3820476D01*
X238286785Y-3915714D01*
X238239166Y-3963333D01*
X238143928Y-4010952D01*
X237953452Y-4010952D01*
X237858214Y-4058571D01*
X237810595Y-4106190D01*
X237762976Y-4201428D01*
X237762976Y-4391904D01*
X237810595Y-4487142D01*
X237858214Y-4534761D01*
X237953452Y-4582380D01*
X238143928Y-4582380D01*
X238239166Y-4534761D01*
X238286785Y-4487142D01*
X238334404Y-4391904D01*
X238334404Y-4201428D01*
X238286785Y-4106190D01*
X238239166Y-4058571D01*
X238143928Y-4010952D01*
%TO.C,D14*%
X68020714Y-10249046D02*
X68020714Y-9249046D01*
X68258809Y-9249046D01*
X68401666Y-9296666D01*
X68496904Y-9391904D01*
X68544523Y-9487142D01*
X68592142Y-9677618D01*
X68592142Y-9820475D01*
X68544523Y-10010951D01*
X68496904Y-10106189D01*
X68401666Y-10201427D01*
X68258809Y-10249046D01*
X68020714Y-10249046D01*
X69544523Y-10249046D02*
X68973095Y-10249046D01*
X69258809Y-10249046D02*
X69258809Y-9249046D01*
X69163571Y-9391904D01*
X69068333Y-9487142D01*
X68973095Y-9534761D01*
X70401666Y-9582380D02*
X70401666Y-10249046D01*
X70163571Y-9201427D02*
X69925476Y-9915713D01*
X70544523Y-9915713D01*
%TO.C,D43*%
X31058214Y-21582380D02*
X31058214Y-20582380D01*
X31296309Y-20582380D01*
X31439166Y-20630000D01*
X31534404Y-20725238D01*
X31582023Y-20820476D01*
X31629642Y-21010952D01*
X31629642Y-21153809D01*
X31582023Y-21344285D01*
X31534404Y-21439523D01*
X31439166Y-21534761D01*
X31296309Y-21582380D01*
X31058214Y-21582380D01*
X32486785Y-20915714D02*
X32486785Y-21582380D01*
X32248690Y-20534761D02*
X32010595Y-21249047D01*
X32629642Y-21249047D01*
X32915357Y-20582380D02*
X33534404Y-20582380D01*
X33201071Y-20963333D01*
X33343928Y-20963333D01*
X33439166Y-21010952D01*
X33486785Y-21058571D01*
X33534404Y-21153809D01*
X33534404Y-21391904D01*
X33486785Y-21487142D01*
X33439166Y-21534761D01*
X33343928Y-21582380D01*
X33058214Y-21582380D01*
X32962976Y-21534761D01*
X32915357Y-21487142D01*
%TO.C,D53*%
X236608214Y-8832380D02*
X236608214Y-7832380D01*
X236846309Y-7832380D01*
X236989166Y-7880000D01*
X237084404Y-7975238D01*
X237132023Y-8070476D01*
X237179642Y-8260952D01*
X237179642Y-8403809D01*
X237132023Y-8594285D01*
X237084404Y-8689523D01*
X236989166Y-8784761D01*
X236846309Y-8832380D01*
X236608214Y-8832380D01*
X238084404Y-7832380D02*
X237608214Y-7832380D01*
X237560595Y-8308571D01*
X237608214Y-8260952D01*
X237703452Y-8213333D01*
X237941547Y-8213333D01*
X238036785Y-8260952D01*
X238084404Y-8308571D01*
X238132023Y-8403809D01*
X238132023Y-8641904D01*
X238084404Y-8737142D01*
X238036785Y-8784761D01*
X237941547Y-8832380D01*
X237703452Y-8832380D01*
X237608214Y-8784761D01*
X237560595Y-8737142D01*
X238465357Y-7832380D02*
X239084404Y-7832380D01*
X238751071Y-8213333D01*
X238893928Y-8213333D01*
X238989166Y-8260952D01*
X239036785Y-8308571D01*
X239084404Y-8403809D01*
X239084404Y-8641904D01*
X239036785Y-8737142D01*
X238989166Y-8784761D01*
X238893928Y-8832380D01*
X238608214Y-8832380D01*
X238512976Y-8784761D01*
X238465357Y-8737142D01*
%TO.C,D28*%
X107839073Y-15915712D02*
X107839073Y-14915712D01*
X108077168Y-14915712D01*
X108220025Y-14963332D01*
X108315263Y-15058570D01*
X108362882Y-15153808D01*
X108410501Y-15344284D01*
X108410501Y-15487141D01*
X108362882Y-15677617D01*
X108315263Y-15772855D01*
X108220025Y-15868093D01*
X108077168Y-15915712D01*
X107839073Y-15915712D01*
X108791454Y-15010951D02*
X108839073Y-14963332D01*
X108934311Y-14915712D01*
X109172406Y-14915712D01*
X109267644Y-14963332D01*
X109315263Y-15010951D01*
X109362882Y-15106189D01*
X109362882Y-15201427D01*
X109315263Y-15344284D01*
X108743835Y-15915712D01*
X109362882Y-15915712D01*
X109934311Y-15344284D02*
X109839073Y-15296665D01*
X109791454Y-15249046D01*
X109743835Y-15153808D01*
X109743835Y-15106189D01*
X109791454Y-15010951D01*
X109839073Y-14963332D01*
X109934311Y-14915712D01*
X110124787Y-14915712D01*
X110220025Y-14963332D01*
X110267644Y-15010951D01*
X110315263Y-15106189D01*
X110315263Y-15153808D01*
X110267644Y-15249046D01*
X110220025Y-15296665D01*
X110124787Y-15344284D01*
X109934311Y-15344284D01*
X109839073Y-15391903D01*
X109791454Y-15439522D01*
X109743835Y-15534760D01*
X109743835Y-15725236D01*
X109791454Y-15820474D01*
X109839073Y-15868093D01*
X109934311Y-15915712D01*
X110124787Y-15915712D01*
X110220025Y-15868093D01*
X110267644Y-15820474D01*
X110315263Y-15725236D01*
X110315263Y-15534760D01*
X110267644Y-15439522D01*
X110220025Y-15391903D01*
X110124787Y-15344284D01*
%TO.C,D2*%
X275981428Y-7169285D02*
X275981428Y-6419285D01*
X276160000Y-6419285D01*
X276267142Y-6455000D01*
X276338571Y-6526428D01*
X276374285Y-6597857D01*
X276410000Y-6740714D01*
X276410000Y-6847857D01*
X276374285Y-6990714D01*
X276338571Y-7062142D01*
X276267142Y-7133571D01*
X276160000Y-7169285D01*
X275981428Y-7169285D01*
X276695714Y-6490714D02*
X276731428Y-6455000D01*
X276802857Y-6419285D01*
X276981428Y-6419285D01*
X277052857Y-6455000D01*
X277088571Y-6490714D01*
X277124285Y-6562142D01*
X277124285Y-6633571D01*
X277088571Y-6740714D01*
X276660000Y-7169285D01*
X277124285Y-7169285D01*
%TO.C,D25*%
X95995714Y-21582380D02*
X95995714Y-20582380D01*
X96233809Y-20582380D01*
X96376666Y-20630000D01*
X96471904Y-20725238D01*
X96519523Y-20820476D01*
X96567142Y-21010952D01*
X96567142Y-21153809D01*
X96519523Y-21344285D01*
X96471904Y-21439523D01*
X96376666Y-21534761D01*
X96233809Y-21582380D01*
X95995714Y-21582380D01*
X96948095Y-20677619D02*
X96995714Y-20630000D01*
X97090952Y-20582380D01*
X97329047Y-20582380D01*
X97424285Y-20630000D01*
X97471904Y-20677619D01*
X97519523Y-20772857D01*
X97519523Y-20868095D01*
X97471904Y-21010952D01*
X96900476Y-21582380D01*
X97519523Y-21582380D01*
X98424285Y-20582380D02*
X97948095Y-20582380D01*
X97900476Y-21058571D01*
X97948095Y-21010952D01*
X98043333Y-20963333D01*
X98281428Y-20963333D01*
X98376666Y-21010952D01*
X98424285Y-21058571D01*
X98471904Y-21153809D01*
X98471904Y-21391904D01*
X98424285Y-21487142D01*
X98376666Y-21534761D01*
X98281428Y-21582380D01*
X98043333Y-21582380D01*
X97948095Y-21534761D01*
X97900476Y-21487142D01*
%TO.C,D44*%
X157933214Y-4582380D02*
X157933214Y-3582380D01*
X158171309Y-3582380D01*
X158314166Y-3630000D01*
X158409404Y-3725238D01*
X158457023Y-3820476D01*
X158504642Y-4010952D01*
X158504642Y-4153809D01*
X158457023Y-4344285D01*
X158409404Y-4439523D01*
X158314166Y-4534761D01*
X158171309Y-4582380D01*
X157933214Y-4582380D01*
X159361785Y-3915714D02*
X159361785Y-4582380D01*
X159123690Y-3534761D02*
X158885595Y-4249047D01*
X159504642Y-4249047D01*
X160314166Y-3915714D02*
X160314166Y-4582380D01*
X160076071Y-3534761D02*
X159837976Y-4249047D01*
X160457023Y-4249047D01*
%TO.C,R5*%
X265652380Y-5146666D02*
X265176190Y-5480000D01*
X265652380Y-5718095D02*
X264652380Y-5718095D01*
X264652380Y-5337142D01*
X264700000Y-5241904D01*
X264747619Y-5194285D01*
X264842857Y-5146666D01*
X264985714Y-5146666D01*
X265080952Y-5194285D01*
X265128571Y-5241904D01*
X265176190Y-5337142D01*
X265176190Y-5718095D01*
X264652380Y-4241904D02*
X264652380Y-4718095D01*
X265128571Y-4765714D01*
X265080952Y-4718095D01*
X265033333Y-4622857D01*
X265033333Y-4384761D01*
X265080952Y-4289523D01*
X265128571Y-4241904D01*
X265223809Y-4194285D01*
X265461904Y-4194285D01*
X265557142Y-4241904D01*
X265604761Y-4289523D01*
X265652380Y-4384761D01*
X265652380Y-4622857D01*
X265604761Y-4718095D01*
X265557142Y-4765714D01*
%TO.C,D49*%
X170920714Y-4582380D02*
X170920714Y-3582380D01*
X171158809Y-3582380D01*
X171301666Y-3630000D01*
X171396904Y-3725238D01*
X171444523Y-3820476D01*
X171492142Y-4010952D01*
X171492142Y-4153809D01*
X171444523Y-4344285D01*
X171396904Y-4439523D01*
X171301666Y-4534761D01*
X171158809Y-4582380D01*
X170920714Y-4582380D01*
X172349285Y-3915714D02*
X172349285Y-4582380D01*
X172111190Y-3534761D02*
X171873095Y-4249047D01*
X172492142Y-4249047D01*
X172920714Y-4582380D02*
X173111190Y-4582380D01*
X173206428Y-4534761D01*
X173254047Y-4487142D01*
X173349285Y-4344285D01*
X173396904Y-4153809D01*
X173396904Y-3772857D01*
X173349285Y-3677619D01*
X173301666Y-3630000D01*
X173206428Y-3582380D01*
X173015952Y-3582380D01*
X172920714Y-3630000D01*
X172873095Y-3677619D01*
X172825476Y-3772857D01*
X172825476Y-4010952D01*
X172873095Y-4106190D01*
X172920714Y-4153809D01*
X173015952Y-4201428D01*
X173206428Y-4201428D01*
X173301666Y-4153809D01*
X173349285Y-4106190D01*
X173396904Y-4010952D01*
%TO.C,D22*%
X92995714Y-4582380D02*
X92995714Y-3582380D01*
X93233809Y-3582380D01*
X93376666Y-3630000D01*
X93471904Y-3725238D01*
X93519523Y-3820476D01*
X93567142Y-4010952D01*
X93567142Y-4153809D01*
X93519523Y-4344285D01*
X93471904Y-4439523D01*
X93376666Y-4534761D01*
X93233809Y-4582380D01*
X92995714Y-4582380D01*
X93948095Y-3677619D02*
X93995714Y-3630000D01*
X94090952Y-3582380D01*
X94329047Y-3582380D01*
X94424285Y-3630000D01*
X94471904Y-3677619D01*
X94519523Y-3772857D01*
X94519523Y-3868095D01*
X94471904Y-4010952D01*
X93900476Y-4582380D01*
X94519523Y-4582380D01*
X94900476Y-3677619D02*
X94948095Y-3630000D01*
X95043333Y-3582380D01*
X95281428Y-3582380D01*
X95376666Y-3630000D01*
X95424285Y-3677619D01*
X95471904Y-3772857D01*
X95471904Y-3868095D01*
X95424285Y-4010952D01*
X94852857Y-4582380D01*
X95471904Y-4582380D01*
%TO.C,D69*%
X224721299Y-15915712D02*
X224721299Y-14915712D01*
X224959394Y-14915712D01*
X225102251Y-14963332D01*
X225197489Y-15058570D01*
X225245108Y-15153808D01*
X225292727Y-15344284D01*
X225292727Y-15487141D01*
X225245108Y-15677617D01*
X225197489Y-15772855D01*
X225102251Y-15868093D01*
X224959394Y-15915712D01*
X224721299Y-15915712D01*
X226149870Y-14915712D02*
X225959394Y-14915712D01*
X225864156Y-14963332D01*
X225816537Y-15010951D01*
X225721299Y-15153808D01*
X225673680Y-15344284D01*
X225673680Y-15725236D01*
X225721299Y-15820474D01*
X225768918Y-15868093D01*
X225864156Y-15915712D01*
X226054632Y-15915712D01*
X226149870Y-15868093D01*
X226197489Y-15820474D01*
X226245108Y-15725236D01*
X226245108Y-15487141D01*
X226197489Y-15391903D01*
X226149870Y-15344284D01*
X226054632Y-15296665D01*
X225864156Y-15296665D01*
X225768918Y-15344284D01*
X225721299Y-15391903D01*
X225673680Y-15487141D01*
X226721299Y-15915712D02*
X226911775Y-15915712D01*
X227007013Y-15868093D01*
X227054632Y-15820474D01*
X227149870Y-15677617D01*
X227197489Y-15487141D01*
X227197489Y-15106189D01*
X227149870Y-15010951D01*
X227102251Y-14963332D01*
X227007013Y-14915712D01*
X226816537Y-14915712D01*
X226721299Y-14963332D01*
X226673680Y-15010951D01*
X226626061Y-15106189D01*
X226626061Y-15344284D01*
X226673680Y-15439522D01*
X226721299Y-15487141D01*
X226816537Y-15534760D01*
X227007013Y-15534760D01*
X227102251Y-15487141D01*
X227149870Y-15439522D01*
X227197489Y-15344284D01*
%TO.C,J1*%
X274339166Y767619D02*
X274339166Y53333D01*
X274291547Y-89523D01*
X274196309Y-184761D01*
X274053452Y-232380D01*
X273958214Y-232380D01*
X275339166Y-232380D02*
X274767738Y-232380D01*
X275053452Y-232380D02*
X275053452Y767619D01*
X274958214Y624761D01*
X274862976Y529523D01*
X274767738Y481904D01*
%TO.C,D56*%
X185760557Y-15915712D02*
X185760557Y-14915712D01*
X185998652Y-14915712D01*
X186141509Y-14963332D01*
X186236747Y-15058570D01*
X186284366Y-15153808D01*
X186331985Y-15344284D01*
X186331985Y-15487141D01*
X186284366Y-15677617D01*
X186236747Y-15772855D01*
X186141509Y-15868093D01*
X185998652Y-15915712D01*
X185760557Y-15915712D01*
X187236747Y-14915712D02*
X186760557Y-14915712D01*
X186712938Y-15391903D01*
X186760557Y-15344284D01*
X186855795Y-15296665D01*
X187093890Y-15296665D01*
X187189128Y-15344284D01*
X187236747Y-15391903D01*
X187284366Y-15487141D01*
X187284366Y-15725236D01*
X187236747Y-15820474D01*
X187189128Y-15868093D01*
X187093890Y-15915712D01*
X186855795Y-15915712D01*
X186760557Y-15868093D01*
X186712938Y-15820474D01*
X188141509Y-14915712D02*
X187951033Y-14915712D01*
X187855795Y-14963332D01*
X187808176Y-15010951D01*
X187712938Y-15153808D01*
X187665319Y-15344284D01*
X187665319Y-15725236D01*
X187712938Y-15820474D01*
X187760557Y-15868093D01*
X187855795Y-15915712D01*
X188046271Y-15915712D01*
X188141509Y-15868093D01*
X188189128Y-15820474D01*
X188236747Y-15725236D01*
X188236747Y-15487141D01*
X188189128Y-15391903D01*
X188141509Y-15344284D01*
X188046271Y-15296665D01*
X187855795Y-15296665D01*
X187760557Y-15344284D01*
X187712938Y-15391903D01*
X187665319Y-15487141D01*
%TO.C,R6*%
X266605833Y-13532380D02*
X266272500Y-13056190D01*
X266034404Y-13532380D02*
X266034404Y-12532380D01*
X266415357Y-12532380D01*
X266510595Y-12580000D01*
X266558214Y-12627619D01*
X266605833Y-12722857D01*
X266605833Y-12865714D01*
X266558214Y-12960952D01*
X266510595Y-13008571D01*
X266415357Y-13056190D01*
X266034404Y-13056190D01*
X267462976Y-12532380D02*
X267272500Y-12532380D01*
X267177261Y-12580000D01*
X267129642Y-12627619D01*
X267034404Y-12770476D01*
X266986785Y-12960952D01*
X266986785Y-13341904D01*
X267034404Y-13437142D01*
X267082023Y-13484761D01*
X267177261Y-13532380D01*
X267367738Y-13532380D01*
X267462976Y-13484761D01*
X267510595Y-13437142D01*
X267558214Y-13341904D01*
X267558214Y-13103809D01*
X267510595Y-13008571D01*
X267462976Y-12960952D01*
X267367738Y-12913333D01*
X267177261Y-12913333D01*
X267082023Y-12960952D01*
X267034404Y-13008571D01*
X266986785Y-13103809D01*
%TO.C,D29*%
X108983214Y-21582380D02*
X108983214Y-20582380D01*
X109221309Y-20582380D01*
X109364166Y-20630000D01*
X109459404Y-20725238D01*
X109507023Y-20820476D01*
X109554642Y-21010952D01*
X109554642Y-21153809D01*
X109507023Y-21344285D01*
X109459404Y-21439523D01*
X109364166Y-21534761D01*
X109221309Y-21582380D01*
X108983214Y-21582380D01*
X109935595Y-20677619D02*
X109983214Y-20630000D01*
X110078452Y-20582380D01*
X110316547Y-20582380D01*
X110411785Y-20630000D01*
X110459404Y-20677619D01*
X110507023Y-20772857D01*
X110507023Y-20868095D01*
X110459404Y-21010952D01*
X109887976Y-21582380D01*
X110507023Y-21582380D01*
X110983214Y-21582380D02*
X111173690Y-21582380D01*
X111268928Y-21534761D01*
X111316547Y-21487142D01*
X111411785Y-21344285D01*
X111459404Y-21153809D01*
X111459404Y-20772857D01*
X111411785Y-20677619D01*
X111364166Y-20630000D01*
X111268928Y-20582380D01*
X111078452Y-20582380D01*
X110983214Y-20630000D01*
X110935595Y-20677619D01*
X110887976Y-20772857D01*
X110887976Y-21010952D01*
X110935595Y-21106190D01*
X110983214Y-21153809D01*
X111078452Y-21201428D01*
X111268928Y-21201428D01*
X111364166Y-21153809D01*
X111411785Y-21106190D01*
X111459404Y-21010952D01*
%TO.C,D11*%
X55891417Y-15915712D02*
X55891417Y-14915712D01*
X56129512Y-14915712D01*
X56272369Y-14963332D01*
X56367607Y-15058570D01*
X56415226Y-15153808D01*
X56462845Y-15344284D01*
X56462845Y-15487141D01*
X56415226Y-15677617D01*
X56367607Y-15772855D01*
X56272369Y-15868093D01*
X56129512Y-15915712D01*
X55891417Y-15915712D01*
X57415226Y-15915712D02*
X56843798Y-15915712D01*
X57129512Y-15915712D02*
X57129512Y-14915712D01*
X57034274Y-15058570D01*
X56939036Y-15153808D01*
X56843798Y-15201427D01*
X58367607Y-15915712D02*
X57796179Y-15915712D01*
X58081893Y-15915712D02*
X58081893Y-14915712D01*
X57986655Y-15058570D01*
X57891417Y-15153808D01*
X57796179Y-15201427D01*
%TO.C,D72*%
X198395714Y-11915712D02*
X198395714Y-10915712D01*
X198633809Y-10915712D01*
X198776666Y-10963332D01*
X198871904Y-11058570D01*
X198919523Y-11153808D01*
X198967142Y-11344284D01*
X198967142Y-11487141D01*
X198919523Y-11677617D01*
X198871904Y-11772855D01*
X198776666Y-11868093D01*
X198633809Y-11915712D01*
X198395714Y-11915712D01*
X199300476Y-10915712D02*
X199967142Y-10915712D01*
X199538571Y-11915712D01*
X200300476Y-11010951D02*
X200348095Y-10963332D01*
X200443333Y-10915712D01*
X200681428Y-10915712D01*
X200776666Y-10963332D01*
X200824285Y-11010951D01*
X200871904Y-11106189D01*
X200871904Y-11201427D01*
X200824285Y-11344284D01*
X200252857Y-11915712D01*
X200871904Y-11915712D01*
%TO.C,C6*%
X251057142Y-21246666D02*
X251104761Y-21294285D01*
X251152380Y-21437142D01*
X251152380Y-21532380D01*
X251104761Y-21675238D01*
X251009523Y-21770476D01*
X250914285Y-21818095D01*
X250723809Y-21865714D01*
X250580952Y-21865714D01*
X250390476Y-21818095D01*
X250295238Y-21770476D01*
X250200000Y-21675238D01*
X250152380Y-21532380D01*
X250152380Y-21437142D01*
X250200000Y-21294285D01*
X250247619Y-21246666D01*
X250152380Y-20389523D02*
X250152380Y-20580000D01*
X250200000Y-20675238D01*
X250247619Y-20722857D01*
X250390476Y-20818095D01*
X250580952Y-20865714D01*
X250961904Y-20865714D01*
X251057142Y-20818095D01*
X251104761Y-20770476D01*
X251152380Y-20675238D01*
X251152380Y-20484761D01*
X251104761Y-20389523D01*
X251057142Y-20341904D01*
X250961904Y-20294285D01*
X250723809Y-20294285D01*
X250628571Y-20341904D01*
X250580952Y-20389523D01*
X250533333Y-20484761D01*
X250533333Y-20675238D01*
X250580952Y-20770476D01*
X250628571Y-20818095D01*
X250723809Y-20865714D01*
%TO.C,D60*%
X199895714Y-21582380D02*
X199895714Y-20582380D01*
X200133809Y-20582380D01*
X200276666Y-20630000D01*
X200371904Y-20725238D01*
X200419523Y-20820476D01*
X200467142Y-21010952D01*
X200467142Y-21153809D01*
X200419523Y-21344285D01*
X200371904Y-21439523D01*
X200276666Y-21534761D01*
X200133809Y-21582380D01*
X199895714Y-21582380D01*
X201324285Y-20582380D02*
X201133809Y-20582380D01*
X201038571Y-20630000D01*
X200990952Y-20677619D01*
X200895714Y-20820476D01*
X200848095Y-21010952D01*
X200848095Y-21391904D01*
X200895714Y-21487142D01*
X200943333Y-21534761D01*
X201038571Y-21582380D01*
X201229047Y-21582380D01*
X201324285Y-21534761D01*
X201371904Y-21487142D01*
X201419523Y-21391904D01*
X201419523Y-21153809D01*
X201371904Y-21058571D01*
X201324285Y-21010952D01*
X201229047Y-20963333D01*
X201038571Y-20963333D01*
X200943333Y-21010952D01*
X200895714Y-21058571D01*
X200848095Y-21153809D01*
X202038571Y-20582380D02*
X202133809Y-20582380D01*
X202229047Y-20630000D01*
X202276666Y-20677619D01*
X202324285Y-20772857D01*
X202371904Y-20963333D01*
X202371904Y-21201428D01*
X202324285Y-21391904D01*
X202276666Y-21487142D01*
X202229047Y-21534761D01*
X202133809Y-21582380D01*
X202038571Y-21582380D01*
X201943333Y-21534761D01*
X201895714Y-21487142D01*
X201848095Y-21391904D01*
X201800476Y-21201428D01*
X201800476Y-20963333D01*
X201848095Y-20772857D01*
X201895714Y-20677619D01*
X201943333Y-20630000D01*
X202038571Y-20582380D01*
%TO.C,D19*%
X81008214Y-10249046D02*
X81008214Y-9249046D01*
X81246309Y-9249046D01*
X81389166Y-9296666D01*
X81484404Y-9391904D01*
X81532023Y-9487142D01*
X81579642Y-9677618D01*
X81579642Y-9820475D01*
X81532023Y-10010951D01*
X81484404Y-10106189D01*
X81389166Y-10201427D01*
X81246309Y-10249046D01*
X81008214Y-10249046D01*
X82532023Y-10249046D02*
X81960595Y-10249046D01*
X82246309Y-10249046D02*
X82246309Y-9249046D01*
X82151071Y-9391904D01*
X82055833Y-9487142D01*
X81960595Y-9534761D01*
X83008214Y-10249046D02*
X83198690Y-10249046D01*
X83293928Y-10201427D01*
X83341547Y-10153808D01*
X83436785Y-10010951D01*
X83484404Y-9820475D01*
X83484404Y-9439523D01*
X83436785Y-9344285D01*
X83389166Y-9296666D01*
X83293928Y-9249046D01*
X83103452Y-9249046D01*
X83008214Y-9296666D01*
X82960595Y-9344285D01*
X82912976Y-9439523D01*
X82912976Y-9677618D01*
X82960595Y-9772856D01*
X83008214Y-9820475D01*
X83103452Y-9868094D01*
X83293928Y-9868094D01*
X83389166Y-9820475D01*
X83436785Y-9772856D01*
X83484404Y-9677618D01*
%TO.C,D62*%
X209883214Y-4582380D02*
X209883214Y-3582380D01*
X210121309Y-3582380D01*
X210264166Y-3630000D01*
X210359404Y-3725238D01*
X210407023Y-3820476D01*
X210454642Y-4010952D01*
X210454642Y-4153809D01*
X210407023Y-4344285D01*
X210359404Y-4439523D01*
X210264166Y-4534761D01*
X210121309Y-4582380D01*
X209883214Y-4582380D01*
X211311785Y-3582380D02*
X211121309Y-3582380D01*
X211026071Y-3630000D01*
X210978452Y-3677619D01*
X210883214Y-3820476D01*
X210835595Y-4010952D01*
X210835595Y-4391904D01*
X210883214Y-4487142D01*
X210930833Y-4534761D01*
X211026071Y-4582380D01*
X211216547Y-4582380D01*
X211311785Y-4534761D01*
X211359404Y-4487142D01*
X211407023Y-4391904D01*
X211407023Y-4153809D01*
X211359404Y-4058571D01*
X211311785Y-4010952D01*
X211216547Y-3963333D01*
X211026071Y-3963333D01*
X210930833Y-4010952D01*
X210883214Y-4058571D01*
X210835595Y-4153809D01*
X211787976Y-3677619D02*
X211835595Y-3630000D01*
X211930833Y-3582380D01*
X212168928Y-3582380D01*
X212264166Y-3630000D01*
X212311785Y-3677619D01*
X212359404Y-3772857D01*
X212359404Y-3868095D01*
X212311785Y-4010952D01*
X211740357Y-4582380D01*
X212359404Y-4582380D01*
%TO.C,D6*%
X43380693Y-15915712D02*
X43380693Y-14915712D01*
X43618789Y-14915712D01*
X43761646Y-14963332D01*
X43856884Y-15058570D01*
X43904503Y-15153808D01*
X43952122Y-15344284D01*
X43952122Y-15487141D01*
X43904503Y-15677617D01*
X43856884Y-15772855D01*
X43761646Y-15868093D01*
X43618789Y-15915712D01*
X43380693Y-15915712D01*
X44809265Y-14915712D02*
X44618789Y-14915712D01*
X44523550Y-14963332D01*
X44475931Y-15010951D01*
X44380693Y-15153808D01*
X44333074Y-15344284D01*
X44333074Y-15725236D01*
X44380693Y-15820474D01*
X44428312Y-15868093D01*
X44523550Y-15915712D01*
X44714027Y-15915712D01*
X44809265Y-15868093D01*
X44856884Y-15820474D01*
X44904503Y-15725236D01*
X44904503Y-15487141D01*
X44856884Y-15391903D01*
X44809265Y-15344284D01*
X44714027Y-15296665D01*
X44523550Y-15296665D01*
X44428312Y-15344284D01*
X44380693Y-15391903D01*
X44333074Y-15487141D01*
%TO.C,D52*%
X173920714Y-21582380D02*
X173920714Y-20582380D01*
X174158809Y-20582380D01*
X174301666Y-20630000D01*
X174396904Y-20725238D01*
X174444523Y-20820476D01*
X174492142Y-21010952D01*
X174492142Y-21153809D01*
X174444523Y-21344285D01*
X174396904Y-21439523D01*
X174301666Y-21534761D01*
X174158809Y-21582380D01*
X173920714Y-21582380D01*
X175396904Y-20582380D02*
X174920714Y-20582380D01*
X174873095Y-21058571D01*
X174920714Y-21010952D01*
X175015952Y-20963333D01*
X175254047Y-20963333D01*
X175349285Y-21010952D01*
X175396904Y-21058571D01*
X175444523Y-21153809D01*
X175444523Y-21391904D01*
X175396904Y-21487142D01*
X175349285Y-21534761D01*
X175254047Y-21582380D01*
X175015952Y-21582380D01*
X174920714Y-21534761D01*
X174873095Y-21487142D01*
X175825476Y-20677619D02*
X175873095Y-20630000D01*
X175968333Y-20582380D01*
X176206428Y-20582380D01*
X176301666Y-20630000D01*
X176349285Y-20677619D01*
X176396904Y-20772857D01*
X176396904Y-20868095D01*
X176349285Y-21010952D01*
X175777857Y-21582380D01*
X176396904Y-21582380D01*
%TO.C,D7*%
X44521904Y-21582380D02*
X44521904Y-20582380D01*
X44760000Y-20582380D01*
X44902857Y-20630000D01*
X44998095Y-20725238D01*
X45045714Y-20820476D01*
X45093333Y-21010952D01*
X45093333Y-21153809D01*
X45045714Y-21344285D01*
X44998095Y-21439523D01*
X44902857Y-21534761D01*
X44760000Y-21582380D01*
X44521904Y-21582380D01*
X45426666Y-20582380D02*
X46093333Y-20582380D01*
X45664761Y-21582380D01*
%TO.C,D63*%
X210883214Y-10249046D02*
X210883214Y-9249046D01*
X211121309Y-9249046D01*
X211264166Y-9296666D01*
X211359404Y-9391904D01*
X211407023Y-9487142D01*
X211454642Y-9677618D01*
X211454642Y-9820475D01*
X211407023Y-10010951D01*
X211359404Y-10106189D01*
X211264166Y-10201427D01*
X211121309Y-10249046D01*
X210883214Y-10249046D01*
X212311785Y-9249046D02*
X212121309Y-9249046D01*
X212026071Y-9296666D01*
X211978452Y-9344285D01*
X211883214Y-9487142D01*
X211835595Y-9677618D01*
X211835595Y-10058570D01*
X211883214Y-10153808D01*
X211930833Y-10201427D01*
X212026071Y-10249046D01*
X212216547Y-10249046D01*
X212311785Y-10201427D01*
X212359404Y-10153808D01*
X212407023Y-10058570D01*
X212407023Y-9820475D01*
X212359404Y-9725237D01*
X212311785Y-9677618D01*
X212216547Y-9629999D01*
X212026071Y-9629999D01*
X211930833Y-9677618D01*
X211883214Y-9725237D01*
X211835595Y-9820475D01*
X212740357Y-9249046D02*
X213359404Y-9249046D01*
X213026071Y-9629999D01*
X213168928Y-9629999D01*
X213264166Y-9677618D01*
X213311785Y-9725237D01*
X213359404Y-9820475D01*
X213359404Y-10058570D01*
X213311785Y-10153808D01*
X213264166Y-10201427D01*
X213168928Y-10249046D01*
X212883214Y-10249046D01*
X212787976Y-10201427D01*
X212740357Y-10153808D01*
%TO.C,D51*%
X172773643Y-15915712D02*
X172773643Y-14915712D01*
X173011738Y-14915712D01*
X173154595Y-14963332D01*
X173249833Y-15058570D01*
X173297452Y-15153808D01*
X173345071Y-15344284D01*
X173345071Y-15487141D01*
X173297452Y-15677617D01*
X173249833Y-15772855D01*
X173154595Y-15868093D01*
X173011738Y-15915712D01*
X172773643Y-15915712D01*
X174249833Y-14915712D02*
X173773643Y-14915712D01*
X173726024Y-15391903D01*
X173773643Y-15344284D01*
X173868881Y-15296665D01*
X174106976Y-15296665D01*
X174202214Y-15344284D01*
X174249833Y-15391903D01*
X174297452Y-15487141D01*
X174297452Y-15725236D01*
X174249833Y-15820474D01*
X174202214Y-15868093D01*
X174106976Y-15915712D01*
X173868881Y-15915712D01*
X173773643Y-15868093D01*
X173726024Y-15820474D01*
X175249833Y-15915712D02*
X174678405Y-15915712D01*
X174964119Y-15915712D02*
X174964119Y-14915712D01*
X174868881Y-15058570D01*
X174773643Y-15153808D01*
X174678405Y-15201427D01*
%TO.C,D67*%
X222870714Y-4582380D02*
X222870714Y-3582380D01*
X223108809Y-3582380D01*
X223251666Y-3630000D01*
X223346904Y-3725238D01*
X223394523Y-3820476D01*
X223442142Y-4010952D01*
X223442142Y-4153809D01*
X223394523Y-4344285D01*
X223346904Y-4439523D01*
X223251666Y-4534761D01*
X223108809Y-4582380D01*
X222870714Y-4582380D01*
X224299285Y-3582380D02*
X224108809Y-3582380D01*
X224013571Y-3630000D01*
X223965952Y-3677619D01*
X223870714Y-3820476D01*
X223823095Y-4010952D01*
X223823095Y-4391904D01*
X223870714Y-4487142D01*
X223918333Y-4534761D01*
X224013571Y-4582380D01*
X224204047Y-4582380D01*
X224299285Y-4534761D01*
X224346904Y-4487142D01*
X224394523Y-4391904D01*
X224394523Y-4153809D01*
X224346904Y-4058571D01*
X224299285Y-4010952D01*
X224204047Y-3963333D01*
X224013571Y-3963333D01*
X223918333Y-4010952D01*
X223870714Y-4058571D01*
X223823095Y-4153809D01*
X224727857Y-3582380D02*
X225394523Y-3582380D01*
X224965952Y-4582380D01*
%TO.C,D64*%
X211734385Y-15915712D02*
X211734385Y-14915712D01*
X211972480Y-14915712D01*
X212115337Y-14963332D01*
X212210575Y-15058570D01*
X212258194Y-15153808D01*
X212305813Y-15344284D01*
X212305813Y-15487141D01*
X212258194Y-15677617D01*
X212210575Y-15772855D01*
X212115337Y-15868093D01*
X211972480Y-15915712D01*
X211734385Y-15915712D01*
X213162956Y-14915712D02*
X212972480Y-14915712D01*
X212877242Y-14963332D01*
X212829623Y-15010951D01*
X212734385Y-15153808D01*
X212686766Y-15344284D01*
X212686766Y-15725236D01*
X212734385Y-15820474D01*
X212782004Y-15868093D01*
X212877242Y-15915712D01*
X213067718Y-15915712D01*
X213162956Y-15868093D01*
X213210575Y-15820474D01*
X213258194Y-15725236D01*
X213258194Y-15487141D01*
X213210575Y-15391903D01*
X213162956Y-15344284D01*
X213067718Y-15296665D01*
X212877242Y-15296665D01*
X212782004Y-15344284D01*
X212734385Y-15391903D01*
X212686766Y-15487141D01*
X214115337Y-15249046D02*
X214115337Y-15915712D01*
X213877242Y-14868093D02*
X213639147Y-15582379D01*
X214258194Y-15582379D01*
%TO.C,R3*%
X276410000Y-6069285D02*
X276160000Y-5712142D01*
X275981428Y-6069285D02*
X275981428Y-5319285D01*
X276267142Y-5319285D01*
X276338571Y-5355000D01*
X276374285Y-5390714D01*
X276410000Y-5462142D01*
X276410000Y-5569285D01*
X276374285Y-5640714D01*
X276338571Y-5676428D01*
X276267142Y-5712142D01*
X275981428Y-5712142D01*
X276660000Y-5319285D02*
X277124285Y-5319285D01*
X276874285Y-5605000D01*
X276981428Y-5605000D01*
X277052857Y-5640714D01*
X277088571Y-5676428D01*
X277124285Y-5747857D01*
X277124285Y-5926428D01*
X277088571Y-5997857D01*
X277052857Y-6033571D01*
X276981428Y-6069285D01*
X276767142Y-6069285D01*
X276695714Y-6033571D01*
X276660000Y-5997857D01*
%TO.C,D20*%
X81865245Y-15915712D02*
X81865245Y-14915712D01*
X82103340Y-14915712D01*
X82246197Y-14963332D01*
X82341435Y-15058570D01*
X82389054Y-15153808D01*
X82436673Y-15344284D01*
X82436673Y-15487141D01*
X82389054Y-15677617D01*
X82341435Y-15772855D01*
X82246197Y-15868093D01*
X82103340Y-15915712D01*
X81865245Y-15915712D01*
X82817626Y-15010951D02*
X82865245Y-14963332D01*
X82960483Y-14915712D01*
X83198578Y-14915712D01*
X83293816Y-14963332D01*
X83341435Y-15010951D01*
X83389054Y-15106189D01*
X83389054Y-15201427D01*
X83341435Y-15344284D01*
X82770007Y-15915712D01*
X83389054Y-15915712D01*
X84008102Y-14915712D02*
X84103340Y-14915712D01*
X84198578Y-14963332D01*
X84246197Y-15010951D01*
X84293816Y-15106189D01*
X84341435Y-15296665D01*
X84341435Y-15534760D01*
X84293816Y-15725236D01*
X84246197Y-15820474D01*
X84198578Y-15868093D01*
X84103340Y-15915712D01*
X84008102Y-15915712D01*
X83912864Y-15868093D01*
X83865245Y-15820474D01*
X83817626Y-15725236D01*
X83770007Y-15534760D01*
X83770007Y-15296665D01*
X83817626Y-15106189D01*
X83865245Y-15010951D01*
X83912864Y-14963332D01*
X84008102Y-14915712D01*
%TO.C,D12*%
X28058214Y-4582380D02*
X28058214Y-3582380D01*
X28296309Y-3582380D01*
X28439166Y-3630000D01*
X28534404Y-3725238D01*
X28582023Y-3820476D01*
X28629642Y-4010952D01*
X28629642Y-4153809D01*
X28582023Y-4344285D01*
X28534404Y-4439523D01*
X28439166Y-4534761D01*
X28296309Y-4582380D01*
X28058214Y-4582380D01*
X29582023Y-4582380D02*
X29010595Y-4582380D01*
X29296309Y-4582380D02*
X29296309Y-3582380D01*
X29201071Y-3725238D01*
X29105833Y-3820476D01*
X29010595Y-3868095D01*
X29962976Y-3677619D02*
X30010595Y-3630000D01*
X30105833Y-3582380D01*
X30343928Y-3582380D01*
X30439166Y-3630000D01*
X30486785Y-3677619D01*
X30534404Y-3772857D01*
X30534404Y-3868095D01*
X30486785Y-4010952D01*
X29915357Y-4582380D01*
X30534404Y-4582380D01*
%TO.C,C1*%
X255668333Y-17187142D02*
X255620714Y-17234761D01*
X255477857Y-17282380D01*
X255382619Y-17282380D01*
X255239761Y-17234761D01*
X255144523Y-17139523D01*
X255096904Y-17044285D01*
X255049285Y-16853809D01*
X255049285Y-16710952D01*
X255096904Y-16520476D01*
X255144523Y-16425238D01*
X255239761Y-16330000D01*
X255382619Y-16282380D01*
X255477857Y-16282380D01*
X255620714Y-16330000D01*
X255668333Y-16377619D01*
X256620714Y-17282380D02*
X256049285Y-17282380D01*
X256335000Y-17282380D02*
X256335000Y-16282380D01*
X256239761Y-16425238D01*
X256144523Y-16520476D01*
X256049285Y-16568095D01*
%TO.C,D21*%
X83008214Y-21582380D02*
X83008214Y-20582380D01*
X83246309Y-20582380D01*
X83389166Y-20630000D01*
X83484404Y-20725238D01*
X83532023Y-20820476D01*
X83579642Y-21010952D01*
X83579642Y-21153809D01*
X83532023Y-21344285D01*
X83484404Y-21439523D01*
X83389166Y-21534761D01*
X83246309Y-21582380D01*
X83008214Y-21582380D01*
X83960595Y-20677619D02*
X84008214Y-20630000D01*
X84103452Y-20582380D01*
X84341547Y-20582380D01*
X84436785Y-20630000D01*
X84484404Y-20677619D01*
X84532023Y-20772857D01*
X84532023Y-20868095D01*
X84484404Y-21010952D01*
X83912976Y-21582380D01*
X84532023Y-21582380D01*
X85484404Y-21582380D02*
X84912976Y-21582380D01*
X85198690Y-21582380D02*
X85198690Y-20582380D01*
X85103452Y-20725238D01*
X85008214Y-20820476D01*
X84912976Y-20868095D01*
%TO.C,D15*%
X68878331Y-15915712D02*
X68878331Y-14915712D01*
X69116426Y-14915712D01*
X69259283Y-14963332D01*
X69354521Y-15058570D01*
X69402140Y-15153808D01*
X69449759Y-15344284D01*
X69449759Y-15487141D01*
X69402140Y-15677617D01*
X69354521Y-15772855D01*
X69259283Y-15868093D01*
X69116426Y-15915712D01*
X68878331Y-15915712D01*
X70402140Y-15915712D02*
X69830712Y-15915712D01*
X70116426Y-15915712D02*
X70116426Y-14915712D01*
X70021188Y-15058570D01*
X69925950Y-15153808D01*
X69830712Y-15201427D01*
X71306902Y-14915712D02*
X70830712Y-14915712D01*
X70783093Y-15391903D01*
X70830712Y-15344284D01*
X70925950Y-15296665D01*
X71164045Y-15296665D01*
X71259283Y-15344284D01*
X71306902Y-15391903D01*
X71354521Y-15487141D01*
X71354521Y-15725236D01*
X71306902Y-15820474D01*
X71259283Y-15868093D01*
X71164045Y-15915712D01*
X70925950Y-15915712D01*
X70830712Y-15868093D01*
X70783093Y-15820474D01*
%TO.C,D58*%
X196895714Y-4582380D02*
X196895714Y-3582380D01*
X197133809Y-3582380D01*
X197276666Y-3630000D01*
X197371904Y-3725238D01*
X197419523Y-3820476D01*
X197467142Y-4010952D01*
X197467142Y-4153809D01*
X197419523Y-4344285D01*
X197371904Y-4439523D01*
X197276666Y-4534761D01*
X197133809Y-4582380D01*
X196895714Y-4582380D01*
X198371904Y-3582380D02*
X197895714Y-3582380D01*
X197848095Y-4058571D01*
X197895714Y-4010952D01*
X197990952Y-3963333D01*
X198229047Y-3963333D01*
X198324285Y-4010952D01*
X198371904Y-4058571D01*
X198419523Y-4153809D01*
X198419523Y-4391904D01*
X198371904Y-4487142D01*
X198324285Y-4534761D01*
X198229047Y-4582380D01*
X197990952Y-4582380D01*
X197895714Y-4534761D01*
X197848095Y-4487142D01*
X198990952Y-4010952D02*
X198895714Y-3963333D01*
X198848095Y-3915714D01*
X198800476Y-3820476D01*
X198800476Y-3772857D01*
X198848095Y-3677619D01*
X198895714Y-3630000D01*
X198990952Y-3582380D01*
X199181428Y-3582380D01*
X199276666Y-3630000D01*
X199324285Y-3677619D01*
X199371904Y-3772857D01*
X199371904Y-3820476D01*
X199324285Y-3915714D01*
X199276666Y-3963333D01*
X199181428Y-4010952D01*
X198990952Y-4010952D01*
X198895714Y-4058571D01*
X198848095Y-4106190D01*
X198800476Y-4201428D01*
X198800476Y-4391904D01*
X198848095Y-4487142D01*
X198895714Y-4534761D01*
X198990952Y-4582380D01*
X199181428Y-4582380D01*
X199276666Y-4534761D01*
X199324285Y-4487142D01*
X199371904Y-4391904D01*
X199371904Y-4201428D01*
X199324285Y-4106190D01*
X199276666Y-4058571D01*
X199181428Y-4010952D01*
%TO.C,D10*%
X55033214Y-10249046D02*
X55033214Y-9249046D01*
X55271309Y-9249046D01*
X55414166Y-9296666D01*
X55509404Y-9391904D01*
X55557023Y-9487142D01*
X55604642Y-9677618D01*
X55604642Y-9820475D01*
X55557023Y-10010951D01*
X55509404Y-10106189D01*
X55414166Y-10201427D01*
X55271309Y-10249046D01*
X55033214Y-10249046D01*
X56557023Y-10249046D02*
X55985595Y-10249046D01*
X56271309Y-10249046D02*
X56271309Y-9249046D01*
X56176071Y-9391904D01*
X56080833Y-9487142D01*
X55985595Y-9534761D01*
X57176071Y-9249046D02*
X57271309Y-9249046D01*
X57366547Y-9296666D01*
X57414166Y-9344285D01*
X57461785Y-9439523D01*
X57509404Y-9629999D01*
X57509404Y-9868094D01*
X57461785Y-10058570D01*
X57414166Y-10153808D01*
X57366547Y-10201427D01*
X57271309Y-10249046D01*
X57176071Y-10249046D01*
X57080833Y-10201427D01*
X57033214Y-10153808D01*
X56985595Y-10058570D01*
X56937976Y-9868094D01*
X56937976Y-9629999D01*
X56985595Y-9439523D01*
X57033214Y-9344285D01*
X57080833Y-9296666D01*
X57176071Y-9249046D01*
%TO.C,D13*%
X67020714Y-4582380D02*
X67020714Y-3582380D01*
X67258809Y-3582380D01*
X67401666Y-3630000D01*
X67496904Y-3725238D01*
X67544523Y-3820476D01*
X67592142Y-4010952D01*
X67592142Y-4153809D01*
X67544523Y-4344285D01*
X67496904Y-4439523D01*
X67401666Y-4534761D01*
X67258809Y-4582380D01*
X67020714Y-4582380D01*
X68544523Y-4582380D02*
X67973095Y-4582380D01*
X68258809Y-4582380D02*
X68258809Y-3582380D01*
X68163571Y-3725238D01*
X68068333Y-3820476D01*
X67973095Y-3868095D01*
X68877857Y-3582380D02*
X69496904Y-3582380D01*
X69163571Y-3963333D01*
X69306428Y-3963333D01*
X69401666Y-4010952D01*
X69449285Y-4058571D01*
X69496904Y-4153809D01*
X69496904Y-4391904D01*
X69449285Y-4487142D01*
X69401666Y-4534761D01*
X69306428Y-4582380D01*
X69020714Y-4582380D01*
X68925476Y-4534761D01*
X68877857Y-4487142D01*
%TO.C,D50*%
X171920714Y-10249046D02*
X171920714Y-9249046D01*
X172158809Y-9249046D01*
X172301666Y-9296666D01*
X172396904Y-9391904D01*
X172444523Y-9487142D01*
X172492142Y-9677618D01*
X172492142Y-9820475D01*
X172444523Y-10010951D01*
X172396904Y-10106189D01*
X172301666Y-10201427D01*
X172158809Y-10249046D01*
X171920714Y-10249046D01*
X173396904Y-9249046D02*
X172920714Y-9249046D01*
X172873095Y-9725237D01*
X172920714Y-9677618D01*
X173015952Y-9629999D01*
X173254047Y-9629999D01*
X173349285Y-9677618D01*
X173396904Y-9725237D01*
X173444523Y-9820475D01*
X173444523Y-10058570D01*
X173396904Y-10153808D01*
X173349285Y-10201427D01*
X173254047Y-10249046D01*
X173015952Y-10249046D01*
X172920714Y-10201427D01*
X172873095Y-10153808D01*
X174063571Y-9249046D02*
X174158809Y-9249046D01*
X174254047Y-9296666D01*
X174301666Y-9344285D01*
X174349285Y-9439523D01*
X174396904Y-9629999D01*
X174396904Y-9868094D01*
X174349285Y-10058570D01*
X174301666Y-10153808D01*
X174254047Y-10201427D01*
X174158809Y-10249046D01*
X174063571Y-10249046D01*
X173968333Y-10201427D01*
X173920714Y-10153808D01*
X173873095Y-10058570D01*
X173825476Y-9868094D01*
X173825476Y-9629999D01*
X173873095Y-9439523D01*
X173920714Y-9344285D01*
X173968333Y-9296666D01*
X174063571Y-9249046D01*
%TO.C,D32*%
X119970714Y-10249046D02*
X119970714Y-9249046D01*
X120208809Y-9249046D01*
X120351666Y-9296666D01*
X120446904Y-9391904D01*
X120494523Y-9487142D01*
X120542142Y-9677618D01*
X120542142Y-9820475D01*
X120494523Y-10010951D01*
X120446904Y-10106189D01*
X120351666Y-10201427D01*
X120208809Y-10249046D01*
X119970714Y-10249046D01*
X120875476Y-9249046D02*
X121494523Y-9249046D01*
X121161190Y-9629999D01*
X121304047Y-9629999D01*
X121399285Y-9677618D01*
X121446904Y-9725237D01*
X121494523Y-9820475D01*
X121494523Y-10058570D01*
X121446904Y-10153808D01*
X121399285Y-10201427D01*
X121304047Y-10249046D01*
X121018333Y-10249046D01*
X120923095Y-10201427D01*
X120875476Y-10153808D01*
X121875476Y-9344285D02*
X121923095Y-9296666D01*
X122018333Y-9249046D01*
X122256428Y-9249046D01*
X122351666Y-9296666D01*
X122399285Y-9344285D01*
X122446904Y-9439523D01*
X122446904Y-9534761D01*
X122399285Y-9677618D01*
X121827857Y-10249046D01*
X122446904Y-10249046D01*
%TO.C,D54*%
X183908214Y-4582380D02*
X183908214Y-3582380D01*
X184146309Y-3582380D01*
X184289166Y-3630000D01*
X184384404Y-3725238D01*
X184432023Y-3820476D01*
X184479642Y-4010952D01*
X184479642Y-4153809D01*
X184432023Y-4344285D01*
X184384404Y-4439523D01*
X184289166Y-4534761D01*
X184146309Y-4582380D01*
X183908214Y-4582380D01*
X185384404Y-3582380D02*
X184908214Y-3582380D01*
X184860595Y-4058571D01*
X184908214Y-4010952D01*
X185003452Y-3963333D01*
X185241547Y-3963333D01*
X185336785Y-4010952D01*
X185384404Y-4058571D01*
X185432023Y-4153809D01*
X185432023Y-4391904D01*
X185384404Y-4487142D01*
X185336785Y-4534761D01*
X185241547Y-4582380D01*
X185003452Y-4582380D01*
X184908214Y-4534761D01*
X184860595Y-4487142D01*
X186289166Y-3915714D02*
X186289166Y-4582380D01*
X186051071Y-3534761D02*
X185812976Y-4249047D01*
X186432023Y-4249047D01*
%TO.C,D38*%
X134958214Y-21582380D02*
X134958214Y-20582380D01*
X135196309Y-20582380D01*
X135339166Y-20630000D01*
X135434404Y-20725238D01*
X135482023Y-20820476D01*
X135529642Y-21010952D01*
X135529642Y-21153809D01*
X135482023Y-21344285D01*
X135434404Y-21439523D01*
X135339166Y-21534761D01*
X135196309Y-21582380D01*
X134958214Y-21582380D01*
X135862976Y-20582380D02*
X136482023Y-20582380D01*
X136148690Y-20963333D01*
X136291547Y-20963333D01*
X136386785Y-21010952D01*
X136434404Y-21058571D01*
X136482023Y-21153809D01*
X136482023Y-21391904D01*
X136434404Y-21487142D01*
X136386785Y-21534761D01*
X136291547Y-21582380D01*
X136005833Y-21582380D01*
X135910595Y-21534761D01*
X135862976Y-21487142D01*
X137053452Y-21010952D02*
X136958214Y-20963333D01*
X136910595Y-20915714D01*
X136862976Y-20820476D01*
X136862976Y-20772857D01*
X136910595Y-20677619D01*
X136958214Y-20630000D01*
X137053452Y-20582380D01*
X137243928Y-20582380D01*
X137339166Y-20630000D01*
X137386785Y-20677619D01*
X137434404Y-20772857D01*
X137434404Y-20820476D01*
X137386785Y-20915714D01*
X137339166Y-20963333D01*
X137243928Y-21010952D01*
X137053452Y-21010952D01*
X136958214Y-21058571D01*
X136910595Y-21106190D01*
X136862976Y-21201428D01*
X136862976Y-21391904D01*
X136910595Y-21487142D01*
X136958214Y-21534761D01*
X137053452Y-21582380D01*
X137243928Y-21582380D01*
X137339166Y-21534761D01*
X137386785Y-21487142D01*
X137434404Y-21391904D01*
X137434404Y-21201428D01*
X137386785Y-21106190D01*
X137339166Y-21058571D01*
X137243928Y-21010952D01*
%TO.C,D46*%
X159786729Y-15915712D02*
X159786729Y-14915712D01*
X160024824Y-14915712D01*
X160167681Y-14963332D01*
X160262919Y-15058570D01*
X160310538Y-15153808D01*
X160358157Y-15344284D01*
X160358157Y-15487141D01*
X160310538Y-15677617D01*
X160262919Y-15772855D01*
X160167681Y-15868093D01*
X160024824Y-15915712D01*
X159786729Y-15915712D01*
X161215300Y-15249046D02*
X161215300Y-15915712D01*
X160977205Y-14868093D02*
X160739110Y-15582379D01*
X161358157Y-15582379D01*
X162167681Y-14915712D02*
X161977205Y-14915712D01*
X161881967Y-14963332D01*
X161834348Y-15010951D01*
X161739110Y-15153808D01*
X161691491Y-15344284D01*
X161691491Y-15725236D01*
X161739110Y-15820474D01*
X161786729Y-15868093D01*
X161881967Y-15915712D01*
X162072443Y-15915712D01*
X162167681Y-15868093D01*
X162215300Y-15820474D01*
X162262919Y-15725236D01*
X162262919Y-15487141D01*
X162215300Y-15391903D01*
X162167681Y-15344284D01*
X162072443Y-15296665D01*
X161881967Y-15296665D01*
X161786729Y-15344284D01*
X161739110Y-15391903D01*
X161691491Y-15487141D01*
%TO.C,D27*%
X106983214Y-10249046D02*
X106983214Y-9249046D01*
X107221309Y-9249046D01*
X107364166Y-9296666D01*
X107459404Y-9391904D01*
X107507023Y-9487142D01*
X107554642Y-9677618D01*
X107554642Y-9820475D01*
X107507023Y-10010951D01*
X107459404Y-10106189D01*
X107364166Y-10201427D01*
X107221309Y-10249046D01*
X106983214Y-10249046D01*
X107935595Y-9344285D02*
X107983214Y-9296666D01*
X108078452Y-9249046D01*
X108316547Y-9249046D01*
X108411785Y-9296666D01*
X108459404Y-9344285D01*
X108507023Y-9439523D01*
X108507023Y-9534761D01*
X108459404Y-9677618D01*
X107887976Y-10249046D01*
X108507023Y-10249046D01*
X108840357Y-9249046D02*
X109507023Y-9249046D01*
X109078452Y-10249046D01*
%TO.C,Q1*%
X285827261Y-7177619D02*
X285732023Y-7130000D01*
X285636785Y-7034761D01*
X285493928Y-6891904D01*
X285398690Y-6844285D01*
X285303452Y-6844285D01*
X285351071Y-7082380D02*
X285255833Y-7034761D01*
X285160595Y-6939523D01*
X285112976Y-6749047D01*
X285112976Y-6415714D01*
X285160595Y-6225238D01*
X285255833Y-6130000D01*
X285351071Y-6082380D01*
X285541547Y-6082380D01*
X285636785Y-6130000D01*
X285732023Y-6225238D01*
X285779642Y-6415714D01*
X285779642Y-6749047D01*
X285732023Y-6939523D01*
X285636785Y-7034761D01*
X285541547Y-7082380D01*
X285351071Y-7082380D01*
X286732023Y-7082380D02*
X286160595Y-7082380D01*
X286446309Y-7082380D02*
X286446309Y-6082380D01*
X286351071Y-6225238D01*
X286255833Y-6320476D01*
X286160595Y-6368095D01*
%TO.C,R4*%
X265724880Y-6946666D02*
X265248690Y-7280000D01*
X265724880Y-7518095D02*
X264724880Y-7518095D01*
X264724880Y-7137142D01*
X264772500Y-7041904D01*
X264820119Y-6994285D01*
X264915357Y-6946666D01*
X265058214Y-6946666D01*
X265153452Y-6994285D01*
X265201071Y-7041904D01*
X265248690Y-7137142D01*
X265248690Y-7518095D01*
X265058214Y-6089523D02*
X265724880Y-6089523D01*
X264677261Y-6327619D02*
X265391547Y-6565714D01*
X265391547Y-5946666D01*
%TO.C,D39*%
X144945714Y-4582380D02*
X144945714Y-3582380D01*
X145183809Y-3582380D01*
X145326666Y-3630000D01*
X145421904Y-3725238D01*
X145469523Y-3820476D01*
X145517142Y-4010952D01*
X145517142Y-4153809D01*
X145469523Y-4344285D01*
X145421904Y-4439523D01*
X145326666Y-4534761D01*
X145183809Y-4582380D01*
X144945714Y-4582380D01*
X145850476Y-3582380D02*
X146469523Y-3582380D01*
X146136190Y-3963333D01*
X146279047Y-3963333D01*
X146374285Y-4010952D01*
X146421904Y-4058571D01*
X146469523Y-4153809D01*
X146469523Y-4391904D01*
X146421904Y-4487142D01*
X146374285Y-4534761D01*
X146279047Y-4582380D01*
X145993333Y-4582380D01*
X145898095Y-4534761D01*
X145850476Y-4487142D01*
X146945714Y-4582380D02*
X147136190Y-4582380D01*
X147231428Y-4534761D01*
X147279047Y-4487142D01*
X147374285Y-4344285D01*
X147421904Y-4153809D01*
X147421904Y-3772857D01*
X147374285Y-3677619D01*
X147326666Y-3630000D01*
X147231428Y-3582380D01*
X147040952Y-3582380D01*
X146945714Y-3630000D01*
X146898095Y-3677619D01*
X146850476Y-3772857D01*
X146850476Y-4010952D01*
X146898095Y-4106190D01*
X146945714Y-4153809D01*
X147040952Y-4201428D01*
X147231428Y-4201428D01*
X147326666Y-4153809D01*
X147374285Y-4106190D01*
X147421904Y-4010952D01*
%TO.C,R10*%
X264757142Y-11082380D02*
X264423809Y-10606190D01*
X264185714Y-11082380D02*
X264185714Y-10082380D01*
X264566666Y-10082380D01*
X264661904Y-10130000D01*
X264709523Y-10177619D01*
X264757142Y-10272857D01*
X264757142Y-10415714D01*
X264709523Y-10510952D01*
X264661904Y-10558571D01*
X264566666Y-10606190D01*
X264185714Y-10606190D01*
X265709523Y-11082380D02*
X265138095Y-11082380D01*
X265423809Y-11082380D02*
X265423809Y-10082380D01*
X265328571Y-10225238D01*
X265233333Y-10320476D01*
X265138095Y-10368095D01*
X266328571Y-10082380D02*
X266423809Y-10082380D01*
X266519047Y-10130000D01*
X266566666Y-10177619D01*
X266614285Y-10272857D01*
X266661904Y-10463333D01*
X266661904Y-10701428D01*
X266614285Y-10891904D01*
X266566666Y-10987142D01*
X266519047Y-11034761D01*
X266423809Y-11082380D01*
X266328571Y-11082380D01*
X266233333Y-11034761D01*
X266185714Y-10987142D01*
X266138095Y-10891904D01*
X266090476Y-10701428D01*
X266090476Y-10463333D01*
X266138095Y-10272857D01*
X266185714Y-10177619D01*
X266233333Y-10130000D01*
X266328571Y-10082380D01*
%TO.C,C5*%
X281768333Y-20187142D02*
X281720714Y-20234761D01*
X281577857Y-20282380D01*
X281482619Y-20282380D01*
X281339761Y-20234761D01*
X281244523Y-20139523D01*
X281196904Y-20044285D01*
X281149285Y-19853809D01*
X281149285Y-19710952D01*
X281196904Y-19520476D01*
X281244523Y-19425238D01*
X281339761Y-19330000D01*
X281482619Y-19282380D01*
X281577857Y-19282380D01*
X281720714Y-19330000D01*
X281768333Y-19377619D01*
X282673095Y-19282380D02*
X282196904Y-19282380D01*
X282149285Y-19758571D01*
X282196904Y-19710952D01*
X282292142Y-19663333D01*
X282530238Y-19663333D01*
X282625476Y-19710952D01*
X282673095Y-19758571D01*
X282720714Y-19853809D01*
X282720714Y-20091904D01*
X282673095Y-20187142D01*
X282625476Y-20234761D01*
X282530238Y-20282380D01*
X282292142Y-20282380D01*
X282196904Y-20234761D01*
X282149285Y-20187142D01*
%TO.C,C7*%
X253057142Y-21146666D02*
X253104761Y-21194285D01*
X253152380Y-21337142D01*
X253152380Y-21432380D01*
X253104761Y-21575238D01*
X253009523Y-21670476D01*
X252914285Y-21718095D01*
X252723809Y-21765714D01*
X252580952Y-21765714D01*
X252390476Y-21718095D01*
X252295238Y-21670476D01*
X252200000Y-21575238D01*
X252152380Y-21432380D01*
X252152380Y-21337142D01*
X252200000Y-21194285D01*
X252247619Y-21146666D01*
X252152380Y-20813333D02*
X252152380Y-20146666D01*
X253152380Y-20575238D01*
%TO.C,D17*%
X29058214Y-10249046D02*
X29058214Y-9249046D01*
X29296309Y-9249046D01*
X29439166Y-9296666D01*
X29534404Y-9391904D01*
X29582023Y-9487142D01*
X29629642Y-9677618D01*
X29629642Y-9820475D01*
X29582023Y-10010951D01*
X29534404Y-10106189D01*
X29439166Y-10201427D01*
X29296309Y-10249046D01*
X29058214Y-10249046D01*
X30582023Y-10249046D02*
X30010595Y-10249046D01*
X30296309Y-10249046D02*
X30296309Y-9249046D01*
X30201071Y-9391904D01*
X30105833Y-9487142D01*
X30010595Y-9534761D01*
X30915357Y-9249046D02*
X31582023Y-9249046D01*
X31153452Y-10249046D01*
%TO.C,D36*%
X132958214Y-10249046D02*
X132958214Y-9249046D01*
X133196309Y-9249046D01*
X133339166Y-9296666D01*
X133434404Y-9391904D01*
X133482023Y-9487142D01*
X133529642Y-9677618D01*
X133529642Y-9820475D01*
X133482023Y-10010951D01*
X133434404Y-10106189D01*
X133339166Y-10201427D01*
X133196309Y-10249046D01*
X132958214Y-10249046D01*
X133862976Y-9249046D02*
X134482023Y-9249046D01*
X134148690Y-9629999D01*
X134291547Y-9629999D01*
X134386785Y-9677618D01*
X134434404Y-9725237D01*
X134482023Y-9820475D01*
X134482023Y-10058570D01*
X134434404Y-10153808D01*
X134386785Y-10201427D01*
X134291547Y-10249046D01*
X134005833Y-10249046D01*
X133910595Y-10201427D01*
X133862976Y-10153808D01*
X135339166Y-9249046D02*
X135148690Y-9249046D01*
X135053452Y-9296666D01*
X135005833Y-9344285D01*
X134910595Y-9487142D01*
X134862976Y-9677618D01*
X134862976Y-10058570D01*
X134910595Y-10153808D01*
X134958214Y-10201427D01*
X135053452Y-10249046D01*
X135243928Y-10249046D01*
X135339166Y-10201427D01*
X135386785Y-10153808D01*
X135434404Y-10058570D01*
X135434404Y-9820475D01*
X135386785Y-9725237D01*
X135339166Y-9677618D01*
X135243928Y-9629999D01*
X135053452Y-9629999D01*
X134958214Y-9677618D01*
X134910595Y-9725237D01*
X134862976Y-9820475D01*
%TO.C,D41*%
X146799815Y-15915712D02*
X146799815Y-14915712D01*
X147037910Y-14915712D01*
X147180767Y-14963332D01*
X147276005Y-15058570D01*
X147323624Y-15153808D01*
X147371243Y-15344284D01*
X147371243Y-15487141D01*
X147323624Y-15677617D01*
X147276005Y-15772855D01*
X147180767Y-15868093D01*
X147037910Y-15915712D01*
X146799815Y-15915712D01*
X148228386Y-15249046D02*
X148228386Y-15915712D01*
X147990291Y-14868093D02*
X147752196Y-15582379D01*
X148371243Y-15582379D01*
X149276005Y-15915712D02*
X148704577Y-15915712D01*
X148990291Y-15915712D02*
X148990291Y-14915712D01*
X148895053Y-15058570D01*
X148799815Y-15153808D01*
X148704577Y-15201427D01*
%TO.C,C2*%
X280310000Y-3497857D02*
X280274285Y-3533571D01*
X280167142Y-3569285D01*
X280095714Y-3569285D01*
X279988571Y-3533571D01*
X279917142Y-3462142D01*
X279881428Y-3390714D01*
X279845714Y-3247857D01*
X279845714Y-3140714D01*
X279881428Y-2997857D01*
X279917142Y-2926428D01*
X279988571Y-2855000D01*
X280095714Y-2819285D01*
X280167142Y-2819285D01*
X280274285Y-2855000D01*
X280310000Y-2890714D01*
X280595714Y-2890714D02*
X280631428Y-2855000D01*
X280702857Y-2819285D01*
X280881428Y-2819285D01*
X280952857Y-2855000D01*
X280988571Y-2890714D01*
X281024285Y-2962142D01*
X281024285Y-3033571D01*
X280988571Y-3140714D01*
X280560000Y-3569285D01*
X281024285Y-3569285D01*
%TO.C,D16*%
X70020714Y-21582380D02*
X70020714Y-20582380D01*
X70258809Y-20582380D01*
X70401666Y-20630000D01*
X70496904Y-20725238D01*
X70544523Y-20820476D01*
X70592142Y-21010952D01*
X70592142Y-21153809D01*
X70544523Y-21344285D01*
X70496904Y-21439523D01*
X70401666Y-21534761D01*
X70258809Y-21582380D01*
X70020714Y-21582380D01*
X71544523Y-21582380D02*
X70973095Y-21582380D01*
X71258809Y-21582380D02*
X71258809Y-20582380D01*
X71163571Y-20725238D01*
X71068333Y-20820476D01*
X70973095Y-20868095D01*
X72401666Y-20582380D02*
X72211190Y-20582380D01*
X72115952Y-20630000D01*
X72068333Y-20677619D01*
X71973095Y-20820476D01*
X71925476Y-21010952D01*
X71925476Y-21391904D01*
X71973095Y-21487142D01*
X72020714Y-21534761D01*
X72115952Y-21582380D01*
X72306428Y-21582380D01*
X72401666Y-21534761D01*
X72449285Y-21487142D01*
X72496904Y-21391904D01*
X72496904Y-21153809D01*
X72449285Y-21058571D01*
X72401666Y-21010952D01*
X72306428Y-20963333D01*
X72115952Y-20963333D01*
X72020714Y-21010952D01*
X71973095Y-21058571D01*
X71925476Y-21153809D01*
%TO.C,D9*%
X54509404Y-4582380D02*
X54509404Y-3582380D01*
X54747500Y-3582380D01*
X54890357Y-3630000D01*
X54985595Y-3725238D01*
X55033214Y-3820476D01*
X55080833Y-4010952D01*
X55080833Y-4153809D01*
X55033214Y-4344285D01*
X54985595Y-4439523D01*
X54890357Y-4534761D01*
X54747500Y-4582380D01*
X54509404Y-4582380D01*
X55557023Y-4582380D02*
X55747500Y-4582380D01*
X55842738Y-4534761D01*
X55890357Y-4487142D01*
X55985595Y-4344285D01*
X56033214Y-4153809D01*
X56033214Y-3772857D01*
X55985595Y-3677619D01*
X55937976Y-3630000D01*
X55842738Y-3582380D01*
X55652261Y-3582380D01*
X55557023Y-3630000D01*
X55509404Y-3677619D01*
X55461785Y-3772857D01*
X55461785Y-4010952D01*
X55509404Y-4106190D01*
X55557023Y-4153809D01*
X55652261Y-4201428D01*
X55842738Y-4201428D01*
X55937976Y-4153809D01*
X55985595Y-4106190D01*
X56033214Y-4010952D01*
%TO.C,D65*%
X212883214Y-21582380D02*
X212883214Y-20582380D01*
X213121309Y-20582380D01*
X213264166Y-20630000D01*
X213359404Y-20725238D01*
X213407023Y-20820476D01*
X213454642Y-21010952D01*
X213454642Y-21153809D01*
X213407023Y-21344285D01*
X213359404Y-21439523D01*
X213264166Y-21534761D01*
X213121309Y-21582380D01*
X212883214Y-21582380D01*
X214311785Y-20582380D02*
X214121309Y-20582380D01*
X214026071Y-20630000D01*
X213978452Y-20677619D01*
X213883214Y-20820476D01*
X213835595Y-21010952D01*
X213835595Y-21391904D01*
X213883214Y-21487142D01*
X213930833Y-21534761D01*
X214026071Y-21582380D01*
X214216547Y-21582380D01*
X214311785Y-21534761D01*
X214359404Y-21487142D01*
X214407023Y-21391904D01*
X214407023Y-21153809D01*
X214359404Y-21058571D01*
X214311785Y-21010952D01*
X214216547Y-20963333D01*
X214026071Y-20963333D01*
X213930833Y-21010952D01*
X213883214Y-21058571D01*
X213835595Y-21153809D01*
X215311785Y-20582380D02*
X214835595Y-20582380D01*
X214787976Y-21058571D01*
X214835595Y-21010952D01*
X214930833Y-20963333D01*
X215168928Y-20963333D01*
X215264166Y-21010952D01*
X215311785Y-21058571D01*
X215359404Y-21153809D01*
X215359404Y-21391904D01*
X215311785Y-21487142D01*
X215264166Y-21534761D01*
X215168928Y-21582380D01*
X214930833Y-21582380D01*
X214835595Y-21534761D01*
X214787976Y-21487142D01*
%TO.C,D5*%
X42521904Y-10249046D02*
X42521904Y-9249046D01*
X42760000Y-9249046D01*
X42902857Y-9296666D01*
X42998095Y-9391904D01*
X43045714Y-9487142D01*
X43093333Y-9677618D01*
X43093333Y-9820475D01*
X43045714Y-10010951D01*
X42998095Y-10106189D01*
X42902857Y-10201427D01*
X42760000Y-10249046D01*
X42521904Y-10249046D01*
X43998095Y-9249046D02*
X43521904Y-9249046D01*
X43474285Y-9725237D01*
X43521904Y-9677618D01*
X43617142Y-9629999D01*
X43855238Y-9629999D01*
X43950476Y-9677618D01*
X43998095Y-9725237D01*
X44045714Y-9820475D01*
X44045714Y-10058570D01*
X43998095Y-10153808D01*
X43950476Y-10201427D01*
X43855238Y-10249046D01*
X43617142Y-10249046D01*
X43521904Y-10201427D01*
X43474285Y-10153808D01*
%TO.C,D70*%
X225870714Y-21582380D02*
X225870714Y-20582380D01*
X226108809Y-20582380D01*
X226251666Y-20630000D01*
X226346904Y-20725238D01*
X226394523Y-20820476D01*
X226442142Y-21010952D01*
X226442142Y-21153809D01*
X226394523Y-21344285D01*
X226346904Y-21439523D01*
X226251666Y-21534761D01*
X226108809Y-21582380D01*
X225870714Y-21582380D01*
X226775476Y-20582380D02*
X227442142Y-20582380D01*
X227013571Y-21582380D01*
X228013571Y-20582380D02*
X228108809Y-20582380D01*
X228204047Y-20630000D01*
X228251666Y-20677619D01*
X228299285Y-20772857D01*
X228346904Y-20963333D01*
X228346904Y-21201428D01*
X228299285Y-21391904D01*
X228251666Y-21487142D01*
X228204047Y-21534761D01*
X228108809Y-21582380D01*
X228013571Y-21582380D01*
X227918333Y-21534761D01*
X227870714Y-21487142D01*
X227823095Y-21391904D01*
X227775476Y-21201428D01*
X227775476Y-20963333D01*
X227823095Y-20772857D01*
X227870714Y-20677619D01*
X227918333Y-20630000D01*
X228013571Y-20582380D01*
%TO.C,R2*%
X264733333Y-14132380D02*
X264400000Y-13656190D01*
X264161904Y-14132380D02*
X264161904Y-13132380D01*
X264542857Y-13132380D01*
X264638095Y-13180000D01*
X264685714Y-13227619D01*
X264733333Y-13322857D01*
X264733333Y-13465714D01*
X264685714Y-13560952D01*
X264638095Y-13608571D01*
X264542857Y-13656190D01*
X264161904Y-13656190D01*
X265114285Y-13227619D02*
X265161904Y-13180000D01*
X265257142Y-13132380D01*
X265495238Y-13132380D01*
X265590476Y-13180000D01*
X265638095Y-13227619D01*
X265685714Y-13322857D01*
X265685714Y-13418095D01*
X265638095Y-13560952D01*
X265066666Y-14132380D01*
X265685714Y-14132380D01*
%TO.C,D34*%
X121970714Y-21582380D02*
X121970714Y-20582380D01*
X122208809Y-20582380D01*
X122351666Y-20630000D01*
X122446904Y-20725238D01*
X122494523Y-20820476D01*
X122542142Y-21010952D01*
X122542142Y-21153809D01*
X122494523Y-21344285D01*
X122446904Y-21439523D01*
X122351666Y-21534761D01*
X122208809Y-21582380D01*
X121970714Y-21582380D01*
X122875476Y-20582380D02*
X123494523Y-20582380D01*
X123161190Y-20963333D01*
X123304047Y-20963333D01*
X123399285Y-21010952D01*
X123446904Y-21058571D01*
X123494523Y-21153809D01*
X123494523Y-21391904D01*
X123446904Y-21487142D01*
X123399285Y-21534761D01*
X123304047Y-21582380D01*
X123018333Y-21582380D01*
X122923095Y-21534761D01*
X122875476Y-21487142D01*
X124351666Y-20915714D02*
X124351666Y-21582380D01*
X124113571Y-20534761D02*
X123875476Y-21249047D01*
X124494523Y-21249047D01*
%TO.C,D66*%
X238108214Y-17332380D02*
X238108214Y-16332380D01*
X238346309Y-16332380D01*
X238489166Y-16380000D01*
X238584404Y-16475238D01*
X238632023Y-16570476D01*
X238679642Y-16760952D01*
X238679642Y-16903809D01*
X238632023Y-17094285D01*
X238584404Y-17189523D01*
X238489166Y-17284761D01*
X238346309Y-17332380D01*
X238108214Y-17332380D01*
X239536785Y-16332380D02*
X239346309Y-16332380D01*
X239251071Y-16380000D01*
X239203452Y-16427619D01*
X239108214Y-16570476D01*
X239060595Y-16760952D01*
X239060595Y-17141904D01*
X239108214Y-17237142D01*
X239155833Y-17284761D01*
X239251071Y-17332380D01*
X239441547Y-17332380D01*
X239536785Y-17284761D01*
X239584404Y-17237142D01*
X239632023Y-17141904D01*
X239632023Y-16903809D01*
X239584404Y-16808571D01*
X239536785Y-16760952D01*
X239441547Y-16713333D01*
X239251071Y-16713333D01*
X239155833Y-16760952D01*
X239108214Y-16808571D01*
X239060595Y-16903809D01*
X240489166Y-16332380D02*
X240298690Y-16332380D01*
X240203452Y-16380000D01*
X240155833Y-16427619D01*
X240060595Y-16570476D01*
X240012976Y-16760952D01*
X240012976Y-17141904D01*
X240060595Y-17237142D01*
X240108214Y-17284761D01*
X240203452Y-17332380D01*
X240393928Y-17332380D01*
X240489166Y-17284761D01*
X240536785Y-17237142D01*
X240584404Y-17141904D01*
X240584404Y-16903809D01*
X240536785Y-16808571D01*
X240489166Y-16760952D01*
X240393928Y-16713333D01*
X240203452Y-16713333D01*
X240108214Y-16760952D01*
X240060595Y-16808571D01*
X240012976Y-16903809D01*
D17*
%TO.C,D59*%
X201360000Y-8796666D02*
X201360000Y-6796666D01*
X201360000Y-6796666D02*
X197460000Y-6796666D01*
X201360000Y-8796666D02*
X197460000Y-8796666D01*
%TO.C,D33*%
X124290273Y-14463332D02*
X120390273Y-14463332D01*
X124290273Y-14463332D02*
X124290273Y-12463332D01*
X124290273Y-12463332D02*
X120390273Y-12463332D01*
%TO.C,R7*%
X262162742Y-17152500D02*
X262637258Y-17152500D01*
X262162742Y-16107500D02*
X262637258Y-16107500D01*
%TO.C,R11*%
X282672258Y-4207500D02*
X282197742Y-4207500D01*
X282672258Y-5252500D02*
X282197742Y-5252500D01*
%TO.C,R1*%
X262637258Y-15652500D02*
X262162742Y-15652500D01*
X262637258Y-14607500D02*
X262162742Y-14607500D01*
%TO.C,R8*%
X268775242Y-17670000D02*
X269249758Y-17670000D01*
X268775242Y-18715000D02*
X269249758Y-18715000D01*
%TO.C,U4*%
X269975000Y-7230000D02*
X269975000Y-6430000D01*
X273095000Y-7230000D02*
X273095000Y-8030000D01*
X269975000Y-7230000D02*
X269975000Y-8030000D01*
X273095000Y-7230000D02*
X273095000Y-5430000D01*
%TO.C,D8*%
X60497500Y-18130000D02*
X56597500Y-18130000D01*
X60497500Y-20130000D02*
X60497500Y-18130000D01*
X60497500Y-20130000D02*
X56597500Y-20130000D01*
%TO.C,TP2*%
X261435000Y-7530000D02*
X260035000Y-7530000D01*
X260035000Y-6130000D02*
X261435000Y-6130000D01*
X261435000Y-6130000D02*
X261435000Y-7530000D01*
X260035000Y-7530000D02*
X260035000Y-6130000D01*
%TO.C,C4*%
X266722500Y-15451920D02*
X266722500Y-15733080D01*
X265702500Y-15451920D02*
X265702500Y-15733080D01*
%TO.C,D55*%
X188372500Y-6796666D02*
X184472500Y-6796666D01*
X188372500Y-8796666D02*
X188372500Y-6796666D01*
X188372500Y-8796666D02*
X184472500Y-8796666D01*
%TO.C,D47*%
X164397500Y-20130000D02*
X164397500Y-18130000D01*
X164397500Y-20130000D02*
X160497500Y-20130000D01*
X164397500Y-18130000D02*
X160497500Y-18130000D01*
%TO.C,D61*%
X240822500Y-11630000D02*
X240822500Y-9630000D01*
X240822500Y-11630000D02*
X236922500Y-11630000D01*
X240822500Y-9630000D02*
X236922500Y-9630000D01*
%TO.C,D71*%
X242322500Y-18130000D02*
X238422500Y-18130000D01*
X242322500Y-20130000D02*
X238422500Y-20130000D01*
X242322500Y-20130000D02*
X242322500Y-18130000D01*
%TO.C,D37*%
X137277187Y-14463332D02*
X133377187Y-14463332D01*
X137277187Y-14463332D02*
X137277187Y-12463332D01*
X137277187Y-12463332D02*
X133377187Y-12463332D01*
%TO.C,D57*%
X190372500Y-20130000D02*
X190372500Y-18130000D01*
X190372500Y-18130000D02*
X186472500Y-18130000D01*
X190372500Y-20130000D02*
X186472500Y-20130000D01*
%TO.C,D4*%
X44510000Y-3130000D02*
X44510000Y-1130000D01*
X44510000Y-3130000D02*
X40610000Y-3130000D01*
X44510000Y-1130000D02*
X40610000Y-1130000D01*
D18*
%TO.C,Y1*%
X252208000Y-16262000D02*
X251192000Y-16262000D01*
X251192000Y-14738000D02*
X252208000Y-14738000D01*
D17*
%TO.C,D23*%
X97460000Y-6796666D02*
X93560000Y-6796666D01*
X97460000Y-8796666D02*
X93560000Y-8796666D01*
X97460000Y-8796666D02*
X97460000Y-6796666D01*
%TO.C,C3*%
X259575580Y-14920000D02*
X259294420Y-14920000D01*
X259575580Y-15940000D02*
X259294420Y-15940000D01*
%TO.C,D1*%
X268685000Y-4065000D02*
X268685000Y-2595000D01*
X268685000Y-2595000D02*
X266400000Y-2595000D01*
X266400000Y-4065000D02*
X268685000Y-4065000D01*
%TO.C,D68*%
X227335000Y-8796666D02*
X223435000Y-8796666D01*
X227335000Y-8796666D02*
X227335000Y-6796666D01*
X227335000Y-6796666D02*
X223435000Y-6796666D01*
%TO.C,D42*%
X151410000Y-20130000D02*
X147510000Y-20130000D01*
X151410000Y-18130000D02*
X147510000Y-18130000D01*
X151410000Y-20130000D02*
X151410000Y-18130000D01*
%TO.C,D31*%
X122435000Y-1130000D02*
X118535000Y-1130000D01*
X122435000Y-3130000D02*
X118535000Y-3130000D01*
X122435000Y-3130000D02*
X122435000Y-1130000D01*
%TO.C,D26*%
X109447500Y-3130000D02*
X109447500Y-1130000D01*
X109447500Y-1130000D02*
X105547500Y-1130000D01*
X109447500Y-3130000D02*
X105547500Y-3130000D01*
%TO.C,D40*%
X149410000Y-8796666D02*
X145510000Y-8796666D01*
X149410000Y-8796666D02*
X149410000Y-6796666D01*
X149410000Y-6796666D02*
X145510000Y-6796666D01*
%TO.C,U2*%
X280995000Y-17067500D02*
X280995000Y-17867500D01*
X280995000Y-17067500D02*
X280995000Y-15267500D01*
X277875000Y-17067500D02*
X277875000Y-17867500D01*
X277875000Y-17067500D02*
X277875000Y-16267500D01*
%TO.C,U1*%
X269112500Y-17240000D02*
X268312500Y-17240000D01*
X269112500Y-14120000D02*
X269912500Y-14120000D01*
X269112500Y-14120000D02*
X268312500Y-14120000D01*
X269112500Y-17240000D02*
X270912500Y-17240000D01*
%TO.C,TP3*%
X260035000Y-4130000D02*
X261435000Y-4130000D01*
X261435000Y-5530000D02*
X260035000Y-5530000D01*
X261435000Y-4130000D02*
X261435000Y-5530000D01*
X260035000Y-5530000D02*
X260035000Y-4130000D01*
%TO.C,D24*%
X98316445Y-14463332D02*
X94416445Y-14463332D01*
X98316445Y-14463332D02*
X98316445Y-12463332D01*
X98316445Y-12463332D02*
X94416445Y-12463332D01*
%TO.C,D35*%
X135422500Y-1130000D02*
X131522500Y-1130000D01*
X135422500Y-3130000D02*
X131522500Y-3130000D01*
X135422500Y-3130000D02*
X135422500Y-1130000D01*
%TO.C,U3*%
X249150000Y-12250000D02*
X249150000Y-13350000D01*
X259850000Y2350000D02*
X259850000Y1250000D01*
X259850000Y-12250000D02*
X259850000Y-13350000D01*
X249150000Y2350000D02*
X249150000Y-2300000D01*
X250250000Y2350000D02*
X249150000Y2350000D01*
X258750000Y2350000D02*
X259850000Y2350000D01*
X248900000Y-1200000D02*
X248900000Y-2300000D01*
X249150000Y-13350000D02*
X250250000Y-13350000D01*
X259850000Y-13350000D02*
X258750000Y-13350000D01*
%TO.C,D3*%
X270572500Y-10857500D02*
X268287500Y-10857500D01*
X270572500Y-12327500D02*
X270572500Y-10857500D01*
X268287500Y-12327500D02*
X270572500Y-12327500D01*
%TO.C,D45*%
X162397500Y-8796666D02*
X162397500Y-6796666D01*
X162397500Y-8796666D02*
X158497500Y-8796666D01*
X162397500Y-6796666D02*
X158497500Y-6796666D01*
%TO.C,D30*%
X33381875Y-14463332D02*
X33381875Y-12463332D01*
X33381875Y-12463332D02*
X29481875Y-12463332D01*
X33381875Y-14463332D02*
X29481875Y-14463332D01*
%TO.C,R9*%
X262637258Y-11607500D02*
X262162742Y-11607500D01*
X262637258Y-12652500D02*
X262162742Y-12652500D01*
D18*
%TO.C,J2*%
X276950000Y-9830000D02*
X276950000Y-10330000D01*
X276950000Y-13830000D02*
X279163000Y-13830000D01*
X276950000Y-9830000D02*
X279297000Y-9830000D01*
X281200000Y-12597000D02*
X281200000Y-11108000D01*
X276950000Y-13830000D02*
X276950000Y-13330000D01*
D17*
%TO.C,D18*%
X83472500Y-1130000D02*
X79572500Y-1130000D01*
X83472500Y-3130000D02*
X79572500Y-3130000D01*
X83472500Y-3130000D02*
X83472500Y-1130000D01*
%TO.C,D48*%
X239322500Y-3130000D02*
X235422500Y-3130000D01*
X239322500Y-1130000D02*
X235422500Y-1130000D01*
X239322500Y-3130000D02*
X239322500Y-1130000D01*
%TO.C,D14*%
X71485000Y-6796666D02*
X67585000Y-6796666D01*
X71485000Y-8796666D02*
X67585000Y-8796666D01*
X71485000Y-8796666D02*
X71485000Y-6796666D01*
%TO.C,D43*%
X34522500Y-20130000D02*
X34522500Y-18130000D01*
X34522500Y-18130000D02*
X30622500Y-18130000D01*
X34522500Y-20130000D02*
X30622500Y-20130000D01*
%TO.C,D53*%
X240072500Y-7380000D02*
X236172500Y-7380000D01*
X240072500Y-7380000D02*
X240072500Y-5380000D01*
X240072500Y-5380000D02*
X236172500Y-5380000D01*
%TO.C,D28*%
X111303359Y-14463332D02*
X111303359Y-12463332D01*
X111303359Y-12463332D02*
X107403359Y-12463332D01*
X111303359Y-14463332D02*
X107403359Y-14463332D01*
%TO.C,D2*%
X277500000Y-6980000D02*
X277500000Y-8680000D01*
X277500000Y-8680000D02*
X280050000Y-8680000D01*
X277500000Y-6980000D02*
X280050000Y-6980000D01*
%TO.C,D25*%
X99460000Y-20130000D02*
X95560000Y-20130000D01*
X99460000Y-18130000D02*
X95560000Y-18130000D01*
X99460000Y-20130000D02*
X99460000Y-18130000D01*
%TO.C,D44*%
X161397500Y-3130000D02*
X161397500Y-1130000D01*
X161397500Y-1130000D02*
X157497500Y-1130000D01*
X161397500Y-3130000D02*
X157497500Y-3130000D01*
%TO.C,R5*%
X267437258Y-4507500D02*
X266962742Y-4507500D01*
X267437258Y-5552500D02*
X266962742Y-5552500D01*
%TO.C,D49*%
X174385000Y-1130000D02*
X170485000Y-1130000D01*
X174385000Y-3130000D02*
X174385000Y-1130000D01*
X174385000Y-3130000D02*
X170485000Y-3130000D01*
%TO.C,D22*%
X96460000Y-3130000D02*
X92560000Y-3130000D01*
X96460000Y-1130000D02*
X92560000Y-1130000D01*
X96460000Y-3130000D02*
X96460000Y-1130000D01*
%TO.C,D69*%
X228185585Y-14463332D02*
X228185585Y-12463332D01*
X228185585Y-14463332D02*
X224285585Y-14463332D01*
X228185585Y-12463332D02*
X224285585Y-12463332D01*
%TO.C,J1*%
X279414456Y4102542D02*
X270014456Y4102542D01*
X279414456Y-1697458D02*
X279414456Y302542D01*
X279414456Y2202542D02*
X279414456Y4102542D01*
X270014456Y-1697458D02*
X270014456Y302542D01*
X270014456Y2202542D02*
X270014456Y4102542D01*
%TO.C,D56*%
X189224843Y-14463332D02*
X189224843Y-12463332D01*
X189224843Y-14463332D02*
X185324843Y-14463332D01*
X189224843Y-12463332D02*
X185324843Y-12463332D01*
%TO.C,R6*%
X269324758Y-13715000D02*
X268850242Y-13715000D01*
X269324758Y-12670000D02*
X268850242Y-12670000D01*
D18*
%TO.C,BATT1*%
X282766000Y-380000D02*
X282776000Y-380000D01*
D17*
%TO.C,D29*%
X112447500Y-20130000D02*
X108547500Y-20130000D01*
X112447500Y-20130000D02*
X112447500Y-18130000D01*
X112447500Y-18130000D02*
X108547500Y-18130000D01*
%TO.C,D11*%
X59355703Y-14463332D02*
X59355703Y-12463332D01*
X59355703Y-12463332D02*
X55455703Y-12463332D01*
X59355703Y-14463332D02*
X55455703Y-14463332D01*
%TO.C,D72*%
X201860000Y-14463332D02*
X201860000Y-12463332D01*
X201860000Y-12463332D02*
X197960000Y-12463332D01*
X201860000Y-14463332D02*
X197960000Y-14463332D01*
%TO.C,C6*%
X251210000Y-18640580D02*
X251210000Y-18359420D01*
X250190000Y-18640580D02*
X250190000Y-18359420D01*
%TO.C,D60*%
X203360000Y-20130000D02*
X203360000Y-18130000D01*
X203360000Y-18130000D02*
X199460000Y-18130000D01*
X203360000Y-20130000D02*
X199460000Y-20130000D01*
%TO.C,D19*%
X84472500Y-8796666D02*
X80572500Y-8796666D01*
X84472500Y-6796666D02*
X80572500Y-6796666D01*
X84472500Y-8796666D02*
X84472500Y-6796666D01*
%TO.C,D62*%
X213347500Y-3130000D02*
X213347500Y-1130000D01*
X213347500Y-3130000D02*
X209447500Y-3130000D01*
X213347500Y-1130000D02*
X209447500Y-1130000D01*
%TO.C,D6*%
X46368789Y-14463332D02*
X46368789Y-12463332D01*
X46368789Y-12463332D02*
X42468789Y-12463332D01*
X46368789Y-14463332D02*
X42468789Y-14463332D01*
%TO.C,D52*%
X177385000Y-18130000D02*
X173485000Y-18130000D01*
X177385000Y-20130000D02*
X173485000Y-20130000D01*
X177385000Y-20130000D02*
X177385000Y-18130000D01*
%TO.C,D7*%
X47510000Y-18130000D02*
X43610000Y-18130000D01*
X47510000Y-20130000D02*
X43610000Y-20130000D01*
X47510000Y-20130000D02*
X47510000Y-18130000D01*
%TO.C,D63*%
X214347500Y-8796666D02*
X210447500Y-8796666D01*
X214347500Y-6796666D02*
X210447500Y-6796666D01*
X214347500Y-8796666D02*
X214347500Y-6796666D01*
%TO.C,D51*%
X176237929Y-12463332D02*
X172337929Y-12463332D01*
X176237929Y-14463332D02*
X176237929Y-12463332D01*
X176237929Y-14463332D02*
X172337929Y-14463332D01*
%TO.C,D67*%
X226335000Y-1130000D02*
X222435000Y-1130000D01*
X226335000Y-3130000D02*
X226335000Y-1130000D01*
X226335000Y-3130000D02*
X222435000Y-3130000D01*
%TO.C,D64*%
X215198671Y-12463332D02*
X211298671Y-12463332D01*
X215198671Y-14463332D02*
X215198671Y-12463332D01*
X215198671Y-14463332D02*
X211298671Y-14463332D01*
%TO.C,R3*%
X278697742Y-5507500D02*
X279172258Y-5507500D01*
X278697742Y-6552500D02*
X279172258Y-6552500D01*
%TO.C,D20*%
X85329531Y-14463332D02*
X81429531Y-14463332D01*
X85329531Y-14463332D02*
X85329531Y-12463332D01*
X85329531Y-12463332D02*
X81429531Y-12463332D01*
%TO.C,D12*%
X31522500Y-3130000D02*
X27622500Y-3130000D01*
X31522500Y-3130000D02*
X31522500Y-1130000D01*
X31522500Y-1130000D02*
X27622500Y-1130000D01*
%TO.C,C1*%
X255694420Y-15915000D02*
X255975580Y-15915000D01*
X255694420Y-14895000D02*
X255975580Y-14895000D01*
%TO.C,D21*%
X86472500Y-18130000D02*
X82572500Y-18130000D01*
X86472500Y-20130000D02*
X86472500Y-18130000D01*
X86472500Y-20130000D02*
X82572500Y-20130000D01*
%TO.C,D15*%
X72342617Y-14463332D02*
X72342617Y-12463332D01*
X72342617Y-12463332D02*
X68442617Y-12463332D01*
X72342617Y-14463332D02*
X68442617Y-14463332D01*
%TO.C,D58*%
X200360000Y-1130000D02*
X196460000Y-1130000D01*
X200360000Y-3130000D02*
X196460000Y-3130000D01*
X200360000Y-3130000D02*
X200360000Y-1130000D01*
%TO.C,D10*%
X58497500Y-6796666D02*
X54597500Y-6796666D01*
X58497500Y-8796666D02*
X58497500Y-6796666D01*
X58497500Y-8796666D02*
X54597500Y-8796666D01*
%TO.C,D13*%
X70485000Y-1130000D02*
X66585000Y-1130000D01*
X70485000Y-3130000D02*
X70485000Y-1130000D01*
X70485000Y-3130000D02*
X66585000Y-3130000D01*
%TO.C,D50*%
X175385000Y-6796666D02*
X171485000Y-6796666D01*
X175385000Y-8796666D02*
X171485000Y-8796666D01*
X175385000Y-8796666D02*
X175385000Y-6796666D01*
%TO.C,D32*%
X123435000Y-8796666D02*
X119535000Y-8796666D01*
X123435000Y-8796666D02*
X123435000Y-6796666D01*
X123435000Y-6796666D02*
X119535000Y-6796666D01*
%TO.C,D54*%
X187372500Y-3130000D02*
X187372500Y-1130000D01*
X187372500Y-1130000D02*
X183472500Y-1130000D01*
X187372500Y-3130000D02*
X183472500Y-3130000D01*
%TO.C,D38*%
X138422500Y-18130000D02*
X134522500Y-18130000D01*
X138422500Y-20130000D02*
X134522500Y-20130000D01*
X138422500Y-20130000D02*
X138422500Y-18130000D01*
%TO.C,D46*%
X163251015Y-14463332D02*
X163251015Y-12463332D01*
X163251015Y-14463332D02*
X159351015Y-14463332D01*
X163251015Y-12463332D02*
X159351015Y-12463332D01*
%TO.C,D27*%
X110447500Y-6796666D02*
X106547500Y-6796666D01*
X110447500Y-8796666D02*
X110447500Y-6796666D01*
X110447500Y-8796666D02*
X106547500Y-8796666D01*
%TO.C,Q1*%
X283795000Y-8810000D02*
X282335000Y-8810000D01*
X283795000Y-8810000D02*
X283795000Y-7880000D01*
X283795000Y-5650000D02*
X281635000Y-5650000D01*
X283795000Y-5650000D02*
X283795000Y-6580000D01*
%TO.C,R4*%
X267437258Y-6207500D02*
X266962742Y-6207500D01*
X267437258Y-7252500D02*
X266962742Y-7252500D01*
%TO.C,D39*%
X148410000Y-3130000D02*
X148410000Y-1130000D01*
X148410000Y-3130000D02*
X144510000Y-3130000D01*
X148410000Y-1130000D02*
X144510000Y-1130000D01*
%TO.C,R10*%
X262637258Y-11152500D02*
X262162742Y-11152500D01*
X262637258Y-10107500D02*
X262162742Y-10107500D01*
%TO.C,C5*%
X282445000Y-17170580D02*
X282445000Y-16889420D01*
X281425000Y-17170580D02*
X281425000Y-16889420D01*
%TO.C,C7*%
X252190000Y-18640580D02*
X252190000Y-18359420D01*
X253210000Y-18640580D02*
X253210000Y-18359420D01*
%TO.C,D17*%
X32522500Y-8796666D02*
X32522500Y-6796666D01*
X32522500Y-8796666D02*
X28622500Y-8796666D01*
X32522500Y-6796666D02*
X28622500Y-6796666D01*
%TO.C,D36*%
X136422500Y-6796666D02*
X132522500Y-6796666D01*
X136422500Y-8796666D02*
X136422500Y-6796666D01*
X136422500Y-8796666D02*
X132522500Y-8796666D01*
%TO.C,D41*%
X150264101Y-12463332D02*
X146364101Y-12463332D01*
X150264101Y-14463332D02*
X150264101Y-12463332D01*
X150264101Y-14463332D02*
X146364101Y-14463332D01*
%TO.C,C2*%
X282575580Y-3740000D02*
X282294420Y-3740000D01*
X282575580Y-2720000D02*
X282294420Y-2720000D01*
%TO.C,D16*%
X73485000Y-18130000D02*
X69585000Y-18130000D01*
X73485000Y-20130000D02*
X69585000Y-20130000D01*
X73485000Y-20130000D02*
X73485000Y-18130000D01*
%TO.C,RESET1*%
X268600000Y-1680000D02*
X268600000Y1620000D01*
X268600000Y1620000D02*
X268300000Y1620000D01*
X268300000Y-1680000D02*
X268600000Y-1680000D01*
X265800000Y-1680000D02*
X265800000Y1620000D01*
X265800000Y1620000D02*
X266100000Y1620000D01*
X266100000Y-1680000D02*
X265800000Y-1680000D01*
%TO.C,SWD/C1*%
X264530000Y-4860000D02*
X261870000Y-4860000D01*
X264530000Y-6130000D02*
X264530000Y-7460000D01*
X264530000Y2820000D02*
X261870000Y2820000D01*
X261870000Y-4860000D02*
X261870000Y2820000D01*
X264530000Y-4860000D02*
X264530000Y2820000D01*
X264530000Y-7460000D02*
X263200000Y-7460000D01*
%TO.C,D9*%
X57497500Y-1130000D02*
X53597500Y-1130000D01*
X57497500Y-3130000D02*
X57497500Y-1130000D01*
X57497500Y-3130000D02*
X53597500Y-3130000D01*
%TO.C,TP1*%
X260035000Y-9530000D02*
X260035000Y-8130000D01*
X260035000Y-8130000D02*
X261435000Y-8130000D01*
X261435000Y-8130000D02*
X261435000Y-9530000D01*
X261435000Y-9530000D02*
X260035000Y-9530000D01*
%TO.C,D65*%
X216347500Y-20130000D02*
X216347500Y-18130000D01*
X216347500Y-18130000D02*
X212447500Y-18130000D01*
X216347500Y-20130000D02*
X212447500Y-20130000D01*
%TO.C,D5*%
X45510000Y-8796666D02*
X41610000Y-8796666D01*
X45510000Y-6796666D02*
X41610000Y-6796666D01*
X45510000Y-8796666D02*
X45510000Y-6796666D01*
%TO.C,D70*%
X229335000Y-18130000D02*
X225435000Y-18130000D01*
X229335000Y-20130000D02*
X225435000Y-20130000D01*
X229335000Y-20130000D02*
X229335000Y-18130000D01*
%TO.C,R2*%
X262162742Y-14152500D02*
X262637258Y-14152500D01*
X262162742Y-13107500D02*
X262637258Y-13107500D01*
%TO.C,D34*%
X125435000Y-20130000D02*
X121535000Y-20130000D01*
X125435000Y-20130000D02*
X125435000Y-18130000D01*
X125435000Y-18130000D02*
X121535000Y-18130000D01*
%TO.C,D66*%
X241572500Y-15880000D02*
X237672500Y-15880000D01*
X241572500Y-13880000D02*
X237672500Y-13880000D01*
X241572500Y-15880000D02*
X241572500Y-13880000D01*
%TD*%
M02*
