M48
; DRILL file {KiCad (5.99.0-8557-g8988e46ab1)} date Saturday, March 06, 2021 at 06:48:07 AM
; FORMAT={-:-/ absolute / inch / decimal}
; #@! TF.CreationDate,2021-03-06T06:48:07-07:00
; #@! TF.GenerationSoftware,Kicad,Pcbnew,(5.99.0-8557-g8988e46ab1)
; #@! TF.FileFunction,Plated,1,2,PTH
FMAT,2
INCH
T1C0.0118
T2C0.0157
T3C0.0236
T4C0.0394
T5C0.0591
%
G90
G05
T1
X1.2637Y-1.5125
X1.4055Y-0.0839
X1.4252Y-0.3201
X1.4512Y-3.0125
X1.4512Y-3.7625
X1.4512Y-4.5125
X1.4646Y-0.5563
X1.5039Y-0.7925
X1.937Y-0.0839
X1.9764Y-0.3201
X2.0137Y-1.5125
X2.0137Y-1.6062
X2.0157Y-0.5563
X2.0157Y-1.4618
X2.0551Y-0.7925
X2.2012Y-4.5125
X2.3887Y-2.2625
X2.4094Y-0.0839
X2.4488Y-0.3201
X2.4882Y-0.5563
X2.5276Y-0.7925
X2.5762Y-3.0125
X2.7637Y-1.5125
X2.9213Y-0.0839
X2.9512Y-3.7625
X2.9606Y-0.3201
X3.0Y-0.5563
X3.0394Y-0.7925
X3.1387Y-2.2625
X3.3262Y-3.0125
X3.3262Y-4.5125
X3.4331Y-0.0839
X3.4724Y-0.3201
X3.5118Y-0.5563
X3.5137Y-1.5125
X3.5512Y-0.7925
X3.7012Y-3.7625
X3.8887Y-2.2625
X3.9449Y-0.0839
X3.9843Y-0.3201
X4.0236Y-0.5563
X4.063Y-0.7925
X4.0762Y-3.0125
X4.2637Y-1.5125
X4.4512Y-3.7625
X4.4567Y-0.0839
X4.4961Y-0.3201
X4.5354Y-0.5563
X4.5748Y-0.7925
X4.6387Y-2.2625
X4.8262Y-3.0125
X4.9685Y-0.0839
X5.0079Y-0.3201
X5.0137Y-1.5125
X5.0472Y-0.5563
X5.0866Y-0.7925
X5.2012Y-3.7625
X5.3887Y-2.2625
X5.5197Y-0.1626
X5.5197Y-0.3201
X5.5591Y-0.5563
X5.5762Y-3.0125
X5.5984Y-0.7925
X5.7637Y-1.5125
X5.9512Y-3.7625
X5.9921Y-0.0839
X6.0315Y-0.3201
X6.0709Y-0.5563
X6.1102Y-0.7925
X6.1387Y-2.2625
X6.3262Y-3.0125
X6.5039Y-0.0839
X6.5137Y-1.5125
X6.5433Y-0.3201
X6.5827Y-0.5563
X6.622Y-0.7925
X6.7012Y-3.7625
X6.8887Y-2.2625
X7.0157Y-0.0839
X7.0551Y-0.3201
X7.0762Y-3.0125
X7.0945Y-0.5563
X7.1339Y-0.7925
X7.2612Y-1.2039
X7.2637Y-1.6062
X7.4512Y-3.7625
X7.5276Y-0.0839
X7.5669Y-0.3201
X7.6063Y-0.5563
X7.6387Y-2.2625
X7.6457Y-0.7925
X7.8262Y-3.0125
X8.0053Y-1.2039
X8.0137Y-1.5125
X8.0394Y-0.0839
X8.0787Y-0.3201
X8.1181Y-0.5563
X8.1575Y-0.7925
X8.2012Y-3.7625
X8.3887Y-2.2625
X8.5512Y-0.0839
X8.5762Y-3.0125
X8.5906Y-0.3201
X8.6299Y-0.5563
X8.6693Y-0.7925
X8.7573Y-1.2079
X8.8872Y-0.0223
X8.9512Y-3.7625
X9.063Y-0.0839
X9.1024Y-0.3201
X9.1387Y-2.2625
X9.1417Y-0.5563
X9.1811Y-0.7925
X9.3262Y-3.0125
X9.3985Y-0.2217
X9.5093Y-1.2039
X9.5407Y-0.2138
X9.5827Y-0.2256
X9.6589Y-0.2335
X9.6614Y-0.3043
X9.6654Y-0.3634
X9.7012Y-3.7625
X9.71Y-0.4028
X9.7258Y-0.076
X9.7533Y-0.4539
X9.7573Y-0.5169
X9.7573Y-0.5445
X9.7612Y-0.0878
X9.7848Y-0.4894
X9.7848Y-0.5169
X9.7848Y-0.5445
X9.7927Y-0.076
X9.8754Y-0.072
X9.8887Y-2.2625
X9.8911Y-0.0957
X9.9094Y-0.2335
X9.9094Y-0.2728
X9.9094Y-0.3083
X9.9094Y-0.3437
X9.9094Y-0.3791
X9.9331Y-0.198
X9.962Y-0.2965
X9.962Y-0.3358
X9.962Y-0.3673
X9.9685Y-0.198
X10.0Y-0.4303
X10.0039Y-0.198
X10.0053Y-0.2965
X10.0053Y-0.3358
X10.0053Y-0.3673
X10.0354Y-0.4303
X10.0354Y-0.6921
X10.0394Y-0.198
X10.0526Y-0.3004
X10.0526Y-0.3358
X10.0526Y-0.3673
X10.0709Y-0.4303
X10.0748Y-0.198
X10.0762Y-3.0125
X10.0919Y-0.3004
X10.0919Y-0.3358
X10.0919Y-0.3673
X10.1378Y-0.3476
X10.1386Y-0.4114
X10.1929Y-0.8063
X10.2297Y-0.076
X10.2494Y-0.4894
X10.2533Y-1.2039
X10.2559Y-0.5307
X10.2612Y-0.0799
X10.3976Y-0.6291
X10.4055Y-0.5307
X10.4094Y-0.5839
X10.4488Y-0.7
X10.4764Y-0.0327
X10.6077Y-0.1705
X10.6387Y-2.2625
X10.6904Y-0.2807
X10.8262Y-3.0125
X11.0171Y-0.1744
X11.0526Y-0.2531
X11.1904Y-0.1311
X11.1904Y-0.1862
X11.3887Y-1.5125
X11.622Y-0.0839
X11.622Y-0.3594
X11.622Y-0.635
X11.7637Y-3.7625
X12.0394Y-1.0425
X12.3701Y-0.0839
X12.3701Y-0.3201
X12.3701Y-0.635
X12.4463Y-1.0583
X12.5137Y-1.5125
X12.5137Y-2.2625
X12.5137Y-3.0125
X12.5137Y-3.7625
T2
X1.3336Y-0.828
X1.7706Y-0.2453
X1.8021Y-0.4697
X1.8493Y-0.6941
X2.1457Y-3.5236
X2.2784Y-0.2453
X2.3139Y-0.4697
X2.3572Y-0.824
X2.7942Y-0.2453
X2.8218Y-0.4697
X2.869Y-0.6941
X3.306Y-0.2453
X3.3375Y-0.4697
X3.3847Y-0.6941
X3.8178Y-0.2453
X3.8493Y-0.4697
X3.8926Y-0.6941
X4.3218Y-0.2453
X4.3611Y-0.4697
X4.4044Y-0.6941
X4.8336Y-0.2453
X4.8651Y-0.4697
X4.9123Y-0.6941
X5.3532Y-0.2453
X5.3808Y-0.4697
X5.4281Y-0.6941
X5.8611Y-0.2453
X5.8926Y-0.4697
X5.932Y-0.6941
X6.3729Y-0.2453
X6.4044Y-0.4697
X6.4477Y-0.6941
X6.8808Y-0.2453
X6.9162Y-0.4697
X6.9635Y-0.6941
X7.1614Y-1.5189
X7.3926Y-0.2453
X7.4281Y-0.4697
X7.4674Y-0.6941
X7.9084Y-0.2453
X7.9213Y-1.5118
X7.9232Y-0.4671
X7.9822Y-0.6941
X8.4162Y-0.2453
X8.4517Y-0.4697
X8.491Y-0.6941
X8.7126Y-1.5976
X8.9281Y-0.2453
X8.9595Y-0.4697
X9.0068Y-0.6862
X9.4409Y-1.5858
X9.4882Y-0.6724
X10.1496Y-1.5157
X11.3242Y-0.1075
T4
X10.3622Y0.0587
X10.3622Y-0.0413
X10.3622Y-0.2413
X10.8465Y-0.3476
X10.8465Y-0.5839
T5
X1.1137Y-1.225
X1.2074Y-2.725
X1.2074Y-4.225
X1.3012Y-1.975
X1.3012Y-4.225
X1.3637Y-1.125
X1.3949Y-2.725
X1.4574Y-2.625
X1.4574Y-4.125
X1.5512Y-1.875
X1.5512Y-4.125
X1.5824Y-3.475
X1.6449Y-2.625
X1.8324Y-3.375
X1.8637Y-1.225
X2.1137Y-1.125
X2.1449Y-4.225
X2.2387Y-1.975
X2.3949Y-4.125
X2.4262Y-2.725
X2.4262Y-4.225
X2.4887Y-1.875
X2.6137Y-1.225
X2.6762Y-2.625
X2.6762Y-4.125
X2.8012Y-3.475
X2.8637Y-1.125
X2.9887Y-1.975
X3.0512Y-3.375
X3.0824Y-4.225
X3.1762Y-2.725
X3.2387Y-1.875
X3.3324Y-4.125
X3.3637Y-1.225
X3.4262Y-2.625
X3.5512Y-3.475
X3.6137Y-1.125
X3.7387Y-1.975
X3.8012Y-3.375
X3.9262Y-2.725
X3.9887Y-1.875
X4.1137Y-1.225
X4.1762Y-2.625
X4.3012Y-3.475
X4.3637Y-1.125
X4.4887Y-1.975
X4.5512Y-3.375
X4.6762Y-2.725
X4.7387Y-1.875
X4.8637Y-1.225
X4.9262Y-2.625
X5.0512Y-3.475
X5.1137Y-1.125
X5.2387Y-1.975
X5.3012Y-3.375
X5.4262Y-2.725
X5.4887Y-1.875
X5.6137Y-1.225
X5.6637Y-4.525
X5.6762Y-2.625
X5.8012Y-3.475
X5.8637Y-1.125
X5.9137Y-4.425
X5.9449Y-4.525
X5.9887Y-1.975
X6.0512Y-3.375
X6.1762Y-2.725
X6.1949Y-4.425
X6.2387Y-1.875
X6.3637Y-1.225
X6.4262Y-2.625
X6.5512Y-3.475
X6.6137Y-1.125
X6.7387Y-1.975
X6.8012Y-3.375
X6.9262Y-2.725
X6.9887Y-1.875
X7.1137Y-1.225
X7.1762Y-2.625
X7.3012Y-3.475
X7.3637Y-1.125
X7.4887Y-1.975
X7.5512Y-3.375
X7.6762Y-2.725
X7.7387Y-1.875
X7.8637Y-1.225
X7.9262Y-2.625
X8.0512Y-3.475
X8.1137Y-1.125
X8.2387Y-1.975
X8.3012Y-3.375
X8.4262Y-2.725
X8.4887Y-1.875
X8.6137Y-1.225
X8.6137Y-4.225
X8.6762Y-2.625
X8.8012Y-3.475
X8.8012Y-4.225
X8.8637Y-1.125
X8.8637Y-4.125
X8.9887Y-1.975
X9.0512Y-3.375
X9.0512Y-4.125
X9.1762Y-2.725
X9.2387Y-1.875
X9.3637Y-1.225
X9.3637Y-4.225
X9.4262Y-2.625
X9.5512Y-3.475
X9.6137Y-1.125
X9.6137Y-4.125
X9.7387Y-1.975
X9.8012Y-3.375
X9.9262Y-2.725
X9.9262Y-4.225
X9.9887Y-1.875
X10.1137Y-1.225
X10.1137Y-4.225
X10.1762Y-2.625
X10.1762Y-4.125
X10.3637Y-1.125
X10.3637Y-4.125
X10.4887Y-1.975
X10.5824Y-3.475
X10.6742Y-2.725
X10.7387Y-1.875
X10.8324Y-3.375
X10.8637Y-4.225
X10.9242Y-2.625
X11.1137Y-4.125
X11.1949Y-3.025
X11.2387Y-1.225
X11.4262Y-1.975
X11.4449Y-2.925
X11.4887Y-1.125
X11.6137Y-3.475
X11.6137Y-4.225
X11.6762Y-1.875
X11.7699Y-2.3
X11.8637Y-3.375
X11.8637Y-4.125
X11.8699Y-2.55
X12.3637Y-1.225
X12.3637Y-1.975
X12.3637Y-2.725
X12.3637Y-3.475
X12.3637Y-4.225
X12.6137Y-1.125
X12.6137Y-1.875
X12.6137Y-2.625
X12.6137Y-3.375
X12.6137Y-4.125
T3
G00X10.6455Y0.0375
M15
G01X10.6455Y0.0611
M16
G05
G00X10.6455Y-0.1369
M15
G01X10.6455Y-0.0936
M16
G05
G00X10.9856Y0.0375
M15
G01X10.9856Y0.0611
M16
G05
G00X10.9856Y-0.1369
M15
G01X10.9856Y-0.0936
M16
G05
T0
M30
