%TF.GenerationSoftware,KiCad,Pcbnew,(5.99.0-8557-g8988e46ab1)*%
%TF.CreationDate,2021-03-07T20:49:41-07:00*%
%TF.ProjectId,SF65,53463635-2e6b-4696-9361-645f70636258,rev?*%
%TF.SameCoordinates,Original*%
%TF.FileFunction,Soldermask,Bot*%
%TF.FilePolarity,Negative*%
%FSLAX46Y46*%
G04 Gerber Fmt 4.6, Leading zero omitted, Abs format (unit mm)*
G04 Created by KiCad (PCBNEW (5.99.0-8557-g8988e46ab1)) date 2021-03-07 20:49:41*
%MOMM*%
%LPD*%
G01*
G04 APERTURE LIST*
%ADD10C,1.700000*%
%ADD11C,4.000000*%
%ADD12C,2.200000*%
%ADD13C,4.300000*%
%ADD14C,1.524000*%
%ADD15C,3.050000*%
%ADD16R,1.700000X1.700000*%
%ADD17O,1.700000X1.700000*%
%ADD18C,0.650000*%
%ADD19O,1.000000X2.100000*%
%ADD20O,1.000000X1.600000*%
%ADD21C,0.900000*%
%ADD22C,3.048000*%
%ADD23C,3.987800*%
G04 APERTURE END LIST*
D10*
%TO.C,SW55*%
X222280000Y-90805000D03*
X232440000Y-90805000D03*
D11*
X227360000Y-90805000D03*
D12*
X229900000Y-85725000D03*
X223550000Y-88265000D03*
%TD*%
D13*
%TO.C,H10*%
X46322500Y-100180000D03*
%TD*%
D10*
%TO.C,SW19*%
X103852500Y-52705000D03*
D11*
X98772500Y-52705000D03*
D10*
X93692500Y-52705000D03*
D12*
X101312500Y-47625000D03*
X94962500Y-50165000D03*
%TD*%
D10*
%TO.C,SW17*%
X60355000Y-109855000D03*
X70515000Y-109855000D03*
D11*
X65435000Y-109855000D03*
D12*
X67975000Y-104775000D03*
X61625000Y-107315000D03*
%TD*%
D10*
%TO.C,SW8*%
X46067500Y-33655000D03*
X56227500Y-33655000D03*
D11*
X51147500Y-33655000D03*
D12*
X53687500Y-28575000D03*
X47337500Y-31115000D03*
%TD*%
D11*
%TO.C,SW44*%
X222597500Y-109855000D03*
D10*
X217517500Y-109855000D03*
X227677500Y-109855000D03*
D12*
X225137500Y-104775000D03*
X218787500Y-107315000D03*
%TD*%
D10*
%TO.C,SW46*%
X198467500Y-33655000D03*
D11*
X203547500Y-33655000D03*
D10*
X208627500Y-33655000D03*
D12*
X206087500Y-28575000D03*
X199737500Y-31115000D03*
%TD*%
D10*
%TO.C,SW1*%
X39558750Y-71755000D03*
D14*
X34478750Y-71755000D03*
D10*
X29398750Y-71755000D03*
D12*
X37018750Y-66675000D03*
X30668750Y-69215000D03*
%TD*%
D10*
%TO.C,SW35*%
X156240000Y-90805000D03*
X146080000Y-90805000D03*
D11*
X151160000Y-90805000D03*
D12*
X153700000Y-85725000D03*
X147350000Y-88265000D03*
%TD*%
D10*
%TO.C,SW5*%
X38923750Y-90805000D03*
D11*
X55903750Y-99045000D03*
D10*
X49083750Y-90805000D03*
D11*
X44003750Y-90805000D03*
D15*
X32103750Y-83805000D03*
D11*
X32103750Y-99045000D03*
D15*
X55903750Y-83805000D03*
D12*
X46543750Y-85725000D03*
X40193750Y-88265000D03*
%TD*%
D10*
%TO.C,SW60*%
X241330000Y-90805000D03*
D11*
X246410000Y-90805000D03*
D10*
X251490000Y-90805000D03*
D12*
X248950000Y-85725000D03*
X242600000Y-88265000D03*
%TD*%
D10*
%TO.C,SW47*%
X218152500Y-52705000D03*
X207992500Y-52705000D03*
D11*
X213072500Y-52705000D03*
D12*
X215612500Y-47625000D03*
X209262500Y-50165000D03*
%TD*%
D10*
%TO.C,SW40*%
X189577500Y-33655000D03*
D11*
X184497500Y-33655000D03*
D10*
X179417500Y-33655000D03*
D12*
X187037500Y-28575000D03*
X180687500Y-31115000D03*
%TD*%
D11*
%TO.C,SW34*%
X160685000Y-71755000D03*
D10*
X155605000Y-71755000D03*
X165765000Y-71755000D03*
D12*
X163225000Y-66675000D03*
X156875000Y-69215000D03*
%TD*%
%TO.C,H2*%
X325172500Y-22030000D03*
%TD*%
D10*
%TO.C,SW43*%
X184180000Y-90805000D03*
X194340000Y-90805000D03*
D11*
X189260000Y-90805000D03*
D12*
X191800000Y-85725000D03*
X185450000Y-88265000D03*
%TD*%
D11*
%TO.C,SW53*%
X232122500Y-52705000D03*
D10*
X227042500Y-52705000D03*
X237202500Y-52705000D03*
D12*
X234662500Y-47625000D03*
X228312500Y-50165000D03*
%TD*%
D11*
%TO.C,SW12*%
X70197500Y-33655000D03*
D10*
X65117500Y-33655000D03*
X75277500Y-33655000D03*
D12*
X72737500Y-28575000D03*
X66387500Y-31115000D03*
%TD*%
D10*
%TO.C,SW75*%
X312767500Y-90805000D03*
X322927500Y-90805000D03*
D11*
X317847500Y-90805000D03*
D12*
X320387500Y-85725000D03*
X314037500Y-88265000D03*
%TD*%
D10*
%TO.C,SW52*%
X217517500Y-33655000D03*
D11*
X222597500Y-33655000D03*
D10*
X227677500Y-33655000D03*
D12*
X225137500Y-28575000D03*
X218787500Y-31115000D03*
%TD*%
D10*
%TO.C,SW42*%
X193705000Y-71755000D03*
X203865000Y-71755000D03*
D11*
X198785000Y-71755000D03*
D12*
X201325000Y-66675000D03*
X194975000Y-69215000D03*
%TD*%
D11*
%TO.C,SW73*%
X317847500Y-52705000D03*
D10*
X312767500Y-52705000D03*
X322927500Y-52705000D03*
D12*
X320387500Y-47625000D03*
X314037500Y-50165000D03*
%TD*%
D16*
%TO.C,J3*%
X275500000Y-14830000D03*
D17*
X275500000Y-8830000D03*
%TD*%
D10*
%TO.C,SW69*%
X293717500Y-90805000D03*
D11*
X298797500Y-90805000D03*
D10*
X303877500Y-90805000D03*
D12*
X301337500Y-85725000D03*
X294987500Y-88265000D03*
%TD*%
D10*
%TO.C,SW20*%
X98455000Y-71755000D03*
D11*
X103535000Y-71755000D03*
D10*
X108615000Y-71755000D03*
D12*
X106075000Y-66675000D03*
X99725000Y-69215000D03*
%TD*%
D11*
%TO.C,SW63*%
X272603750Y-90805000D03*
D10*
X277683750Y-90805000D03*
X267523750Y-90805000D03*
D12*
X275143750Y-85725000D03*
X268793750Y-88265000D03*
%TD*%
%TO.C,H5*%
X24572500Y70000D03*
%TD*%
D13*
%TO.C,H6*%
X41322500Y-43180000D03*
%TD*%
D12*
%TO.C,H4*%
X24572500Y-22130000D03*
%TD*%
D13*
%TO.C,H11*%
X179735000Y-100330000D03*
%TD*%
D11*
%TO.C,SW3*%
X36860000Y-52705000D03*
D10*
X41940000Y-52705000D03*
X31780000Y-52705000D03*
D12*
X39400000Y-47625000D03*
X33050000Y-50165000D03*
%TD*%
D10*
%TO.C,SW30*%
X148461250Y-109855000D03*
D11*
X153541250Y-109855000D03*
X103541250Y-101615000D03*
D10*
X158621250Y-109855000D03*
D15*
X203541250Y-116855000D03*
X103541250Y-116855000D03*
D11*
X203541250Y-101615000D03*
D12*
X151001250Y-114935000D03*
X157351250Y-112395000D03*
%TD*%
D18*
%TO.C,J1*%
X277604456Y-2397458D03*
X271824456Y-2397458D03*
D19*
X270394456Y-2927458D03*
D20*
X270394456Y1252542D03*
D19*
X279034456Y-2927458D03*
D20*
X279034456Y1252542D03*
%TD*%
D11*
%TO.C,SW23*%
X117822500Y-52705000D03*
D10*
X112742500Y-52705000D03*
X122902500Y-52705000D03*
D12*
X120362500Y-47625000D03*
X114012500Y-50165000D03*
%TD*%
D10*
%TO.C,SW51*%
X250855000Y-109855000D03*
D11*
X255935000Y-109855000D03*
D10*
X261015000Y-109855000D03*
D12*
X258475000Y-104775000D03*
X252125000Y-107315000D03*
%TD*%
D21*
%TO.C,BATT1*%
X284035000Y1120000D03*
X287035000Y1120000D03*
%TD*%
D10*
%TO.C,SW64*%
X274667500Y-109855000D03*
D11*
X279747500Y-109855000D03*
D10*
X284827500Y-109855000D03*
D12*
X282287500Y-104775000D03*
X275937500Y-107315000D03*
%TD*%
D10*
%TO.C,SW28*%
X146715000Y-71755000D03*
D11*
X141635000Y-71755000D03*
D10*
X136555000Y-71755000D03*
D12*
X144175000Y-66675000D03*
X137825000Y-69215000D03*
%TD*%
D22*
%TO.C,SW31*%
X203547500Y-116840000D03*
D10*
X141317500Y-109855000D03*
D23*
X89247500Y-101600000D03*
D14*
X146397500Y-109855000D03*
D10*
X151477500Y-109855000D03*
D22*
X89247500Y-116840000D03*
D23*
X203547500Y-101600000D03*
D12*
X143857500Y-114935000D03*
X150207500Y-112395000D03*
%TD*%
D10*
%TO.C,SW24*%
X127665000Y-71755000D03*
X117505000Y-71755000D03*
D11*
X122585000Y-71755000D03*
D12*
X125125000Y-66675000D03*
X118775000Y-69215000D03*
%TD*%
D11*
%TO.C,SW18*%
X89247500Y-33655000D03*
D10*
X84167500Y-33655000D03*
X94327500Y-33655000D03*
D12*
X91787500Y-28575000D03*
X85437500Y-31115000D03*
%TD*%
D13*
%TO.C,H1*%
X174972500Y-43180000D03*
%TD*%
D10*
%TO.C,SW76*%
X322927500Y-109855000D03*
D11*
X317847500Y-109855000D03*
D10*
X312767500Y-109855000D03*
D12*
X320387500Y-104775000D03*
X314037500Y-107315000D03*
%TD*%
D10*
%TO.C,SW39*%
X165130000Y-90805000D03*
X175290000Y-90805000D03*
D11*
X170210000Y-90805000D03*
D12*
X172750000Y-85725000D03*
X166400000Y-88265000D03*
%TD*%
D10*
%TO.C,SW59*%
X261015000Y-71755000D03*
D11*
X255935000Y-71755000D03*
D10*
X250855000Y-71755000D03*
D12*
X258475000Y-66675000D03*
X252125000Y-69215000D03*
%TD*%
D10*
%TO.C,SW13*%
X84802500Y-52705000D03*
X74642500Y-52705000D03*
D11*
X79722500Y-52705000D03*
D12*
X82262500Y-47625000D03*
X75912500Y-50165000D03*
%TD*%
D11*
%TO.C,SW6*%
X34478750Y-109855000D03*
D10*
X29398750Y-109855000D03*
X39558750Y-109855000D03*
D12*
X37018750Y-104775000D03*
X30668750Y-107315000D03*
%TD*%
D10*
%TO.C,SW77*%
X269855000Y-71755000D03*
X280015000Y-71755000D03*
D11*
X274935000Y-71755000D03*
D12*
X277475000Y-66675000D03*
X271125000Y-69215000D03*
%TD*%
D10*
%TO.C,SW9*%
X55592500Y-52705000D03*
D11*
X60672500Y-52705000D03*
D10*
X65752500Y-52705000D03*
D12*
X63212500Y-47625000D03*
X56862500Y-50165000D03*
%TD*%
D11*
%TO.C,SW22*%
X108297500Y-33655000D03*
D10*
X103217500Y-33655000D03*
X113377500Y-33655000D03*
D12*
X110837500Y-28575000D03*
X104487500Y-31115000D03*
%TD*%
D11*
%TO.C,SW2*%
X32097500Y-33655000D03*
D10*
X27017500Y-33655000D03*
X37177500Y-33655000D03*
D12*
X34637500Y-28575000D03*
X28287500Y-31115000D03*
%TD*%
D10*
%TO.C,SW41*%
X188942500Y-52705000D03*
X199102500Y-52705000D03*
D11*
X194022500Y-52705000D03*
D12*
X196562500Y-47625000D03*
X190212500Y-50165000D03*
%TD*%
D10*
%TO.C,SW36*%
X170527500Y-33655000D03*
X160367500Y-33655000D03*
D11*
X165447500Y-33655000D03*
D12*
X167987500Y-28575000D03*
X161637500Y-31115000D03*
%TD*%
D10*
%TO.C,SW26*%
X122267500Y-33655000D03*
X132427500Y-33655000D03*
D11*
X127347500Y-33655000D03*
D12*
X129887500Y-28575000D03*
X123537500Y-31115000D03*
%TD*%
D11*
%TO.C,SW14*%
X84485000Y-71755000D03*
D10*
X89565000Y-71755000D03*
X79405000Y-71755000D03*
D12*
X87025000Y-66675000D03*
X80675000Y-69215000D03*
%TD*%
D10*
%TO.C,SW68*%
X291971250Y-71755000D03*
D15*
X274991250Y-78755000D03*
D11*
X286891250Y-71755000D03*
D10*
X281811250Y-71755000D03*
D11*
X298791250Y-63515000D03*
X274991250Y-63515000D03*
D15*
X298791250Y-78755000D03*
D12*
X284351250Y-76835000D03*
X290701250Y-74295000D03*
%TD*%
D10*
%TO.C,SW15*%
X69880000Y-90805000D03*
X80040000Y-90805000D03*
D11*
X74960000Y-90805000D03*
D12*
X77500000Y-85725000D03*
X71150000Y-88265000D03*
%TD*%
%TO.C,H7*%
X139572500Y70000D03*
%TD*%
D11*
%TO.C,SW71*%
X288146250Y-50330000D03*
D22*
X303386250Y-74130000D03*
D10*
X296416250Y-67310000D03*
D11*
X296416250Y-62230000D03*
D10*
X296416250Y-57150000D03*
D22*
X303386250Y-50330000D03*
D11*
X288146250Y-74130000D03*
D12*
X301496250Y-64770000D03*
X298956250Y-58420000D03*
%TD*%
D13*
%TO.C,H8*%
X308322500Y-100180000D03*
%TD*%
D12*
%TO.C,H3*%
X325172500Y470000D03*
%TD*%
D10*
%TO.C,SW16*%
X77023750Y-109855000D03*
X87183750Y-109855000D03*
D11*
X82103750Y-109855000D03*
D12*
X84643750Y-104775000D03*
X78293750Y-107315000D03*
%TD*%
D11*
%TO.C,SW61*%
X260697500Y-33655000D03*
D10*
X265777500Y-33655000D03*
X255617500Y-33655000D03*
D12*
X263237500Y-28575000D03*
X256887500Y-31115000D03*
%TD*%
D11*
%TO.C,SW27*%
X136872500Y-52705000D03*
D10*
X141952500Y-52705000D03*
X131792500Y-52705000D03*
D12*
X139412500Y-47625000D03*
X133062500Y-50165000D03*
%TD*%
D11*
%TO.C,SW67*%
X294035000Y-52705000D03*
D10*
X299115000Y-52705000D03*
X288955000Y-52705000D03*
D12*
X296575000Y-47625000D03*
X290225000Y-50165000D03*
%TD*%
D11*
%TO.C,SW11*%
X58291250Y-109855000D03*
D10*
X63371250Y-109855000D03*
X53211250Y-109855000D03*
D12*
X60831250Y-104775000D03*
X54481250Y-107315000D03*
%TD*%
D10*
%TO.C,SW58*%
X246092500Y-52705000D03*
D11*
X251172500Y-52705000D03*
D10*
X256252500Y-52705000D03*
D12*
X253712500Y-47625000D03*
X247362500Y-50165000D03*
%TD*%
D10*
%TO.C,SW7*%
X31780000Y-109855000D03*
X41940000Y-109855000D03*
D11*
X36860000Y-109855000D03*
D12*
X39400000Y-104775000D03*
X33050000Y-107315000D03*
%TD*%
D10*
%TO.C,SW32*%
X151477500Y-33655000D03*
D11*
X146397500Y-33655000D03*
D10*
X141317500Y-33655000D03*
D12*
X148937500Y-28575000D03*
X142587500Y-31115000D03*
%TD*%
D10*
%TO.C,SW37*%
X180052500Y-52705000D03*
D11*
X174972500Y-52705000D03*
D10*
X169892500Y-52705000D03*
D12*
X177512500Y-47625000D03*
X171162500Y-50165000D03*
%TD*%
D10*
%TO.C,SW56*%
X255617500Y-109855000D03*
X265777500Y-109855000D03*
D11*
X260697500Y-109855000D03*
D12*
X263237500Y-104775000D03*
X256887500Y-107315000D03*
%TD*%
D10*
%TO.C,SW57*%
X246727500Y-33655000D03*
X236567500Y-33655000D03*
D11*
X241647500Y-33655000D03*
D12*
X244187500Y-28575000D03*
X237837500Y-31115000D03*
%TD*%
D11*
%TO.C,SW50*%
X241647500Y-109855000D03*
D10*
X246727500Y-109855000D03*
X236567500Y-109855000D03*
D12*
X244187500Y-104775000D03*
X237837500Y-107315000D03*
%TD*%
D10*
%TO.C,SW21*%
X88930000Y-90805000D03*
D11*
X94010000Y-90805000D03*
D10*
X99090000Y-90805000D03*
D12*
X96550000Y-85725000D03*
X90200000Y-88265000D03*
%TD*%
D10*
%TO.C,SW62*%
X275302500Y-52705000D03*
X265142500Y-52705000D03*
D11*
X270222500Y-52705000D03*
D12*
X272762500Y-47625000D03*
X266412500Y-50165000D03*
%TD*%
D10*
%TO.C,SW29*%
X127030000Y-90805000D03*
D11*
X132110000Y-90805000D03*
D10*
X137190000Y-90805000D03*
D12*
X134650000Y-85725000D03*
X128300000Y-88265000D03*
%TD*%
D13*
%TO.C,H9*%
X308322500Y-43280000D03*
%TD*%
D10*
%TO.C,SW38*%
X174655000Y-71755000D03*
X184815000Y-71755000D03*
D11*
X179735000Y-71755000D03*
D12*
X182275000Y-66675000D03*
X175925000Y-69215000D03*
%TD*%
D11*
%TO.C,SW48*%
X217835000Y-71755000D03*
D10*
X212755000Y-71755000D03*
X222915000Y-71755000D03*
D12*
X220375000Y-66675000D03*
X214025000Y-69215000D03*
%TD*%
D10*
%TO.C,SW33*%
X161002500Y-52705000D03*
X150842500Y-52705000D03*
D11*
X155922500Y-52705000D03*
D12*
X158462500Y-47625000D03*
X152112500Y-50165000D03*
%TD*%
D11*
%TO.C,SW49*%
X208310000Y-90805000D03*
D10*
X203230000Y-90805000D03*
X213390000Y-90805000D03*
D12*
X210850000Y-85725000D03*
X204500000Y-88265000D03*
%TD*%
D11*
%TO.C,SW72*%
X317847500Y-33655000D03*
D10*
X312767500Y-33655000D03*
X322927500Y-33655000D03*
D12*
X320387500Y-28575000D03*
X314037500Y-31115000D03*
%TD*%
D11*
%TO.C,SW70*%
X298797500Y-109855000D03*
D10*
X303877500Y-109855000D03*
X293717500Y-109855000D03*
D12*
X301337500Y-104775000D03*
X294987500Y-107315000D03*
%TD*%
D16*
%TO.C,SWD/C1*%
X263200000Y-6130000D03*
D17*
X263200000Y-1050000D03*
X263200000Y1490000D03*
%TD*%
D10*
%TO.C,SW74*%
X312767500Y-71755000D03*
D11*
X317847500Y-71755000D03*
D10*
X322927500Y-71755000D03*
D12*
X320387500Y-66675000D03*
X314037500Y-69215000D03*
%TD*%
D10*
%TO.C,SW45*%
X232440000Y-109855000D03*
D11*
X227360000Y-109855000D03*
D10*
X222280000Y-109855000D03*
D12*
X229900000Y-104775000D03*
X223550000Y-107315000D03*
%TD*%
D10*
%TO.C,SW4*%
X34161250Y-71755000D03*
D11*
X39241250Y-71755000D03*
D10*
X44321250Y-71755000D03*
D12*
X41781250Y-66675000D03*
X35431250Y-69215000D03*
%TD*%
D11*
%TO.C,SW66*%
X277372500Y-41895000D03*
D15*
X301172500Y-26655000D03*
D11*
X289272500Y-33655000D03*
D10*
X294352500Y-33655000D03*
D15*
X277372500Y-26655000D03*
D11*
X301172500Y-41895000D03*
D10*
X284192500Y-33655000D03*
D12*
X291812500Y-28575000D03*
X285462500Y-31115000D03*
%TD*%
D11*
%TO.C,SW10*%
X65435000Y-71755000D03*
D10*
X60355000Y-71755000D03*
X70515000Y-71755000D03*
D12*
X67975000Y-66675000D03*
X61625000Y-69215000D03*
%TD*%
D11*
%TO.C,SW25*%
X113060000Y-90805000D03*
D10*
X118140000Y-90805000D03*
X107980000Y-90805000D03*
D12*
X115600000Y-85725000D03*
X109250000Y-88265000D03*
%TD*%
D10*
%TO.C,SW54*%
X231805000Y-71755000D03*
X241965000Y-71755000D03*
D11*
X236885000Y-71755000D03*
D12*
X239425000Y-66675000D03*
X233075000Y-69215000D03*
%TD*%
G36*
X280847563Y-71576369D02*
G01*
X280848004Y-71577726D01*
X280848091Y-71578135D01*
X280855402Y-71647696D01*
X280876728Y-71686974D01*
X280919171Y-71699546D01*
X280958176Y-71678368D01*
X280964688Y-71662647D01*
X280966275Y-71661429D01*
X280968123Y-71662194D01*
X280968536Y-71663419D01*
X280967907Y-71843638D01*
X280969715Y-71852003D01*
X280969103Y-71853908D01*
X280967149Y-71854330D01*
X280966002Y-71853380D01*
X280949522Y-71823026D01*
X280907079Y-71810454D01*
X280868074Y-71831632D01*
X280855414Y-71862197D01*
X280848091Y-71931865D01*
X280848004Y-71932274D01*
X280846644Y-71936461D01*
X280845158Y-71937799D01*
X280843256Y-71937181D01*
X280842755Y-71935613D01*
X280862979Y-71760813D01*
X280863000Y-71755102D01*
X280843673Y-71577203D01*
X280844480Y-71575373D01*
X280846468Y-71575157D01*
X280847563Y-71576369D01*
G37*
M02*
