M48
; DRILL file {KiCad (5.99.0-8557-g8988e46ab1)} date Saturday, March 06, 2021 at 06:48:07 AM
; FORMAT={-:-/ absolute / inch / decimal}
; #@! TF.CreationDate,2021-03-06T06:48:07-07:00
; #@! TF.GenerationSoftware,Kicad,Pcbnew,(5.99.0-8557-g8988e46ab1)
; #@! TF.FileFunction,NonPlated,1,2,NPTH
FMAT,2
INCH
T1C0.0256
T2C0.0354
T3C0.0669
T4C0.0866
T5C0.1200
T6C0.1201
T7C0.1570
T8C0.1575
T9C0.1693
%
G90
G05
T1
X10.7018Y-0.0944
X10.9293Y-0.0944
T2
X11.1825Y0.0441
X11.3006Y0.0441
T3
X1.0637Y-1.325
X1.1574Y-2.825
X1.1574Y-4.325
X1.2512Y-2.075
X1.2512Y-4.325
X1.3449Y-2.825
X1.4637Y-1.325
X1.5324Y-3.575
X1.5574Y-2.825
X1.5574Y-4.325
X1.6512Y-2.075
X1.6512Y-4.325
X1.7449Y-2.825
X1.8137Y-1.325
X1.9324Y-3.575
X2.0949Y-4.325
X2.1887Y-2.075
X2.2137Y-1.325
X2.3762Y-2.825
X2.3762Y-4.325
X2.4949Y-4.325
X2.5637Y-1.325
X2.5887Y-2.075
X2.7512Y-3.575
X2.7762Y-2.825
X2.7762Y-4.325
X2.9387Y-2.075
X2.9637Y-1.325
X3.0324Y-4.325
X3.1262Y-2.825
X3.1512Y-3.575
X3.3137Y-1.325
X3.3387Y-2.075
X3.4324Y-4.325
X3.5012Y-3.575
X3.5262Y-2.825
X3.6887Y-2.075
X3.7137Y-1.325
X3.8762Y-2.825
X3.9012Y-3.575
X4.0637Y-1.325
X4.0887Y-2.075
X4.2512Y-3.575
X4.2762Y-2.825
X4.4387Y-2.075
X4.4637Y-1.325
X4.6262Y-2.825
X4.6512Y-3.575
X4.8137Y-1.325
X4.8387Y-2.075
X5.0012Y-3.575
X5.0262Y-2.825
X5.1887Y-2.075
X5.2137Y-1.325
X5.3762Y-2.825
X5.4012Y-3.575
X5.5637Y-1.325
X5.5637Y-4.325
X5.5887Y-2.075
X5.7512Y-3.575
X5.7762Y-2.825
X5.8449Y-4.325
X5.9387Y-2.075
X5.9637Y-1.325
X5.9637Y-4.325
X6.1262Y-2.825
X6.1512Y-3.575
X6.2449Y-4.325
X6.3137Y-1.325
X6.3387Y-2.075
X6.5012Y-3.575
X6.5262Y-2.825
X6.6887Y-2.075
X6.7137Y-1.325
X6.8762Y-2.825
X6.9012Y-3.575
X7.0637Y-1.325
X7.0887Y-2.075
X7.2512Y-3.575
X7.2762Y-2.825
X7.4387Y-2.075
X7.4637Y-1.325
X7.6262Y-2.825
X7.6512Y-3.575
X7.8137Y-1.325
X7.8387Y-2.075
X8.0012Y-3.575
X8.0262Y-2.825
X8.1887Y-2.075
X8.2137Y-1.325
X8.3762Y-2.825
X8.4012Y-3.575
X8.5637Y-1.325
X8.5637Y-4.325
X8.5887Y-2.075
X8.7512Y-3.575
X8.7512Y-4.325
X8.7762Y-2.825
X8.9387Y-2.075
X8.9637Y-1.325
X8.9637Y-4.325
X9.1262Y-2.825
X9.1512Y-3.575
X9.1512Y-4.325
X9.3137Y-1.325
X9.3137Y-4.325
X9.3387Y-2.075
X9.5012Y-3.575
X9.5262Y-2.825
X9.6887Y-2.075
X9.7137Y-1.325
X9.7137Y-4.325
X9.8762Y-2.825
X9.8762Y-4.325
X9.9012Y-3.575
X10.0637Y-1.325
X10.0637Y-4.325
X10.0887Y-2.075
X10.2762Y-2.825
X10.2762Y-4.325
X10.4387Y-2.075
X10.4637Y-1.325
X10.4637Y-4.325
X10.5324Y-3.575
X10.6242Y-2.825
X10.8137Y-4.325
X10.8387Y-2.075
X10.9324Y-3.575
X11.0242Y-2.825
X11.0949Y-2.825
X11.1887Y-1.325
X11.2137Y-4.325
X11.3762Y-2.075
X11.4949Y-2.825
X11.5637Y-3.575
X11.5637Y-4.325
X11.5887Y-1.325
X11.6699Y-2.25
X11.6699Y-2.65
X11.7762Y-2.075
X11.9637Y-3.575
X11.9637Y-4.325
X12.3137Y-1.325
X12.3137Y-2.075
X12.3137Y-2.825
X12.3137Y-3.575
X12.3137Y-4.325
X12.7137Y-1.325
X12.7137Y-2.075
X12.7137Y-2.825
X12.7137Y-3.575
X12.7137Y-4.325
T4
X0.9674Y0.0028
X0.9674Y-0.8713
X5.495Y0.0028
X12.8021Y0.0185
X12.8021Y-0.8673
T5
X3.5137Y-4.6
X8.0137Y-4.6
X11.9443Y-1.9815
X11.9443Y-2.9185
T6
X1.2639Y-3.2994
X2.2009Y-3.2994
X4.0764Y-4.6006
X8.0134Y-4.6006
X10.8264Y-3.1006
X10.9202Y-1.0494
X11.7634Y-3.1006
X11.8572Y-1.0494
T7
X3.5137Y-4.0
X8.0137Y-4.0
T8
X1.2637Y-1.325
X1.2639Y-3.8994
X1.3574Y-2.825
X1.3574Y-4.325
X1.4512Y-2.075
X1.4512Y-4.325
X1.5449Y-2.825
X1.7324Y-3.575
X2.0137Y-1.325
X2.2009Y-3.8994
X2.2949Y-4.325
X2.3887Y-2.075
X2.5762Y-2.825
X2.5762Y-4.325
X2.7637Y-1.325
X2.9512Y-3.575
X3.1387Y-2.075
X3.2324Y-4.325
X3.3262Y-2.825
X3.5137Y-1.325
X3.7012Y-3.575
X3.8887Y-2.075
X4.0762Y-2.825
X4.0764Y-4.0006
X4.2637Y-1.325
X4.4512Y-3.575
X4.6387Y-2.075
X4.8262Y-2.825
X5.0137Y-1.325
X5.2012Y-3.575
X5.3887Y-2.075
X5.5762Y-2.825
X5.7637Y-1.325
X5.7637Y-4.325
X5.9512Y-3.575
X6.0449Y-4.325
X6.1387Y-2.075
X6.3262Y-2.825
X6.5137Y-1.325
X6.7012Y-3.575
X6.8887Y-2.075
X7.0762Y-2.825
X7.2637Y-1.325
X7.4512Y-3.575
X7.6387Y-2.075
X7.8262Y-2.825
X8.0134Y-4.0006
X8.0137Y-1.325
X8.2012Y-3.575
X8.3887Y-2.075
X8.5762Y-2.825
X8.7637Y-1.325
X8.7637Y-4.325
X8.9512Y-3.575
X8.9512Y-4.325
X9.1387Y-2.075
X9.3262Y-2.825
X9.5137Y-1.325
X9.5137Y-4.325
X9.7012Y-3.575
X9.8887Y-2.075
X10.0762Y-2.825
X10.0762Y-4.325
X10.2637Y-1.325
X10.2637Y-4.325
X10.6387Y-2.075
X10.7324Y-3.575
X10.8242Y-2.825
X10.8264Y-2.5006
X10.9202Y-1.6494
X11.0137Y-4.325
X11.2949Y-2.825
X11.3443Y-1.9815
X11.3443Y-2.9185
X11.3887Y-1.325
X11.5762Y-2.075
X11.6699Y-2.45
X11.7634Y-2.5006
X11.7637Y-3.575
X11.7637Y-4.325
X11.8572Y-1.6494
X12.5137Y-1.325
X12.5137Y-2.075
X12.5137Y-2.825
X12.5137Y-3.575
X12.5137Y-4.325
T9
X1.6269Y-1.7
X1.8237Y-3.9441
X6.8887Y-1.7
X7.0762Y-3.95
X12.1387Y-1.7039
X12.1387Y-3.9441
T0
M30
